<svg version="1.1" id="Layer_1" xmlns="http://www.w3.org/2000/svg" xmlns:xlink="http://www.w3.org/1999/xlink" x="0px" y="0px"
	 width="100%" viewBox="0 0 2000 1500" enable-background="new 0 0 2000 1500" xml:space="preserve">
<path fill="#FFFFFF" opacity="1.000000" stroke="none" 
	d="
M1259.000000,1501.000000 
	C839.333435,1501.000000 420.166931,1501.000000 1.000281,1501.000000 
	C1.000187,1001.000244 1.000187,501.000549 1.000094,1.000617 
	C667.666199,1.000411 1334.332397,1.000411 2000.998901,1.000206 
	C2000.999268,500.999390 2000.999268,1000.998779 2000.999634,1500.999023 
	C1753.833374,1501.000000 1506.666626,1501.000000 1259.000000,1501.000000 
M672.758728,880.073242 
	C689.997009,878.229065 704.313171,870.917603 714.849731,856.992493 
	C730.404663,836.435120 730.812805,809.129883 715.551758,788.088562 
	C707.591431,777.113281 702.364990,765.350830 702.116821,751.726562 
	C701.872437,738.310730 705.816589,726.118164 713.954773,715.392761 
	C722.955444,703.530457 727.875854,690.196350 726.510071,675.339905 
	C723.801331,645.876038 704.628113,625.979248 675.252258,621.189087 
	C647.606934,616.681091 629.161926,598.023438 625.068237,570.426697 
	C618.482666,526.032288 569.237061,505.214264 532.839905,531.405090 
	C529.604187,533.733398 526.320496,536.123047 522.747620,537.833740 
	C500.987518,548.252197 480.148682,546.465149 460.597351,532.304199 
	C422.806885,504.932922 373.835632,525.217590 366.885559,571.207153 
	C362.850220,597.909424 343.889679,616.988037 317.003174,621.132202 
	C300.626343,623.656372 287.000122,630.853760 277.019867,644.234497 
	C261.552338,664.972107 261.272156,692.001587 276.651550,713.134094 
	C284.959686,724.550110 290.058655,736.850952 289.927307,751.044617 
	C289.801086,764.682068 284.908691,776.611328 276.837738,787.515198 
	C266.591492,801.357910 263.013916,816.942688 266.671631,833.816467 
	C272.085632,858.792236 290.204956,875.285706 316.562500,879.772278 
	C344.825928,884.583191 362.789795,903.223389 367.114044,931.394836 
	C370.302521,952.166992 381.686249,967.414185 400.903961,975.926514 
	C421.052185,984.850891 440.643768,982.683228 458.614594,969.885498 
	C469.775574,961.937439 481.610992,956.783264 495.535614,956.677307 
	C510.022064,956.567078 522.284485,961.904785 533.844299,970.229004 
	C568.718506,995.341797 618.488342,974.667419 624.821106,932.399536 
	C629.018433,904.384583 644.432800,886.956543 672.758728,880.073242 
M1305.013794,854.899414 
	C1305.313721,862.043762 1306.048340,869.203003 1305.803711,876.328674 
	C1305.496460,885.276855 1305.157471,894.362366 1298.999146,901.900757 
	C1297.656982,903.543701 1295.890625,906.775818 1296.543945,907.694641 
	C1297.758545,909.402710 1300.567261,910.721313 1302.786987,910.843262 
	C1313.086304,911.408997 1323.410278,911.591003 1333.727783,911.711304 
	C1336.011597,911.737976 1338.384033,911.201416 1340.574829,910.490173 
	C1343.638062,909.495605 1344.723145,907.669983 1341.798584,905.139709 
	C1340.918457,904.378174 1340.073486,903.488953 1339.049927,902.993713 
	C1331.961426,899.564087 1329.706909,893.595886 1329.791504,886.180969 
	C1330.106934,858.533630 1330.539307,830.884949 1330.497192,803.237488 
	C1330.483398,794.160034 1331.791504,786.380249 1340.968628,782.166748 
	C1341.260498,782.032776 1341.585205,781.802673 1341.723999,781.530396 
	C1342.522583,779.964111 1344.083252,778.197388 1343.792480,776.839722 
	C1343.531372,775.619934 1341.237671,774.027832 1339.805786,773.992126 
	C1326.525757,773.661011 1313.226318,773.264099 1299.958862,773.697144 
	C1294.733643,773.867798 1294.281494,776.838745 1297.164307,781.234680 
	C1299.831543,785.301941 1303.213013,789.707764 1303.689819,794.237122 
	C1304.694702,803.784607 1304.076782,813.511230 1303.978760,823.162842 
	C1303.931641,827.799438 1301.624512,830.945129 1296.769775,831.005737 
	C1281.660767,831.194580 1266.548706,831.192932 1251.438110,831.169678 
	C1246.100708,831.161499 1243.336548,827.781860 1243.258789,822.950928 
	C1243.098511,812.993042 1243.083374,802.984192 1243.966797,793.081787 
	C1244.326538,789.048157 1246.710693,784.934387 1249.001099,781.392029 
	C1252.834106,775.464111 1252.546509,773.353760 1245.521851,773.011841 
	C1233.919922,772.447144 1222.258057,772.803345 1210.636230,773.201294 
	C1208.141357,773.286682 1205.709106,775.202637 1203.248047,776.275269 
	C1204.939331,778.204529 1206.307007,780.642517 1208.384644,781.964661 
	C1213.925537,785.490601 1216.977295,790.267151 1217.022339,796.782227 
	C1217.220337,825.422546 1217.231445,854.064514 1217.552612,882.703186 
	C1217.646362,891.074341 1215.242065,897.702209 1207.565063,901.842102 
	C1206.565796,902.380859 1205.750366,903.298645 1204.927368,904.118774 
	C1202.385742,906.652100 1203.170288,908.503540 1206.232056,909.696838 
	C1207.464355,910.177124 1208.797974,910.666199 1210.090820,910.680969 
	C1222.235474,910.819885 1234.383057,910.969116 1246.525024,910.791321 
	C1248.171631,910.767334 1250.400879,909.293396 1251.198853,907.849060 
	C1251.687500,906.964783 1249.960571,904.857300 1249.230591,903.298218 
	C1247.152100,898.859375 1243.631348,894.531006 1243.279785,889.959167 
	C1242.390259,878.391663 1242.896118,866.714600 1242.902222,855.081421 
	C1242.904663,850.336121 1245.466309,847.715759 1250.071289,847.003723 
	C1265.481079,844.621338 1280.912720,844.940674 1296.368896,846.542786 
	C1301.110107,847.034302 1304.124023,849.210510 1305.013794,854.899414 
M950.939819,630.594666 
	C950.958679,635.760010 951.055542,640.926392 950.982056,646.090454 
	C950.742737,662.906982 950.416992,679.722168 950.178406,696.538696 
	C950.106567,701.603821 948.414978,705.585327 943.559326,707.840515 
	C942.213196,708.465759 940.738464,709.200745 939.835693,710.304810 
	C938.436523,712.015930 936.792725,714.033264 936.635925,716.029480 
	C936.563049,716.956848 939.696472,718.976074 941.455017,719.073059 
	C954.235046,719.777527 967.033203,720.214783 979.830933,720.476379 
	C981.913513,720.518982 984.022400,719.275452 987.073975,718.330688 
	C984.935486,715.811523 983.360718,714.342163 982.257263,712.577942 
	C979.813171,708.670654 975.996948,704.762207 975.616150,700.591614 
	C974.638733,689.888062 974.956238,679.031860 975.328735,668.256531 
	C975.475891,663.997131 978.386780,661.577087 983.166077,661.716858 
	C990.559021,661.933167 996.282471,664.573608 1000.083313,671.227722 
	C1007.347412,683.944763 1014.941040,696.474060 1022.165771,709.212952 
	C1029.007446,721.276245 1039.213745,723.123352 1053.327515,720.287476 
	C1055.637085,719.823486 1057.476074,717.016785 1059.532593,715.292908 
	C1057.861694,713.493896 1056.522949,710.928345 1054.459961,710.034058 
	C1047.118286,706.851257 1041.594971,701.871460 1037.528809,695.099915 
	C1031.616577,685.254517 1025.605225,675.467407 1019.800720,665.559021 
	C1015.971191,659.021973 1016.342468,657.221924 1021.816895,651.667175 
	C1025.667725,647.759827 1030.016602,644.242737 1033.337036,639.930725 
	C1048.002563,620.885742 1040.500244,594.613159 1018.078796,586.023193 
	C1014.529541,584.663330 1010.779358,583.348572 1007.040649,583.056824 
	C997.773071,582.333679 988.456665,581.885681 979.163025,581.934753 
	C967.011292,581.998962 954.856750,582.533447 942.719055,583.166199 
	C940.838135,583.264221 939.040771,584.964722 937.204773,585.924194 
	C938.377686,587.597412 939.187988,589.867371 940.787170,590.838867 
	C947.200928,594.735352 949.454285,600.729675 949.918762,607.659180 
	C950.408813,614.970642 950.600464,622.302063 950.939819,630.594666 
M1475.798096,639.896057 
	C1475.527588,638.253052 1475.315552,636.598022 1474.977661,634.968994 
	C1471.577881,618.582031 1464.995605,603.930847 1451.747070,593.015808 
	C1438.201904,581.856506 1422.250854,579.021423 1405.301514,579.910767 
	C1387.259155,580.857422 1372.019165,587.980286 1360.337036,601.743103 
	C1338.715332,627.216064 1337.075317,672.546509 1357.047485,699.372009 
	C1370.489502,717.426514 1389.099731,725.286316 1411.509155,723.980347 
	C1436.103882,722.546997 1455.119629,711.867432 1466.991943,689.782898 
	C1475.236206,674.447021 1477.081299,657.897156 1475.798096,639.896057 
M1204.024536,674.545044 
	C1207.409302,663.709473 1207.964600,652.514587 1206.791382,641.417664 
	C1204.709351,621.725098 1197.361206,604.386353 1181.238037,591.836304 
	C1168.036377,581.560242 1152.630493,579.015991 1136.432861,579.919250 
	C1116.293213,581.042297 1099.755615,589.396240 1088.162842,606.004150 
	C1074.208008,625.995850 1071.467041,648.468384 1076.223633,671.870483 
	C1083.680664,708.558594 1114.470581,729.552856 1151.153198,723.127014 
	C1178.639893,718.312073 1195.805420,701.770142 1204.024536,674.545044 
M954.103882,852.500000 
	C954.040710,860.497375 954.018738,868.495361 953.903992,876.492004 
	C953.755798,886.817139 953.255005,896.765198 942.505615,902.829529 
	C938.394592,905.148804 939.596191,908.727478 944.410400,910.109985 
	C945.680237,910.474670 947.019958,910.796082 948.328064,910.797729 
	C975.973145,910.833130 1003.620911,911.035950 1031.261963,910.696716 
	C1040.712891,910.580750 1045.583740,905.329468 1046.925903,895.889160 
	C1047.230103,893.748596 1047.639526,891.543823 1047.416138,889.430420 
	C1047.207031,887.453247 1046.222290,885.558044 1045.578857,883.626770 
	C1043.810181,884.262878 1041.749390,884.512817 1040.318115,885.595093 
	C1026.970703,895.687683 1011.452087,897.958862 995.445312,897.721252 
	C985.927063,897.580017 981.589233,894.211060 980.323486,884.976135 
	C979.025208,875.503723 979.342468,865.777832 979.396301,856.165344 
	C979.424255,851.175659 982.950928,848.403870 987.530518,847.284180 
	C995.312927,845.381470 1002.745789,845.838440 1009.230347,851.286743 
	C1010.502686,852.355713 1011.857117,853.343140 1013.252502,854.246460 
	C1017.611694,857.068542 1021.720093,856.198303 1022.389038,851.229492 
	C1023.368652,843.953857 1023.411255,836.377441 1022.538513,829.086548 
	C1021.926270,823.971008 1017.128418,822.862000 1012.549133,825.569580 
	C1008.983276,827.677917 1005.462341,830.119385 1001.586731,831.399292 
	C989.102478,835.522461 979.484436,828.361206 979.812744,815.398376 
	C979.930420,810.754089 980.287048,806.069580 981.078613,801.497620 
	C983.231445,789.063904 989.861694,784.286438 1002.559021,785.334106 
	C1014.505249,786.319824 1025.832275,789.146423 1036.148682,795.505981 
	C1038.353638,796.865234 1041.457764,798.838562 1041.931396,794.049683 
	C1043.069702,782.541077 1039.056519,771.562073 1023.923096,771.763977 
	C999.767151,772.086243 975.604980,771.936707 951.445557,772.023132 
	C949.626953,772.029663 947.634399,771.916260 946.037415,772.596985 
	C944.209595,773.376099 941.738831,774.763428 941.405029,776.292114 
	C941.114075,777.624451 943.050354,780.361755 944.617554,781.024963 
	C952.116943,784.198303 954.130310,790.159424 954.114197,797.525818 
	C954.074829,815.517151 954.105835,833.508606 954.103882,852.500000 
M904.491028,650.008728 
	C917.264954,638.551880 919.318604,624.109131 915.373779,608.444946 
	C911.578186,593.373657 900.668518,585.172119 886.090820,582.514282 
	C862.300903,578.176819 838.307861,581.140686 814.404480,582.141541 
	C812.953064,582.202393 810.380737,584.089600 810.420654,585.039307 
	C810.496765,586.854126 811.626709,589.373901 813.115295,590.252380 
	C820.029907,594.333008 821.995239,600.662537 822.152161,608.018494 
	C822.496582,624.159973 822.986633,640.300842 823.093079,656.444092 
	C823.177551,669.258362 822.677917,682.075562 822.638062,694.892029 
	C822.616760,701.727173 819.697388,706.471985 813.913147,710.046875 
	C811.927002,711.274414 810.883911,714.027771 809.409973,716.084045 
	C811.742615,717.384155 814.041809,719.733398 816.413574,719.809143 
	C829.041931,720.212524 841.694519,720.259888 854.323547,719.898987 
	C856.872314,719.826233 859.355530,717.461243 861.869019,716.153076 
	C860.148071,714.135742 858.734375,711.686401 856.638672,710.196045 
	C852.916748,707.549133 848.570618,705.206543 848.329651,700.244995 
	C847.880188,690.993835 847.882629,681.696472 848.251770,672.440491 
	C848.425659,668.079895 851.234680,665.180237 855.954956,664.665833 
	C860.413635,664.179993 864.858276,663.565735 869.309387,663.010193 
	C881.804749,661.450439 893.980835,659.008728 904.491028,650.008728 
M1518.500610,581.998962 
	C1514.003662,582.064270 1509.456177,581.753784 1505.030151,582.347412 
	C1502.685669,582.661804 1500.552002,584.547668 1498.323242,585.724121 
	C1499.639160,587.460144 1500.624878,589.680298 1502.331055,590.844238 
	C1508.182007,594.835815 1511.280396,600.254517 1511.327271,607.208069 
	C1511.526978,636.843750 1511.592407,666.480469 1511.698242,696.116760 
	C1511.721069,702.524170 1508.754761,707.046082 1503.348267,710.457764 
	C1501.470947,711.642517 1500.455933,714.193909 1499.046997,716.121094 
	C1501.208496,717.413879 1503.312378,719.704285 1505.541016,719.832825 
	C1517.472168,720.521057 1529.437744,720.988708 1541.384521,720.864319 
	C1546.937378,720.806396 1547.619629,718.649292 1544.899414,713.924072 
	C1537.534424,701.130249 1536.126221,687.201721 1537.788574,672.909851 
	C1538.667969,665.349670 1542.773315,662.234131 1550.285522,660.879456 
	C1557.037842,659.661743 1562.641113,662.186218 1568.364258,665.037109 
	C1573.753540,667.721680 1577.804565,666.341919 1579.005005,660.531799 
	C1580.192383,654.784241 1580.528809,648.663391 1580.021240,642.811890 
	C1579.350464,635.082153 1575.946411,633.673340 1569.395752,637.725708 
	C1562.835815,641.783875 1556.012207,644.367615 1548.133057,643.197449 
	C1542.328003,642.335327 1538.906250,639.740051 1537.839844,633.951721 
	C1535.946289,623.673401 1536.426392,613.378601 1539.459961,603.343079 
	C1540.925171,598.495911 1544.461792,595.093018 1549.547852,594.878418 
	C1556.308960,594.593018 1563.138306,594.924194 1569.885498,595.555115 
	C1579.221436,596.427917 1586.664062,601.502380 1593.736084,607.247131 
	C1594.878906,608.175415 1597.037598,609.151672 1597.995850,608.665466 
	C1599.086548,608.112000 1599.884155,605.943420 1599.885498,604.476074 
	C1599.889404,600.171204 1599.622925,595.843506 1599.114746,591.566101 
	C1598.408569,585.624634 1594.630737,582.468933 1588.916382,581.587524 
	C1586.462402,581.208984 1583.941284,581.100037 1581.453735,581.130554 
	C1560.801270,581.383911 1540.149536,581.698608 1518.500610,581.998962 
M1230.214722,695.678955 
	C1230.235229,698.177490 1230.163574,700.680908 1230.293457,703.173706 
	C1230.680664,710.607910 1233.899048,715.883301 1241.608643,717.583740 
	C1247.607910,718.906982 1253.556030,720.778015 1259.629028,721.389832 
	C1274.793335,722.917664 1289.967651,723.306702 1304.050415,715.877991 
	C1313.769775,710.750977 1320.760376,703.321045 1323.091309,692.207336 
	C1326.524536,675.838623 1320.673706,661.019775 1305.936035,651.794434 
	C1297.382690,646.440308 1287.850708,642.672424 1278.912598,637.902954 
	C1272.190063,634.315613 1265.248901,630.872681 1259.253296,626.262451 
	C1253.073486,621.510681 1250.846802,614.539795 1252.690186,606.559814 
	C1254.464111,598.881104 1259.494263,594.313416 1266.733643,592.531616 
	C1279.521118,589.384460 1290.849243,592.093628 1299.635010,602.510376 
	C1302.423584,605.816589 1304.799805,609.485840 1307.731812,612.648804 
	C1309.058594,614.080017 1311.743774,615.859497 1312.987061,615.372620 
	C1314.726562,614.691467 1316.704346,612.095642 1316.808594,610.220642 
	C1317.164307,603.814331 1317.134888,597.324707 1316.476196,590.947021 
	C1316.077759,587.089783 1313.288086,584.539001 1309.034424,584.009338 
	C1301.446289,583.064453 1293.906128,581.561584 1286.294312,581.031799 
	C1279.213989,580.539062 1271.896240,580.042114 1264.983398,581.256226 
	C1249.890259,583.906921 1237.677612,591.134155 1232.990967,606.949646 
	C1227.848389,624.304138 1235.319580,640.675781 1253.206787,650.774841 
	C1262.609009,656.083252 1272.543213,660.441406 1282.112061,665.466675 
	C1286.361328,667.698242 1290.653442,670.098755 1294.306274,673.161682 
	C1301.250366,678.984314 1304.028687,686.825012 1301.757935,695.610718 
	C1299.533569,704.216980 1292.985474,708.695190 1284.482056,710.217712 
	C1269.041260,712.982483 1256.683105,707.882446 1247.368896,695.282104 
	C1244.603271,691.540649 1242.019775,687.610901 1238.855713,684.233032 
	C1235.891968,681.069092 1233.131348,681.811584 1231.778809,685.955078 
	C1230.863403,688.759399 1230.717529,691.814819 1230.214722,695.678955 
M802.561401,790.832825 
	C802.542480,794.329407 802.250061,797.851379 802.571655,801.316345 
	C803.003967,805.973938 805.751343,807.144897 809.281799,804.016052 
	C811.985901,801.619446 814.244995,798.636047 816.350281,795.664429 
	C822.547119,786.917236 831.373108,784.514160 841.365662,785.253601 
	C848.138062,785.754761 850.739990,788.212891 850.771118,795.083191 
	C850.902466,824.071533 850.660645,853.061340 850.655518,882.050659 
	C850.653931,891.005615 847.156128,897.695923 839.282349,902.256348 
	C837.574890,903.245300 836.715088,905.697632 835.464905,907.476013 
	C837.522278,908.580139 839.549622,910.573914 841.641785,910.644348 
	C855.456543,911.109802 869.285522,911.276733 883.109009,911.240540 
	C885.551147,911.234192 887.989563,909.816895 890.429688,909.051147 
	C888.936890,906.833191 887.913391,903.937622 885.866333,902.519897 
	C878.703674,897.558838 875.982300,890.796631 875.994324,882.397827 
	C876.033691,854.904236 875.931519,827.410461 875.978516,799.916870 
	C875.983276,797.116821 876.493958,794.293091 877.008057,791.524536 
	C877.658020,788.024536 879.860168,786.107300 883.447449,785.549500 
	C894.808044,783.782898 904.640686,786.133118 911.916138,795.729065 
	C913.325073,797.587341 914.567688,799.637390 916.258057,801.196655 
	C917.698059,802.525024 920.450317,804.519836 921.247620,804.021484 
	C922.916382,802.978210 924.527649,800.539734 924.651001,798.579102 
	C924.984253,793.286438 924.893738,787.902466 924.299500,782.630432 
	C923.262817,773.432495 921.371582,771.901184 912.162903,771.899048 
	C890.999146,771.894165 869.835266,771.940796 848.671692,772.031006 
	C836.507751,772.082886 824.342896,772.185303 812.181213,772.410889 
	C805.291809,772.538635 804.644165,773.119202 803.477844,779.966553 
	C802.920776,783.236694 802.876953,786.594360 802.561401,790.832825 
M1618.443970,613.970459 
	C1620.393188,611.704956 1622.614502,609.618286 1624.242554,607.141602 
	C1630.006714,598.371948 1638.164307,594.704041 1648.454590,594.963928 
	C1657.035522,595.180603 1659.922363,597.748474 1659.960938,606.357727 
	C1660.077881,632.512268 1659.954468,658.667969 1660.112793,684.822083 
	C1660.183472,696.479004 1658.888428,707.280518 1646.794800,713.114441 
	C1646.650146,713.184204 1646.491333,713.302795 1646.422852,713.440369 
	C1645.794800,714.699097 1644.412842,716.263489 1644.757080,717.160889 
	C1645.237427,718.412781 1646.897461,719.407166 1648.267456,720.062378 
	C1649.413452,720.610352 1650.866211,720.664368 1652.185913,720.678467 
	C1666.012207,720.825867 1679.839233,721.004639 1693.665039,720.935852 
	C1695.622192,720.926086 1697.572998,719.640381 1699.526733,718.945312 
	C1698.459717,717.026123 1697.876465,714.317078 1696.245728,713.318298 
	C1686.891968,707.589111 1684.925659,698.829041 1684.973633,688.805908 
	C1685.098755,662.650269 1684.983276,636.493591 1685.043335,610.337463 
	C1685.049438,607.693237 1685.546265,605.043335 1685.904663,602.408142 
	C1686.501709,598.018555 1689.041870,595.652710 1693.461548,595.148560 
	C1704.629517,593.874695 1714.321533,596.325989 1721.318970,605.874756 
	C1722.696167,607.753906 1724.017090,609.743958 1725.718384,611.293762 
	C1727.048828,612.505798 1729.506836,614.227417 1730.434204,613.744629 
	C1732.011108,612.923706 1733.584106,610.612427 1733.730713,608.811340 
	C1734.134155,603.852478 1734.088989,598.810120 1733.692627,593.843018 
	C1732.874512,583.585571 1730.500000,581.520325 1720.221924,581.553406 
	C1711.727661,581.580811 1703.233765,581.773743 1694.739380,581.826355 
	C1670.082520,581.979126 1645.425293,582.171387 1620.768311,582.168213 
	C1615.910278,582.167542 1613.106201,583.871826 1612.828491,588.866272 
	C1612.422852,596.165771 1611.916016,603.465942 1611.782837,610.771790 
	C1611.706421,614.974060 1613.742798,616.694946 1618.443970,613.970459 
M1175.269165,881.697937 
	C1172.852295,883.738586 1170.380249,885.717834 1168.026978,887.829468 
	C1143.078613,910.216553 1107.229492,901.047119 1096.013306,869.411499 
	C1091.046265,855.401855 1090.928955,840.997498 1092.533203,826.478394 
	C1093.682007,816.082642 1096.440186,806.156677 1102.897217,797.700989 
	C1119.412231,776.073792 1146.699585,781.580750 1160.400269,792.843994 
	C1164.622437,796.315125 1168.144409,800.629761 1172.060181,804.483765 
	C1176.351196,808.707092 1179.851074,807.939575 1180.443848,801.975525 
	C1181.075317,795.621521 1180.590820,789.063965 1179.800537,782.693726 
	C1179.268555,778.404785 1175.936768,775.691467 1171.553101,775.092041 
	C1160.017456,773.514648 1148.491455,771.323730 1136.899170,770.824402 
	C1115.947510,769.922119 1097.354858,776.223022 1083.325928,792.601074 
	C1073.039062,804.610596 1067.873413,818.954773 1066.523560,834.590515 
	C1064.810547,854.430908 1068.080200,873.253967 1080.347778,889.494873 
	C1098.412109,913.410217 1144.872803,921.310547 1170.284668,905.061646 
	C1176.625977,901.006836 1180.313110,894.863403 1182.195435,887.772522 
	C1183.662231,882.246155 1180.805298,879.568359 1175.269165,881.697937 
z"/>
<path fill="#3EC48D" opacity="1.000000" stroke="none" 
	d="
M672.341309,880.131592 
	C644.432800,886.956543 629.018433,904.384583 624.821106,932.399536 
	C618.488342,974.667419 568.718506,995.341797 533.844299,970.229004 
	C522.284485,961.904785 510.022064,956.567078 495.535614,956.677307 
	C481.610992,956.783264 469.775574,961.937439 458.614594,969.885498 
	C440.643768,982.683228 421.052185,984.850891 400.903961,975.926514 
	C381.686249,967.414185 370.302521,952.166992 367.114044,931.394836 
	C362.789795,903.223389 344.825928,884.583191 316.562500,879.772278 
	C290.204956,875.285706 272.085632,858.792236 266.671631,833.816467 
	C263.013916,816.942688 266.591492,801.357910 276.837738,787.515198 
	C284.908691,776.611328 289.801086,764.682068 289.927307,751.044617 
	C290.058655,736.850952 284.959686,724.550110 276.651550,713.134094 
	C261.272156,692.001587 261.552338,664.972107 277.019867,644.234497 
	C287.000122,630.853760 300.626343,623.656372 317.003174,621.132202 
	C343.889679,616.988037 362.850220,597.909424 366.885559,571.207153 
	C373.835632,525.217590 422.806885,504.932922 460.597351,532.304199 
	C480.148682,546.465149 500.987518,548.252197 522.747620,537.833740 
	C526.320496,536.123047 529.604187,533.733398 532.839905,531.405090 
	C569.237061,505.214264 618.482666,526.032288 625.068237,570.426697 
	C629.161926,598.023438 647.606934,616.681091 675.252258,621.189087 
	C704.628113,625.979248 723.801331,645.876038 726.510071,675.339905 
	C727.875854,690.196350 722.955444,703.530457 713.954773,715.392761 
	C705.816589,726.118164 701.872437,738.310730 702.116821,751.726562 
	C702.364990,765.350830 707.591431,777.113281 715.551758,788.088562 
	C730.812805,809.129883 730.404663,836.435120 714.849731,856.992493 
	C704.313171,870.917603 689.997009,878.229065 672.341309,880.131592 
M490.851440,767.356140 
	C494.559174,760.745117 499.340424,754.500183 501.746307,747.445190 
	C506.440125,733.680908 506.054260,719.178833 504.334839,704.907715 
	C503.570709,698.565369 501.726013,692.154785 499.232117,686.257019 
	C492.060242,669.296631 477.854614,661.913025 460.434265,661.168579 
	C440.640930,660.322754 420.789490,660.833191 400.963226,660.782410 
	C400.357819,660.780884 399.751648,661.093872 399.178864,661.251099 
	C399.178864,718.192993 399.178864,774.901062 399.178864,831.686401 
	C406.638794,831.686401 413.728424,831.686401 421.586243,831.686401 
	C421.586243,814.387085 421.586243,797.357483 421.586243,779.972778 
	C433.838104,779.972778 445.325775,780.196655 456.800842,779.912170 
	C469.239685,779.603821 480.857361,776.583740 490.851440,767.356140 
M582.133545,697.505188 
	C582.133545,692.740845 582.133545,687.976562 582.133545,682.842651 
	C595.316406,682.842651 607.756470,682.842651 620.463745,682.842651 
	C620.463745,675.384766 620.463745,668.325684 620.463745,661.026794 
	C587.602234,661.026794 555.050232,661.026794 522.289734,661.026794 
	C522.289734,668.376709 522.289734,675.438782 522.289734,682.995911 
	C534.808289,682.995911 547.050232,682.995911 559.893005,682.995911 
	C559.893005,732.844055 559.893005,782.200317 559.893005,831.645569 
	C567.578552,831.645569 574.648743,831.645569 582.133667,831.645569 
	C582.133667,787.059082 582.133667,742.781433 582.133545,697.505188 
z"/>
<path fill="#3FC58E" opacity="1.000000" stroke="none" 
	d="
M1304.957275,854.481628 
	C1304.124023,849.210510 1301.110107,847.034302 1296.368896,846.542786 
	C1280.912720,844.940674 1265.481079,844.621338 1250.071289,847.003723 
	C1245.466309,847.715759 1242.904663,850.336121 1242.902222,855.081421 
	C1242.896118,866.714600 1242.390259,878.391663 1243.279785,889.959167 
	C1243.631348,894.531006 1247.152100,898.859375 1249.230591,903.298218 
	C1249.960571,904.857300 1251.687500,906.964783 1251.198853,907.849060 
	C1250.400879,909.293396 1248.171631,910.767334 1246.525024,910.791321 
	C1234.383057,910.969116 1222.235474,910.819885 1210.090820,910.680969 
	C1208.797974,910.666199 1207.464355,910.177124 1206.232056,909.696838 
	C1203.170288,908.503540 1202.385742,906.652100 1204.927368,904.118774 
	C1205.750366,903.298645 1206.565796,902.380859 1207.565063,901.842102 
	C1215.242065,897.702209 1217.646362,891.074341 1217.552612,882.703186 
	C1217.231445,854.064514 1217.220337,825.422546 1217.022339,796.782227 
	C1216.977295,790.267151 1213.925537,785.490601 1208.384644,781.964661 
	C1206.307007,780.642517 1204.939331,778.204529 1203.248047,776.275269 
	C1205.709106,775.202637 1208.141357,773.286682 1210.636230,773.201294 
	C1222.258057,772.803345 1233.919922,772.447144 1245.521851,773.011841 
	C1252.546509,773.353760 1252.834106,775.464111 1249.001099,781.392029 
	C1246.710693,784.934387 1244.326538,789.048157 1243.966797,793.081787 
	C1243.083374,802.984192 1243.098511,812.993042 1243.258789,822.950928 
	C1243.336548,827.781860 1246.100708,831.161499 1251.438110,831.169678 
	C1266.548706,831.192932 1281.660767,831.194580 1296.769775,831.005737 
	C1301.624512,830.945129 1303.931641,827.799438 1303.978760,823.162842 
	C1304.076782,813.511230 1304.694702,803.784607 1303.689819,794.237122 
	C1303.213013,789.707764 1299.831543,785.301941 1297.164307,781.234680 
	C1294.281494,776.838745 1294.733643,773.867798 1299.958862,773.697144 
	C1313.226318,773.264099 1326.525757,773.661011 1339.805786,773.992126 
	C1341.237671,774.027832 1343.531372,775.619934 1343.792480,776.839722 
	C1344.083252,778.197388 1342.522583,779.964111 1341.723999,781.530396 
	C1341.585205,781.802673 1341.260498,782.032776 1340.968628,782.166748 
	C1331.791504,786.380249 1330.483398,794.160034 1330.497192,803.237488 
	C1330.539307,830.884949 1330.106934,858.533630 1329.791504,886.180969 
	C1329.706909,893.595886 1331.961426,899.564087 1339.049927,902.993713 
	C1340.073486,903.488953 1340.918457,904.378174 1341.798584,905.139709 
	C1344.723145,907.669983 1343.638062,909.495605 1340.574829,910.490173 
	C1338.384033,911.201416 1336.011597,911.737976 1333.727783,911.711304 
	C1323.410278,911.591003 1313.086304,911.408997 1302.786987,910.843262 
	C1300.567261,910.721313 1297.758545,909.402710 1296.543945,907.694641 
	C1295.890625,906.775818 1297.656982,903.543701 1298.999146,901.900757 
	C1305.157471,894.362366 1305.496460,885.276855 1305.803711,876.328674 
	C1306.048340,869.203003 1305.313721,862.043762 1304.957275,854.481628 
z"/>
<path fill="#3FC58E" opacity="1.000000" stroke="none" 
	d="
M950.931152,630.109741 
	C950.600464,622.302063 950.408813,614.970642 949.918762,607.659180 
	C949.454285,600.729675 947.200928,594.735352 940.787170,590.838867 
	C939.187988,589.867371 938.377686,587.597412 937.204773,585.924194 
	C939.040771,584.964722 940.838135,583.264221 942.719055,583.166199 
	C954.856750,582.533447 967.011292,581.998962 979.163025,581.934753 
	C988.456665,581.885681 997.773071,582.333679 1007.040649,583.056824 
	C1010.779358,583.348572 1014.529541,584.663330 1018.078796,586.023193 
	C1040.500244,594.613159 1048.002563,620.885742 1033.337036,639.930725 
	C1030.016602,644.242737 1025.667725,647.759827 1021.816895,651.667175 
	C1016.342468,657.221924 1015.971191,659.021973 1019.800720,665.559021 
	C1025.605225,675.467407 1031.616577,685.254517 1037.528809,695.099915 
	C1041.594971,701.871460 1047.118286,706.851257 1054.459961,710.034058 
	C1056.522949,710.928345 1057.861694,713.493896 1059.532593,715.292847 
	C1057.476074,717.016785 1055.637085,719.823486 1053.327515,720.287476 
	C1039.213745,723.123352 1029.007446,721.276245 1022.165771,709.212952 
	C1014.941040,696.474060 1007.347412,683.944763 1000.083313,671.227722 
	C996.282471,664.573608 990.559021,661.933167 983.166077,661.716858 
	C978.386780,661.577087 975.475891,663.997131 975.328735,668.256531 
	C974.956238,679.031860 974.638733,689.888062 975.616150,700.591614 
	C975.996948,704.762207 979.813171,708.670654 982.257263,712.577942 
	C983.360718,714.342163 984.935486,715.811523 987.073975,718.330688 
	C984.022400,719.275452 981.913513,720.518982 979.830933,720.476379 
	C967.033203,720.214783 954.235046,719.777527 941.455017,719.073059 
	C939.696472,718.976074 936.563049,716.956848 936.635925,716.029480 
	C936.792725,714.033264 938.436523,712.015930 939.835693,710.304810 
	C940.738464,709.200745 942.213196,708.465759 943.559326,707.840515 
	C948.414978,705.585327 950.106567,701.603821 950.178406,696.538696 
	C950.416992,679.722168 950.742737,662.906982 950.982056,646.090454 
	C951.055542,640.926392 950.958679,635.760010 950.931152,630.109741 
M973.901184,647.351440 
	C975.373840,648.240356 976.811035,649.813904 978.325745,649.892517 
	C983.296570,650.150330 988.369751,650.386292 993.269348,649.688171 
	C1006.298096,647.831909 1014.664124,640.186707 1016.640259,628.542114 
	C1017.273621,624.809937 1017.108826,620.906372 1016.995850,617.090515 
	C1016.669556,606.072510 1010.268799,596.990540 999.602966,594.106934 
	C993.621521,592.489746 987.148621,592.359802 980.882629,592.222778 
	C975.091003,592.096069 973.504883,593.729004 973.224976,599.660828 
	C972.872192,607.137024 972.945312,614.639404 973.026367,622.128357 
	C973.114441,630.264221 973.422729,638.397766 973.901184,647.351440 
z"/>
<path fill="#3FC58E" opacity="1.000000" stroke="none" 
	d="
M1475.838135,640.357910 
	C1477.081299,657.897156 1475.236206,674.447021 1466.991943,689.782898 
	C1455.119629,711.867432 1436.103882,722.546997 1411.509155,723.980347 
	C1389.099731,725.286316 1370.489502,717.426514 1357.047485,699.372009 
	C1337.075317,672.546509 1338.715332,627.216064 1360.337036,601.743103 
	C1372.019165,587.980286 1387.259155,580.857422 1405.301514,579.910767 
	C1422.250854,579.021423 1438.201904,581.856506 1451.747070,593.015808 
	C1464.995605,603.930847 1471.577881,618.582031 1474.977661,634.968994 
	C1475.315552,636.598022 1475.527588,638.253052 1475.838135,640.357910 
M1415.557983,593.783142 
	C1409.275635,589.475586 1402.704468,590.115173 1396.002441,592.601624 
	C1385.296875,596.573486 1378.497437,604.449219 1374.171753,614.668213 
	C1367.417236,630.625244 1366.926758,647.361877 1368.529907,664.266724 
	C1369.547729,674.999084 1372.550293,685.212952 1378.345215,694.383240 
	C1386.314697,706.994568 1397.347168,714.325439 1412.843140,712.982910 
	C1427.465088,711.716064 1436.173706,702.611816 1441.851929,690.061462 
	C1447.889038,676.717712 1449.601440,662.508728 1448.482422,648.067261 
	C1447.883179,640.336060 1447.637573,631.911377 1444.366089,625.196106 
	C1438.135132,612.406006 1428.792969,601.589600 1415.557983,593.783142 
z"/>
<path fill="#3FC58E" opacity="1.000000" stroke="none" 
	d="
M1203.931274,674.939575 
	C1195.805420,701.770142 1178.639893,718.312073 1151.153198,723.127014 
	C1114.470581,729.552856 1083.680664,708.558594 1076.223633,671.870483 
	C1071.467041,648.468384 1074.208008,625.995850 1088.162842,606.004150 
	C1099.755615,589.396240 1116.293213,581.042297 1136.432861,579.919250 
	C1152.630493,579.015991 1168.036377,581.560242 1181.238037,591.836304 
	C1197.361206,604.386353 1204.709351,621.725098 1206.791382,641.417664 
	C1207.964600,652.514587 1207.409302,663.709473 1203.931274,674.939575 
M1099.006104,658.292053 
	C1099.884033,672.657471 1103.156250,686.289551 1111.911499,698.050781 
	C1118.350708,706.700745 1126.732178,712.445801 1137.819458,713.009949 
	C1154.845947,713.876221 1167.064453,705.256714 1173.856934,687.856018 
	C1179.420166,673.604431 1180.304443,658.827393 1179.371826,643.681519 
	C1177.881348,619.473633 1163.563354,604.317505 1144.183105,592.746216 
	C1141.334595,591.045410 1137.093262,590.580688 1133.711426,591.060425 
	C1119.510620,593.074829 1110.625000,601.987793 1105.175903,614.726257 
	C1099.342651,628.362488 1098.370361,642.741882 1099.006104,658.292053 
z"/>
<path fill="#3FC58E" opacity="1.000000" stroke="none" 
	d="
M954.106201,852.000000 
	C954.105835,833.508606 954.074829,815.517151 954.114197,797.525818 
	C954.130310,790.159424 952.116943,784.198303 944.617554,781.024963 
	C943.050354,780.361755 941.114075,777.624451 941.405029,776.292114 
	C941.738831,774.763428 944.209595,773.376099 946.037415,772.596985 
	C947.634399,771.916260 949.626953,772.029663 951.445557,772.023132 
	C975.604980,771.936707 999.767151,772.086243 1023.923096,771.763977 
	C1039.056519,771.562073 1043.069702,782.541077 1041.931396,794.049683 
	C1041.457764,798.838562 1038.353638,796.865234 1036.148682,795.505981 
	C1025.832275,789.146423 1014.505249,786.319824 1002.559021,785.334106 
	C989.861694,784.286438 983.231445,789.063904 981.078613,801.497620 
	C980.287048,806.069580 979.930420,810.754089 979.812744,815.398376 
	C979.484436,828.361206 989.102478,835.522461 1001.586731,831.399292 
	C1005.462341,830.119385 1008.983276,827.677917 1012.549133,825.569580 
	C1017.128418,822.862000 1021.926270,823.971008 1022.538513,829.086548 
	C1023.411255,836.377441 1023.368652,843.953857 1022.389038,851.229492 
	C1021.720093,856.198303 1017.611694,857.068542 1013.252502,854.246460 
	C1011.857117,853.343140 1010.502686,852.355713 1009.230347,851.286743 
	C1002.745789,845.838440 995.312927,845.381470 987.530518,847.284180 
	C982.950928,848.403870 979.424255,851.175659 979.396301,856.165344 
	C979.342468,865.777832 979.025208,875.503723 980.323486,884.976135 
	C981.589233,894.211060 985.927063,897.580017 995.445312,897.721252 
	C1011.452087,897.958862 1026.970703,895.687683 1040.318115,885.595093 
	C1041.749390,884.512817 1043.810181,884.262878 1045.578857,883.626709 
	C1046.222290,885.558044 1047.207031,887.453247 1047.416138,889.430420 
	C1047.639526,891.543823 1047.230103,893.748596 1046.925903,895.889160 
	C1045.583740,905.329468 1040.712891,910.580750 1031.261963,910.696716 
	C1003.620911,911.035950 975.973145,910.833130 948.328064,910.797729 
	C947.019958,910.796082 945.680237,910.474670 944.410400,910.109985 
	C939.596191,908.727478 938.394592,905.148804 942.505615,902.829529 
	C953.255005,896.765198 953.755798,886.817139 953.903992,876.492004 
	C954.018738,868.495361 954.040710,860.497375 954.106201,852.000000 
z"/>
<path fill="#3FC58E" opacity="1.000000" stroke="none" 
	d="
M904.223877,650.245239 
	C893.980835,659.008728 881.804749,661.450439 869.309387,663.010193 
	C864.858276,663.565735 860.413635,664.179993 855.954956,664.665833 
	C851.234680,665.180237 848.425659,668.079895 848.251770,672.440491 
	C847.882629,681.696472 847.880188,690.993835 848.329651,700.244995 
	C848.570618,705.206543 852.916748,707.549133 856.638672,710.196045 
	C858.734375,711.686401 860.148071,714.135742 861.869019,716.153076 
	C859.355530,717.461243 856.872314,719.826233 854.323547,719.898987 
	C841.694519,720.259888 829.041931,720.212524 816.413574,719.809143 
	C814.041809,719.733398 811.742615,717.384155 809.409973,716.084045 
	C810.883911,714.027771 811.927002,711.274414 813.913147,710.046875 
	C819.697388,706.471985 822.616760,701.727173 822.638062,694.892029 
	C822.677917,682.075562 823.177551,669.258362 823.093079,656.444092 
	C822.986633,640.300842 822.496582,624.159973 822.152161,608.018494 
	C821.995239,600.662537 820.029907,594.333008 813.115295,590.252380 
	C811.626709,589.373901 810.496765,586.854126 810.420654,585.039307 
	C810.380737,584.089600 812.953064,582.202393 814.404480,582.141541 
	C838.307861,581.140686 862.300903,578.176819 886.090820,582.514282 
	C900.668518,585.172119 911.578186,593.373657 915.373779,608.444946 
	C919.318604,624.109131 917.264954,638.551880 904.223877,650.245239 
M846.679810,600.257812 
	C846.564026,615.578979 846.428223,630.900146 846.364258,646.221497 
	C846.358032,647.701050 846.429993,649.389709 847.120178,650.611572 
	C848.027283,652.217346 849.403381,654.418884 850.890198,654.697632 
	C861.087952,656.609436 871.277588,656.695618 880.147583,650.299805 
	C892.216309,641.597778 892.981201,628.903687 891.355835,615.681824 
	C889.985718,604.536072 883.783813,596.700684 873.167786,593.462463 
	C867.261963,591.660950 860.745544,591.582214 854.479858,591.327271 
	C849.352356,591.118591 846.395386,593.880066 846.679810,600.257812 
z"/>
<path fill="#40C58E" opacity="1.000000" stroke="none" 
	d="
M1518.999023,581.996826 
	C1540.149536,581.698608 1560.801270,581.383911 1581.453735,581.130554 
	C1583.941284,581.100037 1586.462402,581.208984 1588.916382,581.587524 
	C1594.630737,582.468933 1598.408569,585.624634 1599.114746,591.566101 
	C1599.622925,595.843506 1599.889404,600.171204 1599.885498,604.476074 
	C1599.884155,605.943420 1599.086548,608.112000 1597.995850,608.665466 
	C1597.037598,609.151672 1594.878906,608.175415 1593.736084,607.247131 
	C1586.664062,601.502380 1579.221436,596.427917 1569.885498,595.555115 
	C1563.138306,594.924194 1556.308960,594.593018 1549.547852,594.878418 
	C1544.461792,595.093018 1540.925171,598.495911 1539.459961,603.343079 
	C1536.426392,613.378601 1535.946289,623.673401 1537.839844,633.951721 
	C1538.906250,639.740051 1542.328003,642.335327 1548.133057,643.197449 
	C1556.012207,644.367615 1562.835815,641.783875 1569.395752,637.725708 
	C1575.946411,633.673340 1579.350464,635.082153 1580.021240,642.811890 
	C1580.528809,648.663391 1580.192383,654.784241 1579.005005,660.531799 
	C1577.804565,666.341919 1573.753540,667.721680 1568.364258,665.037109 
	C1562.641113,662.186218 1557.037842,659.661743 1550.285522,660.879456 
	C1542.773315,662.234131 1538.667969,665.349670 1537.788574,672.909851 
	C1536.126221,687.201721 1537.534424,701.130249 1544.899414,713.924072 
	C1547.619629,718.649292 1546.937378,720.806396 1541.384521,720.864319 
	C1529.437744,720.988708 1517.472168,720.521057 1505.541016,719.832825 
	C1503.312378,719.704285 1501.208496,717.413879 1499.046997,716.121094 
	C1500.455933,714.193909 1501.470947,711.642517 1503.348267,710.457764 
	C1508.754761,707.046082 1511.721069,702.524170 1511.698242,696.116760 
	C1511.592407,666.480469 1511.526978,636.843750 1511.327271,607.208069 
	C1511.280396,600.254517 1508.182007,594.835815 1502.331055,590.844238 
	C1500.624878,589.680298 1499.639160,587.460144 1498.323242,585.724121 
	C1500.552002,584.547668 1502.685669,582.661804 1505.030151,582.347412 
	C1509.456177,581.753784 1514.003662,582.064270 1518.999023,581.996826 
z"/>
<path fill="#40C58F" opacity="1.000000" stroke="none" 
	d="
M1230.221191,695.218445 
	C1230.717529,691.814819 1230.863403,688.759399 1231.778809,685.955078 
	C1233.131348,681.811584 1235.891968,681.069092 1238.855713,684.233032 
	C1242.019775,687.610901 1244.603271,691.540649 1247.368896,695.282104 
	C1256.683105,707.882446 1269.041260,712.982483 1284.482056,710.217712 
	C1292.985474,708.695190 1299.533569,704.216980 1301.757935,695.610718 
	C1304.028687,686.825012 1301.250366,678.984314 1294.306274,673.161682 
	C1290.653442,670.098755 1286.361328,667.698242 1282.112061,665.466675 
	C1272.543213,660.441406 1262.609009,656.083252 1253.206787,650.774841 
	C1235.319580,640.675781 1227.848389,624.304138 1232.990967,606.949646 
	C1237.677612,591.134155 1249.890259,583.906921 1264.983398,581.256226 
	C1271.896240,580.042114 1279.213989,580.539062 1286.294312,581.031799 
	C1293.906128,581.561584 1301.446289,583.064453 1309.034424,584.009338 
	C1313.288086,584.539001 1316.077759,587.089783 1316.476196,590.947021 
	C1317.134888,597.324707 1317.164307,603.814331 1316.808594,610.220642 
	C1316.704346,612.095642 1314.726562,614.691467 1312.987061,615.372620 
	C1311.743774,615.859497 1309.058594,614.080017 1307.731812,612.648804 
	C1304.799805,609.485840 1302.423584,605.816589 1299.635010,602.510376 
	C1290.849243,592.093628 1279.521118,589.384460 1266.733643,592.531616 
	C1259.494263,594.313416 1254.464111,598.881104 1252.690186,606.559814 
	C1250.846802,614.539795 1253.073486,621.510681 1259.253296,626.262451 
	C1265.248901,630.872681 1272.190063,634.315613 1278.912598,637.902954 
	C1287.850708,642.672424 1297.382690,646.440308 1305.936035,651.794434 
	C1320.673706,661.019775 1326.524536,675.838623 1323.091309,692.207336 
	C1320.760376,703.321045 1313.769775,710.750977 1304.050415,715.877991 
	C1289.967651,723.306702 1274.793335,722.917664 1259.629028,721.389832 
	C1253.556030,720.778015 1247.607910,718.906982 1241.608643,717.583740 
	C1233.899048,715.883301 1230.680664,710.607910 1230.293457,703.173706 
	C1230.163574,700.680908 1230.235229,698.177490 1230.221191,695.218445 
z"/>
<path fill="#3FC58E" opacity="1.000000" stroke="none" 
	d="
M802.581055,790.372559 
	C802.876953,786.594360 802.920776,783.236694 803.477844,779.966553 
	C804.644165,773.119202 805.291809,772.538635 812.181213,772.410889 
	C824.342896,772.185303 836.507751,772.082886 848.671692,772.031006 
	C869.835266,771.940796 890.999146,771.894165 912.162903,771.899048 
	C921.371582,771.901184 923.262817,773.432495 924.299500,782.630432 
	C924.893738,787.902466 924.984253,793.286438 924.651001,798.579102 
	C924.527649,800.539734 922.916382,802.978210 921.247620,804.021484 
	C920.450317,804.519836 917.698059,802.525024 916.258057,801.196655 
	C914.567688,799.637390 913.325073,797.587341 911.916138,795.729065 
	C904.640686,786.133118 894.808044,783.782898 883.447449,785.549500 
	C879.860168,786.107300 877.658020,788.024536 877.008057,791.524536 
	C876.493958,794.293091 875.983276,797.116821 875.978516,799.916870 
	C875.931519,827.410461 876.033691,854.904236 875.994324,882.397827 
	C875.982300,890.796631 878.703674,897.558838 885.866333,902.519897 
	C887.913391,903.937622 888.936890,906.833191 890.429688,909.051147 
	C887.989563,909.816895 885.551147,911.234192 883.109009,911.240540 
	C869.285522,911.276733 855.456543,911.109802 841.641785,910.644348 
	C839.549622,910.573914 837.522278,908.580139 835.464844,907.475952 
	C836.715088,905.697632 837.574890,903.245300 839.282349,902.256348 
	C847.156128,897.695923 850.653931,891.005615 850.655518,882.050659 
	C850.660645,853.061340 850.902466,824.071533 850.771118,795.083191 
	C850.739990,788.212891 848.138062,785.754761 841.365662,785.253601 
	C831.373108,784.514160 822.547119,786.917236 816.350281,795.664429 
	C814.244995,798.636047 811.985901,801.619446 809.281799,804.016052 
	C805.751343,807.144897 803.003967,805.973938 802.571655,801.316345 
	C802.250061,797.851379 802.542480,794.329407 802.581055,790.372559 
z"/>
<path fill="#40C58E" opacity="1.000000" stroke="none" 
	d="
M1618.149536,614.168701 
	C1613.742798,616.694946 1611.706421,614.974060 1611.782837,610.771790 
	C1611.916016,603.465942 1612.422852,596.165771 1612.828491,588.866272 
	C1613.106201,583.871826 1615.910278,582.167542 1620.768311,582.168213 
	C1645.425293,582.171387 1670.082520,581.979126 1694.739380,581.826355 
	C1703.233765,581.773743 1711.727661,581.580811 1720.221924,581.553406 
	C1730.500000,581.520325 1732.874512,583.585571 1733.692627,593.843018 
	C1734.088989,598.810120 1734.134155,603.852478 1733.730713,608.811340 
	C1733.584106,610.612427 1732.011108,612.923706 1730.434204,613.744629 
	C1729.506836,614.227417 1727.048828,612.505798 1725.718384,611.293762 
	C1724.017090,609.743958 1722.696167,607.753906 1721.318970,605.874756 
	C1714.321533,596.325989 1704.629517,593.874695 1693.461548,595.148560 
	C1689.041870,595.652710 1686.501709,598.018555 1685.904663,602.408142 
	C1685.546265,605.043335 1685.049438,607.693237 1685.043335,610.337463 
	C1684.983276,636.493591 1685.098755,662.650269 1684.973633,688.805908 
	C1684.925659,698.829041 1686.891968,707.589111 1696.245728,713.318298 
	C1697.876465,714.317078 1698.459717,717.026123 1699.526733,718.945312 
	C1697.572998,719.640381 1695.622192,720.926086 1693.665039,720.935852 
	C1679.839233,721.004639 1666.012207,720.825867 1652.185913,720.678467 
	C1650.866211,720.664368 1649.413452,720.610352 1648.267456,720.062378 
	C1646.897461,719.407166 1645.237427,718.412781 1644.757080,717.160889 
	C1644.412842,716.263489 1645.794800,714.699097 1646.422852,713.440369 
	C1646.491333,713.302795 1646.650146,713.184204 1646.794800,713.114441 
	C1658.888428,707.280518 1660.183472,696.479004 1660.112793,684.822083 
	C1659.954468,658.667969 1660.077881,632.512268 1659.960938,606.357727 
	C1659.922363,597.748474 1657.035522,595.180603 1648.454590,594.963928 
	C1638.164307,594.704041 1630.006714,598.371948 1624.242554,607.141602 
	C1622.614502,609.618286 1620.393188,611.704956 1618.149536,614.168701 
z"/>
<path fill="#40C58F" opacity="1.000000" stroke="none" 
	d="
M1175.562744,881.484436 
	C1180.805298,879.568359 1183.662231,882.246155 1182.195435,887.772522 
	C1180.313110,894.863403 1176.625977,901.006836 1170.284668,905.061646 
	C1144.872803,921.310547 1098.412109,913.410217 1080.347778,889.494873 
	C1068.080200,873.253967 1064.810547,854.430908 1066.523560,834.590515 
	C1067.873413,818.954773 1073.039062,804.610596 1083.325928,792.601074 
	C1097.354858,776.223022 1115.947510,769.922119 1136.899170,770.824402 
	C1148.491455,771.323730 1160.017456,773.514648 1171.553101,775.092041 
	C1175.936768,775.691467 1179.268555,778.404785 1179.800537,782.693726 
	C1180.590820,789.063965 1181.075317,795.621521 1180.443848,801.975525 
	C1179.851074,807.939575 1176.351196,808.707092 1172.060181,804.483765 
	C1168.144409,800.629761 1164.622437,796.315125 1160.400269,792.843994 
	C1146.699585,781.580750 1119.412231,776.073792 1102.897217,797.700989 
	C1096.440186,806.156677 1093.682007,816.082642 1092.533203,826.478394 
	C1090.928955,840.997498 1091.046265,855.401855 1096.013306,869.411499 
	C1107.229492,901.047119 1143.078613,910.216553 1168.026978,887.829468 
	C1170.380249,885.717834 1172.852295,883.738586 1175.562744,881.484436 
z"/>
<path fill="#FEFFFE" opacity="1.000000" stroke="none" 
	d="
M490.594482,767.600708 
	C480.857361,776.583740 469.239685,779.603821 456.800842,779.912170 
	C445.325775,780.196655 433.838104,779.972778 421.586243,779.972778 
	C421.586243,797.357483 421.586243,814.387085 421.586243,831.686401 
	C413.728424,831.686401 406.638794,831.686401 399.178864,831.686401 
	C399.178864,774.901062 399.178864,718.192993 399.178864,661.251099 
	C399.751648,661.093872 400.357819,660.780884 400.963226,660.782410 
	C420.789490,660.833191 440.640930,660.322754 460.434265,661.168579 
	C477.854614,661.913025 492.060242,669.296631 499.232117,686.257019 
	C501.726013,692.154785 503.570709,698.565369 504.334839,704.907715 
	C506.054260,719.178833 506.440125,733.680908 501.746307,747.445190 
	C499.340424,754.500183 494.559174,760.745117 490.594482,767.600708 
M440.499969,758.162964 
	C445.829803,758.080383 451.174347,758.221252 456.486694,757.872498 
	C471.109406,756.912354 478.880981,750.700378 480.901306,736.322205 
	C482.297546,726.385315 482.396423,716.071289 481.515076,706.063171 
	C480.605286,695.731934 475.760864,686.297607 464.378632,684.801941 
	C450.328583,682.955627 436.025024,683.038269 421.696533,682.280334 
	C421.696533,708.351624 421.696533,733.073486 421.696533,758.163086 
	C427.872223,758.163086 433.686371,758.163086 440.499969,758.162964 
z"/>
<path fill="#FEFFFF" opacity="1.000000" stroke="none" 
	d="
M582.133606,698.004517 
	C582.133667,742.781433 582.133667,787.059082 582.133667,831.645569 
	C574.648743,831.645569 567.578552,831.645569 559.893005,831.645569 
	C559.893005,782.200317 559.893005,732.844055 559.893005,682.995911 
	C547.050232,682.995911 534.808289,682.995911 522.289734,682.995911 
	C522.289734,675.438782 522.289734,668.376709 522.289734,661.026794 
	C555.050232,661.026794 587.602234,661.026794 620.463745,661.026794 
	C620.463745,668.325684 620.463745,675.384766 620.463745,682.842651 
	C607.756470,682.842651 595.316406,682.842651 582.133545,682.842651 
	C582.133545,687.976562 582.133545,692.740845 582.133606,698.004517 
z"/>
<path fill="#FEFFFE" opacity="1.000000" stroke="none" 
	d="
M973.768066,646.941895 
	C973.422729,638.397766 973.114441,630.264221 973.026367,622.128357 
	C972.945312,614.639404 972.872192,607.137024 973.224976,599.660828 
	C973.504883,593.729004 975.091003,592.096069 980.882629,592.222778 
	C987.148621,592.359802 993.621521,592.489746 999.602966,594.106934 
	C1010.268799,596.990540 1016.669556,606.072510 1016.995850,617.090515 
	C1017.108826,620.906372 1017.273621,624.809937 1016.640259,628.542114 
	C1014.664124,640.186707 1006.298096,647.831909 993.269348,649.688171 
	C988.369751,650.386292 983.296570,650.150330 978.325745,649.892517 
	C976.811035,649.813904 975.373840,648.240356 973.768066,646.941895 
z"/>
<path fill="#FEFFFE" opacity="1.000000" stroke="none" 
	d="
M1415.896484,593.944214 
	C1428.792969,601.589600 1438.135132,612.406006 1444.366089,625.196106 
	C1447.637573,631.911377 1447.883179,640.336060 1448.482422,648.067261 
	C1449.601440,662.508728 1447.889038,676.717712 1441.851929,690.061462 
	C1436.173706,702.611816 1427.465088,711.716064 1412.843140,712.982910 
	C1397.347168,714.325439 1386.314697,706.994568 1378.345215,694.383240 
	C1372.550293,685.212952 1369.547729,674.999084 1368.529907,664.266724 
	C1366.926758,647.361877 1367.417236,630.625244 1374.171753,614.668213 
	C1378.497437,604.449219 1385.296875,596.573486 1396.002441,592.601624 
	C1402.704468,590.115173 1409.275635,589.475586 1415.896484,593.944214 
z"/>
<path fill="#FEFFFE" opacity="1.000000" stroke="none" 
	d="
M1099.001221,657.813416 
	C1098.370361,642.741882 1099.342651,628.362488 1105.175903,614.726257 
	C1110.625000,601.987793 1119.510620,593.074829 1133.711426,591.060425 
	C1137.093262,590.580688 1141.334595,591.045410 1144.183105,592.746216 
	C1163.563354,604.317505 1177.881348,619.473633 1179.371826,643.681519 
	C1180.304443,658.827393 1179.420166,673.604431 1173.856934,687.856018 
	C1167.064453,705.256714 1154.845947,713.876221 1137.819458,713.009949 
	C1126.732178,712.445801 1118.350708,706.700745 1111.911499,698.050781 
	C1103.156250,686.289551 1099.884033,672.657471 1099.001221,657.813416 
z"/>
<path fill="#FCFEFD" opacity="1.000000" stroke="none" 
	d="
M846.732178,599.823364 
	C846.395386,593.880066 849.352356,591.118591 854.479858,591.327271 
	C860.745544,591.582214 867.261963,591.660950 873.167786,593.462463 
	C883.783813,596.700684 889.985718,604.536072 891.355835,615.681824 
	C892.981201,628.903687 892.216309,641.597778 880.147583,650.299805 
	C871.277588,656.695618 861.087952,656.609436 850.890198,654.697632 
	C849.403381,654.418884 848.027283,652.217346 847.120178,650.611572 
	C846.429993,649.389709 846.358032,647.701050 846.364258,646.221497 
	C846.428223,630.900146 846.564026,615.578979 846.732178,599.823364 
z"/>
<path fill="#3FC58E" opacity="1.000000" stroke="none" 
	d="
M440.000244,758.163025 
	C433.686371,758.163086 427.872223,758.163086 421.696533,758.163086 
	C421.696533,733.073486 421.696533,708.351624 421.696533,682.280334 
	C436.025024,683.038269 450.328583,682.955627 464.378632,684.801941 
	C475.760864,686.297607 480.605286,695.731934 481.515076,706.063171 
	C482.396423,716.071289 482.297546,726.385315 480.901306,736.322205 
	C478.880981,750.700378 471.109406,756.912354 456.486694,757.872498 
	C451.174347,758.221252 445.829803,758.080383 440.000244,758.163025 
z"/>
</svg>