<svg version="1.1" id="Layer_1" xmlns="http://www.w3.org/2000/svg" xmlns:xlink="http://www.w3.org/1999/xlink" x="0px" y="0px"
	 width="100%" viewBox="0 0 1024 1024" enable-background="new 0 0 1024 1024" xml:space="preserve">
<path fill="#000000" opacity="1.000000" stroke="none" 
	d="
M313.578003,542.999878 
	C313.345856,517.843079 313.628052,493.187195 313.289490,468.526306 
	C312.903168,440.387360 313.528351,412.235870 313.526062,384.089844 
	C313.523926,357.632599 313.178680,331.175385 313.167999,304.718109 
	C313.158905,282.264404 313.450928,259.810699 313.527618,237.356750 
	C313.554901,229.370667 313.445862,221.380341 313.186340,213.398849 
	C313.078278,210.075699 313.974243,208.393463 317.625732,208.605240 
	C321.278961,208.817123 324.955933,208.694031 328.620636,208.622406 
	C387.076141,207.479630 445.541626,207.367432 503.998901,207.851288 
	C535.150024,208.109116 563.172302,217.970398 586.458374,239.415833 
	C589.813293,242.505600 593.357849,243.892624 598.075745,243.840225 
	C622.568481,243.568222 647.076416,244.080154 671.555847,243.436172 
	C683.694336,243.116882 695.831177,242.739441 707.972656,242.771225 
	C711.201843,242.779678 712.617188,241.148071 714.036560,238.618591 
	C725.916809,217.447250 757.453674,216.578476 770.130066,237.311707 
	C776.483459,247.703064 776.474670,258.986633 770.748657,269.723328 
	C764.945618,280.604553 755.355347,285.944397 743.054993,286.300903 
	C730.064819,286.677429 720.262085,280.911957 713.511597,270.097656 
	C709.687012,263.970612 703.698914,266.084808 698.658508,265.925415 
	C694.603394,265.797180 690.376038,266.419769 686.234741,266.310028 
	C663.919067,265.718781 641.641357,267.535767 619.330933,267.266632 
	C613.187561,267.192535 612.306519,268.684052 615.437683,274.047668 
	C625.699097,291.625549 631.871704,310.375305 632.177063,330.856476 
	C632.218384,333.629517 633.356995,334.764984 636.104431,334.658569 
	C646.738708,334.246735 657.381897,335.219788 668.033508,333.971313 
	C673.449890,333.336487 679.011475,333.959595 684.507507,333.974426 
	C686.156311,333.978882 688.232483,334.370056 689.183472,332.841095 
	C694.298950,324.616760 702.812012,326.313385 710.261658,325.886780 
	C719.884583,325.335724 729.571777,325.857178 739.230103,325.998016 
	C743.224060,326.056183 745.721130,324.562347 747.970947,320.927338 
	C759.839417,301.751465 786.287842,298.822113 801.153687,314.752991 
	C811.867249,326.234161 812.106873,345.698883 801.677124,357.274872 
	C789.960876,370.278687 771.038879,372.732697 757.918335,362.979675 
	C752.892334,359.243713 748.510925,354.972412 746.298157,348.948822 
	C745.275696,346.165314 743.439148,345.297241 740.550659,345.328125 
	C729.054077,345.450928 717.554871,345.435150 706.057739,345.338501 
	C703.128052,345.313873 700.815552,346.252136 699.144287,348.567596 
	C696.285828,352.527802 692.333435,353.351044 687.721985,353.311188 
	C670.559753,353.162781 653.394409,353.335754 636.233215,353.135559 
	C631.795532,353.083801 629.761047,354.616241 628.707703,359.016174 
	C625.272400,373.365417 619.457825,386.759857 611.437683,399.182159 
	C610.476074,400.671570 609.188354,402.092346 609.149170,404.106873 
	C611.010193,406.130219 613.466797,405.581207 615.703918,405.558350 
	C631.357910,405.398285 647.010864,405.144409 662.664551,404.946625 
	C671.658569,404.832977 680.656372,404.597626 689.646057,404.763458 
	C693.367371,404.832092 695.687134,403.644104 697.940613,400.612640 
	C710.289429,384.000397 733.618958,382.290771 748.388367,396.254089 
	C758.579773,405.889282 760.072388,424.622284 753.657410,436.064423 
	C747.042236,447.863495 730.898926,454.540100 717.348328,450.997498 
	C706.527588,448.168610 698.415710,441.937103 694.559875,431.243988 
	C693.214294,427.512207 691.102173,426.514740 687.594055,426.475250 
	C672.432068,426.304626 657.283630,426.647247 642.125916,427.033112 
	C625.142090,427.465454 608.140747,427.273468 591.147461,427.222107 
	C587.818848,427.212036 585.169678,428.129181 582.448120,430.135376 
	C562.527588,444.819611 540.304382,453.109650 515.440979,454.514160 
	C508.968842,454.879761 502.496185,455.545288 496.042175,455.168854 
	C491.336121,454.894379 490.040710,456.588867 490.061554,461.098999 
	C490.205505,492.259338 490.136841,523.420593 490.137604,554.581604 
	C490.137695,558.580872 489.873199,562.603638 490.217224,566.573364 
	C490.634766,571.391113 488.484161,572.468079 484.088440,572.411499 
	C468.427246,572.209595 452.758484,572.153381 437.099976,572.443054 
	C432.117767,572.535278 430.520599,571.151123 430.555481,566.017578 
	C430.776062,533.524902 430.725952,501.029968 430.648102,468.536041 
	C430.615234,454.819855 432.762543,455.291779 417.512115,455.335815 
	C406.514160,455.367584 395.511444,455.544983 384.520294,455.274597 
	C379.807892,455.158661 378.165771,456.537354 378.192719,461.462097 
	C378.382507,496.121429 378.294556,530.782288 378.292511,565.442627 
	C378.292114,572.314453 378.286591,572.327515 371.449615,572.330688 
	C353.952789,572.338806 336.454834,572.229065 318.959900,572.411743 
	C314.823090,572.454956 313.409485,571.118530 313.541443,566.983337 
	C313.791016,559.163147 313.591217,551.328552 313.578003,542.999878 
M514.222595,391.645599 
	C520.642761,390.750244 527.324890,390.411194 533.145203,387.496552 
	C559.897278,374.099945 571.139954,351.606445 567.119995,324.557190 
	C562.659180,294.541077 537.625488,274.255432 507.859009,273.561432 
	C466.388489,272.594482 424.878906,273.335571 383.386322,273.231201 
	C379.422638,273.221252 378.230835,274.701080 378.241577,278.542053 
	C378.343109,314.868866 378.345734,351.196259 378.234253,387.523010 
	C378.222412,391.389008 379.342743,392.803131 383.359406,392.739655 
	C396.520508,392.531647 409.686981,392.673553 422.851410,392.666412 
	C430.203003,392.662415 430.646942,392.226990 430.653198,384.615967 
	C430.671692,362.119812 430.659180,339.623688 430.661621,317.127533 
	C430.662415,309.646545 430.666321,309.636017 438.365143,309.633911 
	C453.195953,309.629852 468.026733,309.633514 482.857544,309.644958 
	C490.131470,309.650574 490.156708,309.661713 490.159088,317.129181 
	C490.166473,340.125244 490.145020,363.121307 490.152069,386.117371 
	C490.154053,392.654175 490.184326,392.533691 496.887604,392.706787 
	C502.408417,392.849335 507.855438,392.230133 514.222595,391.645599 
M781.825745,347.607513 
	C782.903503,346.833527 784.058289,346.146271 785.045349,345.270111 
	C788.814941,341.924042 789.997192,337.557312 788.304688,333.031769 
	C786.655090,328.620972 783.078064,325.777740 778.186279,325.153900 
	C773.227966,324.521545 769.415405,326.405548 766.788818,330.676178 
	C763.837585,335.474609 763.950378,340.483124 767.169678,344.589783 
	C770.925232,349.380493 775.772034,349.697235 781.825745,347.607513 
M730.708923,429.310883 
	C735.931396,424.121368 737.261719,418.180084 734.307373,413.239899 
	C730.949646,407.625153 724.665039,405.707184 719.323120,408.666992 
	C712.948486,412.198975 710.555298,418.931366 713.648682,424.629456 
	C717.057373,430.907990 723.536438,432.912292 730.708923,429.310883 
M730.449280,251.279617 
	C730.384338,252.773041 730.204224,254.272034 730.275940,255.758865 
	C730.498779,260.381073 733.134705,263.512482 737.022766,265.508972 
	C740.862305,267.480499 744.738281,267.122589 748.350098,264.631531 
	C752.258545,261.935944 754.481750,256.479492 753.499023,251.937790 
	C752.542419,247.516663 747.943115,243.535965 742.782288,242.662354 
	C738.443970,241.927994 733.715942,244.986984 730.449280,251.279617 
z"/>
<path fill="#000000" opacity="1.000000" stroke="none" 
	d="
M665.714722,704.614136 
	C652.460754,722.846497 629.075562,731.429993 607.614502,726.156799 
	C584.762329,720.541809 568.766724,703.642090 565.951233,680.500000 
	C562.394226,651.262390 578.213806,626.035034 609.180054,620.134766 
	C631.638550,615.855652 655.438782,622.743713 667.625732,644.676331 
	C678.629883,664.480225 677.759766,684.757202 665.714722,704.614136 
M592.607788,661.284973 
	C591.041870,666.965881 590.597839,672.731201 591.327881,678.580627 
	C593.117554,692.919067 605.291199,704.468445 619.094299,704.615173 
	C630.381104,704.735229 639.654053,700.549805 645.250183,690.359619 
	C651.719177,678.579895 652.193604,666.524902 645.006958,654.828796 
	C638.483765,644.212585 628.280029,641.022461 616.558594,642.401489 
	C605.265503,643.730103 597.235718,649.864624 592.607788,661.284973 
z"/>
<path fill="#000000" opacity="1.000000" stroke="none" 
	d="
M447.852112,713.911743 
	C426.094543,731.475952 399.134796,730.881897 379.671661,718.145630 
	C364.842590,708.441772 357.612518,694.634216 356.428589,676.873901 
	C354.426300,646.837097 374.135895,625.062073 399.576050,620.145630 
	C439.217865,612.484619 470.651428,642.154541 464.626251,681.544067 
	C462.688385,694.212952 457.498444,704.956482 447.852112,713.911743 
M385.994171,655.561768 
	C378.425354,668.991943 380.372833,686.465088 390.526886,696.229248 
	C402.414581,707.660583 421.844086,707.429199 432.220795,695.732788 
	C443.766846,682.718323 442.630310,659.191162 430.381042,648.620178 
	C418.880798,638.695557 396.483643,639.428284 385.994171,655.561768 
z"/>
<path fill="#000000" opacity="1.000000" stroke="none" 
	d="
M308.635620,707.264526 
	C305.770203,702.346252 303.088928,697.742493 300.393890,693.146790 
	C297.750458,688.638977 293.683990,687.102417 288.698761,688.484192 
	C285.935883,689.250000 286.363312,691.377869 286.354889,693.302795 
	C286.314911,702.465759 286.161926,711.633667 286.409424,720.790100 
	C286.523743,725.019348 284.895844,726.399353 280.871246,726.183411 
	C276.552063,725.951538 272.199036,725.933655 267.882446,726.188538 
	C263.632446,726.439636 262.510254,724.580627 262.532471,720.587463 
	C262.663239,697.097229 262.627747,673.605774 262.567596,650.114990 
	C262.547974,642.456238 262.354370,634.795898 262.106903,627.140625 
	C261.979675,623.204346 263.355072,621.432556 267.602081,621.616882 
	C282.558929,622.266235 297.589172,620.458130 312.493835,622.678223 
	C319.798737,623.766357 326.756287,626.097046 332.447937,631.109680 
	C348.313690,645.082581 346.002716,670.479492 327.788391,682.734314 
	C326.561005,683.560059 325.309326,684.349792 323.451904,685.557495 
	C331.130554,698.437134 338.731812,711.186951 346.729584,724.601929 
	C337.635315,726.377441 329.420135,726.236328 321.207458,725.926941 
	C319.779480,725.873169 318.987885,724.644592 318.402893,723.358276 
	C315.838013,717.718628 312.037903,712.824707 308.635620,707.264526 
M307.516235,643.702820 
	C301.749451,642.817261 295.943665,643.175293 290.148682,643.130737 
	C287.430267,643.109863 286.275818,644.303040 286.324127,647.049377 
	C286.423309,652.686157 286.424072,658.327026 286.327942,663.963867 
	C286.281158,666.705444 287.365753,667.892151 290.145020,667.816528 
	C294.951263,667.685791 299.764099,667.797974 304.570374,667.667725 
	C311.162598,667.489136 315.783722,664.007324 316.649200,658.736084 
	C317.891998,651.166504 315.347778,646.694214 307.516235,643.702820 
z"/>
<path fill="#000000" opacity="1.000000" stroke="none" 
	d="
M229.329224,626.467773 
	C244.270966,633.250793 249.117874,649.194763 246.752701,664.207825 
	C244.251968,680.081360 233.147675,689.933044 216.680496,692.328247 
	C209.881241,693.317139 203.091934,693.436401 196.288315,693.240784 
	C192.446915,693.130432 190.910110,694.323975 191.054398,698.348694 
	C191.316681,705.665283 190.966782,713.003113 191.198135,720.321716 
	C191.330856,724.520203 190.063324,726.505127 185.551346,726.209351 
	C181.074829,725.915833 176.555099,725.952454 172.072037,726.185486 
	C167.976105,726.398315 166.548080,724.855408 166.592316,720.711121 
	C166.770004,704.063232 166.663101,687.412354 166.664139,670.762573 
	C166.665054,656.110779 166.663116,641.458923 166.678864,626.807129 
	C166.681549,624.312439 166.301331,621.584473 170.233032,621.695557 
	C185.517365,622.127319 200.837891,620.634888 216.096115,622.611084 
	C220.592682,623.193481 224.858078,624.485840 229.329224,626.467773 
M220.875946,664.026672 
	C224.252869,652.075562 220.548676,645.282654 209.139511,643.582825 
	C204.247864,642.854004 199.176453,643.317810 194.186432,643.269348 
	C191.736252,643.245544 191.129013,644.839966 191.129929,646.906067 
	C191.133026,653.899475 191.145493,660.892883 191.140915,667.886292 
	C191.139572,669.929810 191.608505,671.576782 194.107208,671.573486 
	C199.432373,671.566467 204.812347,672.001404 210.065414,671.376770 
	C214.310516,670.871948 218.571106,669.340271 220.875946,664.026672 
z"/>
<path fill="#000000" opacity="1.000000" stroke="none" 
	d="
M485.796509,695.284424 
	C496.012360,700.655945 505.838470,705.962585 517.670349,704.793091 
	C520.381104,704.525146 522.965637,704.200806 525.218567,702.614502 
	C530.069458,699.198914 530.033264,692.976807 524.995667,689.879761 
	C519.127197,686.272034 512.263733,685.095154 505.967163,682.508057 
	C503.512390,681.499451 500.956451,680.731262 498.430237,679.903442 
	C485.812622,675.768677 479.927490,666.681152 478.902222,653.806152 
	C477.885376,641.036682 484.899292,628.803528 496.608978,623.478882 
	C507.724152,618.424622 519.252930,618.777405 530.824036,621.263306 
	C536.676270,622.520569 542.315552,624.516968 547.602539,627.506470 
	C550.573547,629.186401 551.672180,630.921631 550.175476,634.269531 
	C548.482605,638.056091 547.111023,642.000122 545.816406,645.946777 
	C544.619446,649.596008 542.646667,650.294617 539.478699,648.217407 
	C534.102600,644.692200 528.131165,642.714661 521.838074,641.645081 
	C517.324036,640.877869 512.857239,641.082275 508.603119,642.885986 
	C505.630493,644.146240 503.835571,646.516541 503.439850,649.730225 
	C503.076904,652.677673 505.180450,654.240601 507.268768,655.679565 
	C513.278320,659.820374 520.342529,661.382080 527.110229,663.631958 
	C531.856506,665.209839 536.519043,666.907104 540.961243,669.246338 
	C558.595825,678.532898 557.469543,709.026611 540.281860,720.175903 
	C526.831604,728.900757 512.389587,728.946777 497.564331,725.016296 
	C491.437317,723.391846 485.669250,720.797485 480.311096,717.311829 
	C477.203430,715.290161 475.775024,712.875366 477.810883,709.416382 
	C480.543030,704.774414 481.027679,698.929199 485.796509,695.284424 
z"/>
<path fill="#000000" opacity="1.000000" stroke="none" 
	d="
M716.117371,653.055542 
	C716.120667,665.674683 716.120667,665.675110 728.209717,665.675781 
	C735.538269,665.676208 742.867859,665.746643 750.194824,665.638794 
	C753.123169,665.595642 754.475403,666.611572 754.360046,669.685303 
	C754.210266,673.676880 754.170959,677.687317 754.386353,681.673340 
	C754.575134,685.167480 753.173706,686.360840 749.747803,686.311523 
	C740.256165,686.174622 730.757568,686.429688 721.268799,686.216919 
	C717.357117,686.129272 715.969849,687.432434 716.055420,691.367676 
	C716.265442,701.023560 716.039185,710.688293 716.188110,720.346436 
	C716.244507,724.002869 715.450684,725.893921 711.173218,725.545776 
	C706.210449,725.141846 701.170471,725.217346 696.197388,725.564087 
	C692.556152,725.817932 691.581848,724.466064 691.608826,721.062378 
	C691.724915,706.406250 691.654114,691.748596 691.653442,677.091492 
	C691.652710,660.435669 691.755554,643.778809 691.581421,627.124817 
	C691.539307,623.090881 692.690552,621.589722 696.917847,621.626526 
	C717.236328,621.803772 737.557983,621.787964 757.876831,621.629944 
	C762.021851,621.597717 763.581604,623.034607 763.350037,627.133362 
	C763.115540,631.283813 763.179016,635.463562 763.352356,639.620422 
	C763.477478,642.619934 762.381592,643.753784 759.328613,643.738403 
	C747.838379,643.680359 736.347229,643.828125 724.856323,643.868408 
	C716.136841,643.898926 716.136780,643.878357 716.117371,653.055542 
z"/>
<path fill="#000000" opacity="1.000000" stroke="none" 
	d="
M805.672485,722.289856 
	C805.655701,697.711731 805.560913,673.562317 805.729065,649.414795 
	C805.758240,645.218750 804.932068,643.468140 800.264160,643.757019 
	C793.130310,644.198547 785.947266,643.782471 778.788025,643.902283 
	C775.170471,643.962830 773.637268,642.486450 773.788391,638.848816 
	C773.954163,634.858521 774.011719,630.846069 773.784485,626.862244 
	C773.562561,622.971497 775.044189,621.563171 778.970764,621.633423 
	C789.626099,621.823975 800.287109,621.697998 810.945862,621.696960 
	C825.934753,621.695557 840.924988,621.801270 855.911743,621.621582 
	C860.010681,621.572449 861.645508,622.928040 861.376343,627.071167 
	C861.117798,631.051514 861.127930,635.073242 861.370605,639.055359 
	C861.605408,642.908691 859.788391,644.033875 856.314941,643.912476 
	C849.661926,643.680054 843.004700,643.520386 836.347961,643.453369 
	C829.371948,643.383118 829.356079,643.446106 829.354065,650.214355 
	C829.347229,673.197327 829.352112,696.180359 829.352478,719.163330 
	C829.352478,720.976440 829.352478,722.789490 829.352478,724.989746 
	C822.144409,726.279602 815.221924,725.993774 808.294617,725.612854 
	C806.463867,725.512085 805.588745,724.554688 805.672485,722.289856 
z"/>
<path fill="#000000" opacity="1.000000" stroke="none" 
	d="
M637.487061,805.161499 
	C634.161865,805.484436 634.349670,807.642944 634.345703,809.657959 
	C634.330566,817.315674 634.229736,824.975220 634.369995,832.630249 
	C634.432251,836.029419 633.211182,837.421448 629.725952,837.341370 
	C611.664612,836.926025 615.083496,840.023621 614.907227,823.403748 
	C614.684753,802.431824 615.027832,781.454224 614.881592,760.480774 
	C614.849731,755.907532 616.342896,754.485596 620.914307,754.533447 
	C634.313538,754.673950 634.316528,754.493042 634.326965,767.915344 
	C634.331116,773.242493 634.516663,778.578430 634.267578,783.893860 
	C634.088745,787.709656 635.656433,788.802795 639.250244,788.707153 
	C646.569946,788.512390 653.903259,788.487732 661.221008,788.714478 
	C664.674377,788.821533 666.257385,787.412476 666.269592,784.196472 
	C666.294800,777.549316 666.113770,770.901672 666.109680,764.254089 
	C666.103943,754.851318 666.139771,754.803772 675.543457,754.853394 
	C686.137390,754.909302 685.190186,753.521545 685.202332,764.420227 
	C685.227295,786.727600 685.119507,809.035645 685.282959,831.341797 
	C685.315491,835.788269 684.073242,837.468262 679.358459,837.413086 
	C666.044312,837.257385 666.053833,837.453796 666.070557,824.246033 
	C666.078308,818.094299 666.031616,811.942444 665.996155,805.790710 
	C665.995361,805.654602 665.831787,805.519470 665.576538,805.124573 
	C656.475769,805.124573 647.203003,805.124573 637.487061,805.161499 
z"/>
<path fill="#000000" opacity="1.000000" stroke="none" 
	d="
M494.212189,834.764526 
	C493.593140,837.448608 491.762451,837.282715 490.131958,837.284485 
	C473.137848,837.303406 456.143494,837.244568 439.149689,837.317261 
	C436.009491,837.330688 434.651245,836.247864 434.660431,832.976624 
	C434.729645,808.318604 434.731384,783.660156 434.649170,759.002197 
	C434.638458,755.790161 435.786346,754.589905 439.014160,754.617554 
	C455.673584,754.760254 472.334259,754.795654 488.994385,754.774597 
	C491.915680,754.770874 493.256744,755.818237 493.262054,758.836975 
	C493.289581,774.493042 495.062897,771.829102 481.195526,772.050537 
	C473.534119,772.172791 465.869171,772.399048 458.211090,772.268433 
	C454.422943,772.203857 453.310059,773.733704 453.356354,777.308350 
	C453.512848,789.399536 451.980835,787.619812 463.594116,787.774170 
	C470.257416,787.862732 476.924988,787.915771 483.585999,787.771973 
	C487.052887,787.697144 488.288300,789.104553 488.255035,792.509644 
	C488.114777,806.864502 489.429626,804.061035 476.737854,804.317871 
	C470.409271,804.445984 464.074036,804.432007 457.745575,804.300110 
	C454.503204,804.232544 453.314423,805.563721 453.357208,808.757874 
	C453.548279,823.027832 451.878082,820.428955 464.758240,820.629150 
	C472.920197,820.756042 481.090881,820.831482 489.247314,820.585999 
	C493.241180,820.465759 494.669586,821.929260 494.351685,825.798340 
	C494.120483,828.612366 494.284637,831.458801 494.212189,834.764526 
z"/>
<path fill="#000000" opacity="1.000000" stroke="none" 
	d="
M525.615845,821.295654 
	C507.601166,795.060852 519.779175,761.804260 550.176636,754.493958 
	C562.883484,751.438171 574.920654,754.289490 585.568237,762.268250 
	C587.809937,763.947998 588.178284,765.517883 586.479980,767.658386 
	C586.169617,768.049622 585.888489,768.463989 585.591431,768.865906 
	C583.418335,771.805786 581.825745,775.753540 578.922424,777.426880 
	C575.382996,779.467041 572.429810,775.189575 569.313599,773.675476 
	C557.579102,767.974182 540.031616,773.636963 537.571655,790.484680 
	C535.328308,805.848694 542.968750,818.096008 557.568909,820.167969 
	C564.442261,821.143433 570.264221,817.997192 575.446899,813.989441 
	C578.402832,811.703735 580.174744,811.705933 582.167725,814.899780 
	C583.570435,817.147827 585.401611,819.128479 587.041260,821.228760 
	C590.409790,825.543579 590.223328,826.698425 585.497681,829.851990 
	C568.562561,841.152832 541.112122,841.970764 525.615845,821.295654 
z"/>
<path fill="#000000" opacity="1.000000" stroke="none" 
	d="
M408.681366,756.510986 
	C408.913177,760.100830 408.852539,763.270874 409.076080,766.420715 
	C409.390472,770.851562 407.329132,772.305115 403.110901,772.074768 
	C398.461395,771.820862 393.782196,772.143127 389.127045,771.949036 
	C385.205048,771.785522 383.929260,773.422607 383.957642,777.276733 
	C384.086517,794.761658 383.999695,812.248352 383.967499,829.734375 
	C383.953522,837.309814 383.928314,837.309753 376.192017,837.313782 
	C365.562927,837.319214 365.570282,837.319214 365.573029,826.536194 
	C365.576843,811.548096 365.596252,796.559875 365.541107,781.571960 
	C365.530243,778.613098 365.211945,775.655334 364.993835,772.000183 
	C358.335602,772.000183 352.053741,771.867859 345.780884,772.048767 
	C341.895355,772.160828 340.526306,770.657227 340.624390,766.760986 
	C340.978577,752.690369 338.851715,754.931946 352.482849,754.821899 
	C369.301727,754.686035 386.122650,754.775269 402.942505,754.832275 
	C404.845764,754.838745 407.004089,754.149170 408.681366,756.510986 
z"/>
<path fill="#000000" opacity="1.000000" stroke="none" 
	d="
M309.698914,789.566650 
	C318.883881,789.608276 318.593903,788.132324 317.993805,797.862244 
	C317.500153,805.866089 317.506714,805.879456 309.653229,805.886292 
	C297.049255,805.897278 284.445282,805.889221 272.262543,805.889221 
	C271.721863,804.573914 271.475708,804.265015 271.490265,803.968994 
	C272.331421,786.873840 269.106415,789.868835 285.757385,789.606323 
	C293.582336,789.482910 301.410675,789.573853 309.698914,789.566650 
z"/>
</svg>