<svg version="1.1" id="Layer_1" xmlns="http://www.w3.org/2000/svg" xmlns:xlink="http://www.w3.org/1999/xlink" x="0px" y="0px"
	 width="100%" viewBox="0 0 391 252" enable-background="new 0 0 391 252" xml:space="preserve">
<path fill="#FDFDFE" opacity="1.000000" stroke="none" 
	d="
M244.000000,253.000000 
	C162.666702,253.000000 81.833389,253.000000 1.000065,253.000000 
	C1.000043,169.000061 1.000043,85.000114 1.000022,1.000133 
	C131.333237,1.000088 261.666473,1.000088 391.999756,1.000044 
	C391.999847,84.999863 391.999847,168.999725 391.999939,252.999786 
	C342.833344,253.000000 293.666656,253.000000 244.000000,253.000000 
M94.034439,230.907272 
	C100.105499,231.600296 105.673096,230.477600 111.120735,226.262375 
	C112.617783,223.901062 115.142143,221.640442 115.385605,219.156281 
	C115.815636,214.768356 114.991600,210.227600 114.444862,205.781265 
	C113.724609,199.923813 112.549332,199.525986 106.995506,201.681427 
	C102.392570,203.467834 97.651314,205.324463 92.813354,205.974976 
	C86.170990,206.868073 82.973190,204.001282 82.819389,197.333023 
	C82.528168,184.707260 82.621452,172.068420 82.869949,159.441238 
	C82.893486,158.245102 85.071304,156.193542 86.381126,156.081284 
	C91.174644,155.670517 96.024124,155.896164 100.852440,155.911697 
	C109.789932,155.940445 110.213524,155.799973 110.321747,146.958878 
	C110.390121,141.372849 109.538277,135.775574 109.042366,129.459641 
	C111.310333,128.509415 115.279877,127.466377 118.576721,125.366959 
	C145.131424,108.457047 147.634506,72.556496 134.858047,51.491985 
	C124.103546,33.761055 106.976028,26.885351 87.190216,26.213070 
	C70.050644,25.630701 52.875679,26.089674 35.716358,26.088789 
	C25.715897,26.088274 24.246193,27.568066 24.245987,37.676716 
	C24.244995,86.489151 24.247105,135.301590 24.247883,184.114029 
	C24.247959,188.945297 24.183867,193.777557 24.261562,198.607559 
	C24.358854,204.655762 25.744688,206.732452 31.657402,207.046646 
	C40.339993,207.508011 49.065304,207.165543 58.042763,207.165543 
	C59.091972,209.584000 60.260006,212.655502 61.724247,215.578598 
	C65.715477,223.546448 81.030975,233.952484 90.671936,230.420700 
	C91.669479,230.380035 92.667030,230.339355 94.034439,230.907272 
M322.204529,184.249237 
	C322.135529,186.711868 321.907471,189.182648 322.033325,191.635284 
	C322.242462,195.710663 322.678802,199.774368 323.669159,203.989532 
	C324.107849,203.941132 324.546570,203.892746 325.816193,203.588135 
	C325.539551,197.015793 325.262939,190.443451 324.340851,183.648422 
	C323.898346,183.721298 323.455841,183.794174 322.204529,184.249237 
M271.191833,173.351349 
	C271.128357,182.628662 271.130035,191.907104 270.968384,201.182709 
	C270.906281,204.745178 272.650513,204.269852 275.000153,203.513809 
	C275.000153,193.990234 275.025055,184.715195 274.956085,175.440826 
	C274.950134,174.640442 274.322937,173.844681 273.336151,172.862030 
	C272.895264,172.922974 272.454376,172.983902 271.191833,173.351349 
M237.996170,190.959564 
	C237.996170,195.195618 237.996170,199.431671 237.996170,203.667740 
	C238.457153,203.939758 238.918121,204.211777 239.379105,204.483795 
	C240.304947,203.435196 241.966492,202.426193 242.025436,201.330933 
	C242.245056,197.250549 241.938477,193.141846 241.911758,188.316284 
	C239.943024,186.557159 238.151962,183.638214 235.965042,183.303192 
	C232.439041,182.763016 228.652161,183.925797 224.814636,184.388626 
	C224.814636,189.859344 224.921051,195.347198 224.776886,200.828476 
	C224.682098,204.432739 226.268661,204.567993 229.012405,203.402298 
	C229.012405,199.581329 228.648895,195.876175 229.158844,192.295410 
	C229.432327,190.375214 230.794464,187.949493 232.398529,187.027512 
	C235.095459,185.477371 237.026703,187.408005 237.996170,190.959564 
M334.944916,194.009247 
	C339.352753,193.664139 343.760620,193.319046 348.408295,192.390137 
	C347.331909,185.592560 343.662720,182.275681 338.054382,183.030411 
	C332.323608,183.801605 328.820526,189.291183 329.957214,195.719223 
	C331.003448,201.635742 336.044800,204.894653 342.629852,203.911331 
	C347.084961,203.246048 348.157318,202.051331 347.535980,198.445312 
	C339.115570,201.641861 335.422668,200.440308 334.944916,194.009247 
M176.733566,194.017456 
	C177.489105,193.967331 178.244659,193.917206 179.798111,193.801208 
	C179.828171,192.547058 179.858215,191.292923 179.921066,189.319946 
	C177.044022,183.596085 172.972610,181.641632 167.959686,183.577911 
	C163.007263,185.490845 160.476746,191.346481 162.191559,196.925461 
	C163.868774,202.382202 169.202759,205.258621 175.396866,203.730423 
	C177.912827,203.109680 181.417435,202.727219 179.708542,198.389862 
	C171.024399,201.606659 167.437988,200.449615 166.925095,194.007782 
	C169.946503,193.958481 172.967911,193.909164 176.733566,194.017456 
M132.154861,127.263000 
	C131.714615,128.180496 130.894318,129.097137 130.892197,130.015640 
	C130.867676,140.672897 130.966721,151.330429 130.838776,162.823822 
	C131.550720,167.497421 133.034958,168.027863 140.875122,166.199066 
	C140.875122,161.361496 140.875122,156.429245 140.875122,151.019806 
	C143.672806,151.019806 146.121964,151.069595 148.568481,151.010529 
	C156.125229,150.828110 161.308105,146.117935 161.494476,139.314072 
	C161.675797,132.693512 156.488205,127.515205 148.943207,127.234055 
	C143.636200,127.036293 138.310562,127.338211 132.154861,127.263000 
M249.929810,146.668243 
	C245.552551,157.443405 250.709381,166.637390 261.787048,167.808212 
	C269.245728,168.596527 276.494446,163.854919 277.903809,157.265701 
	C279.586426,149.399185 275.746674,142.424057 268.525787,140.229996 
	C261.547638,138.109711 255.034622,140.169403 249.929810,146.668243 
M214.422684,165.084869 
	C220.466843,159.928696 222.056290,151.938477 218.224655,145.972061 
	C214.281586,139.832138 204.742523,137.612747 197.657867,141.186905 
	C191.366898,144.360657 188.582794,151.769714 191.080734,158.690109 
	C194.117554,167.103439 203.738724,169.996384 214.422684,165.084869 
M282.095276,145.598557 
	C282.903015,147.115433 284.327789,148.600693 284.407410,150.154861 
	C284.691467,155.699478 284.518524,161.267517 284.518524,166.790405 
	C287.747589,166.790405 290.180786,166.790405 293.015594,166.790405 
	C293.015594,161.458542 293.091003,156.338959 292.986816,151.223053 
	C292.925995,148.236938 292.655457,145.303238 298.393463,145.365265 
	C296.451263,142.517105 295.214508,140.703430 293.977722,138.889740 
	C292.525238,133.124100 297.166077,133.880615 301.180115,133.824387 
	C301.180115,131.521652 301.180115,129.445801 301.180115,127.421242 
	C290.379089,125.746742 287.169037,127.857346 284.485718,138.011780 
	C284.278748,138.795059 283.622620,139.899628 282.981567,140.054810 
	C279.543427,140.887085 280.798553,142.994492 282.095276,145.598557 
M231.028549,167.538055 
	C238.824951,168.275085 243.589981,166.273010 244.905899,161.707336 
	C246.454636,156.333878 243.988571,152.978912 236.059860,149.436874 
	C234.547379,148.761185 233.200653,147.714462 231.777435,146.838913 
	C231.945358,146.168304 232.113297,145.497696 232.281219,144.827087 
	C234.805130,145.067886 237.326843,145.450928 239.853897,145.490311 
	C241.145142,145.510452 242.445984,144.914673 243.742462,144.597290 
	C243.173981,143.457077 242.887604,141.971649 241.988068,141.236557 
	C238.142731,138.094254 229.346329,139.235855 226.057587,143.118347 
	C223.124176,146.581360 223.667496,151.296249 227.562119,153.963638 
	C229.455276,155.260223 231.765717,155.930756 233.768051,157.090485 
	C235.155334,157.893967 236.338959,159.049011 237.613586,160.046982 
	C237.398514,160.687134 237.183426,161.327301 236.968353,161.967453 
	C233.064957,161.548630 229.161560,161.129791 225.097397,160.693695 
	C223.569611,164.955048 225.519272,167.092926 231.028549,167.538055 
M314.050598,167.341949 
	C315.955200,166.900040 317.859833,166.458115 319.844360,165.997650 
	C319.844360,163.891617 319.844360,162.109879 319.844360,160.288681 
	C309.784241,162.584091 309.397400,159.714035 310.004639,152.428024 
	C310.045898,151.933258 310.122589,151.399872 309.991333,150.938980 
	C309.058289,147.662750 309.619873,146.147629 313.641632,145.728928 
	C315.841614,145.499878 321.505646,146.354019 319.385590,140.062744 
	C316.333038,140.062744 313.395233,140.062744 309.933563,140.062744 
	C309.933563,137.235916 309.933563,134.710831 309.933563,130.577164 
	C305.075134,136.115036 301.268250,140.454315 297.461334,144.793594 
	C298.062256,144.863403 298.663147,144.933212 299.264069,145.003036 
	C300.016571,146.781219 301.017731,148.501984 301.445557,150.355133 
	C301.809326,151.930664 301.504486,153.658798 301.508667,155.319397 
	C301.531769,164.471909 304.070679,167.093658 314.050598,167.341949 
M186.064804,139.762451 
	C182.622314,141.534683 179.179810,143.306931 176.080093,144.902695 
	C176.034500,144.146454 175.926605,142.356644 175.813675,140.483383 
	C173.021713,140.483383 170.468903,140.483383 167.731140,140.483383 
	C167.731140,149.403519 167.731140,158.007599 167.731140,166.583527 
	C175.847885,167.641449 175.997330,167.520691 176.011078,160.090332 
	C176.012604,159.257935 175.993576,158.425018 176.016541,157.593231 
	C176.231262,149.816864 180.441574,146.651871 188.065262,148.808624 
	C188.378815,145.701813 192.845306,142.220383 186.064804,139.762451 
M304.451324,213.207062 
	C307.699219,213.508804 310.969818,214.194092 314.188568,214.003647 
	C317.362305,213.815887 319.883270,212.042526 320.158325,208.424530 
	C320.446259,204.636841 317.832428,203.237762 314.799652,202.282959 
	C312.588379,201.586792 310.368561,200.917862 307.332123,199.984650 
	C319.049408,193.362778 319.049408,193.362778 317.384369,188.079193 
	C318.466675,186.909180 319.304535,186.003433 320.142395,185.097702 
	C319.130646,184.561249 318.160309,183.692719 317.098175,183.560257 
	C315.133301,183.315262 312.928772,182.986954 311.161255,183.625946 
	C308.383484,184.630142 304.667542,185.819977 303.606598,188.019974 
	C302.518921,190.275375 304.144714,193.839355 304.582886,196.830597 
	C305.338074,198.318588 305.290894,200.035202 305.098206,201.735336 
	C305.036743,202.278000 304.714294,202.926163 304.299622,203.272995 
	C299.814545,207.024185 299.716034,208.497620 304.451324,213.207062 
M202.823563,179.568146 
	C202.823563,187.649170 202.823563,195.730194 202.823563,203.752396 
	C204.524506,203.752396 205.604935,203.752396 207.008606,203.752396 
	C207.008606,199.714996 207.162292,195.912491 206.964752,192.128326 
	C206.772690,188.448700 208.982132,186.489410 211.920898,186.821487 
	C213.445099,186.993713 215.463547,189.904572 215.809814,191.837769 
	C216.439636,195.353928 215.988617,199.063675 215.988617,202.692642 
	C216.450836,202.955582 216.913055,203.218536 217.375275,203.481476 
	C218.303848,202.269287 219.743073,201.170044 220.042038,199.818588 
	C220.497604,197.759109 220.175018,195.524994 220.163620,193.365158 
	C220.110657,183.332550 216.463562,180.992950 206.874191,185.189758 
	C206.874191,181.103256 206.874191,177.158340 206.874191,173.239120 
	C202.830566,173.102905 202.830566,173.102905 202.823563,179.568146 
M253.295349,183.816788 
	C246.978867,185.695099 244.170120,189.578262 244.897583,195.426987 
	C245.508698,200.340363 249.589096,203.933365 254.853958,204.194092 
	C261.508270,204.523636 266.459869,200.180786 266.496582,193.982834 
	C266.535156,187.473251 261.748505,183.511398 253.295349,183.816788 
M280.917938,186.439651 
	C280.153198,187.519684 279.198608,188.512680 278.656708,189.694855 
	C276.361450,194.701843 278.350769,200.374252 283.192230,202.958557 
	C288.176361,205.619034 294.860931,204.064484 297.902954,199.537445 
	C300.804871,195.218918 299.686371,188.902786 295.443542,185.648956 
	C291.647858,182.738022 286.597229,182.844162 280.917938,186.439651 
M358.086029,200.916412 
	C355.777435,200.350418 353.468842,199.784439 350.341064,199.017624 
	C351.022980,200.747192 351.163177,202.390717 352.053619,203.127579 
	C355.126099,205.670013 361.746735,204.705200 363.846252,201.667953 
	C365.960327,198.609619 364.560394,195.101440 360.151794,192.267960 
	C358.322968,191.092545 356.553101,189.825409 354.756439,188.599991 
	C354.941833,188.017975 355.127197,187.435944 355.312561,186.853912 
	C358.000610,187.115555 360.688629,187.377182 365.095642,187.806137 
	C363.075378,185.796448 362.069275,184.023514 360.616455,183.506927 
	C357.325470,182.336777 353.636963,182.405899 351.926239,185.948776 
	C351.153290,187.549469 351.698120,190.573944 352.813080,192.098114 
	C354.185913,193.974777 356.804688,194.920868 358.834290,196.341583 
	C360.890717,197.781128 361.554688,199.303680 358.086029,200.916412 
M190.221146,183.244995 
	C183.782669,186.113312 181.259949,191.371155 183.279556,197.712555 
	C184.908249,202.826431 190.159515,205.579742 196.168808,204.065948 
	C197.485641,203.734253 198.445404,201.985062 199.569611,200.888672 
	C199.243484,200.461670 198.917374,200.034668 198.591263,199.607681 
	C194.507416,201.113403 190.180542,201.859482 187.960800,197.475739 
	C186.900040,195.380798 187.094788,191.751251 188.233551,189.628128 
	C190.621964,185.175125 194.947983,187.044373 199.024933,188.289658 
	C198.910843,181.736282 194.409348,183.315338 190.221146,183.244995 
M153.734436,180.546875 
	C151.242065,182.379227 148.749680,184.211578 147.264893,185.303177 
	C148.305756,187.956589 149.226883,189.415268 149.411224,190.961777 
	C149.782990,194.080841 149.293991,197.355957 150.002914,200.368332 
	C150.964294,204.453400 154.532135,204.973267 157.977310,204.196198 
	C159.339951,203.888855 160.384567,202.171509 161.573975,201.096176 
	C153.483002,201.453308 152.161255,198.732376 154.561020,187.337570 
	C156.268784,187.243317 158.037994,187.145645 159.807220,187.047989 
	C160.059784,186.585632 160.312363,186.123291 160.564926,185.660934 
	C159.500671,184.935043 158.450104,184.187958 157.368439,183.489014 
	C156.213455,182.742691 155.029114,182.041779 153.734436,180.546875 
M337.744904,220.072327 
	C337.806915,221.136627 337.868958,222.200928 337.930969,223.265228 
	C338.259918,222.006973 337.925812,220.647614 338.341797,219.580750 
	C338.902557,218.142654 340.040894,216.929779 340.931335,215.620255 
	C341.632080,216.894730 342.614563,218.097000 342.964172,219.461441 
	C343.428741,221.274551 343.399933,223.214081 343.583099,225.099289 
	C344.332855,225.018585 345.082611,224.937881 345.832367,224.857178 
	C345.427460,221.523468 345.736023,217.827698 344.307770,215.013336 
	C343.623932,213.665833 339.649963,213.988068 337.032288,213.530670 
	C337.344666,216.067886 337.545502,217.699127 337.744904,220.072327 
M351.389465,213.921829 
	C347.329285,216.196228 346.836792,219.602798 349.184357,223.132629 
	C351.227783,226.205124 354.160370,225.419800 356.776337,224.711563 
	C354.237305,222.665924 350.843872,221.285126 350.576172,219.448654 
	C349.916656,214.924423 354.200714,215.892410 357.306061,215.967041 
	C357.255493,215.446121 357.204956,214.925217 357.154419,214.404312 
	C355.470612,214.170319 353.786835,213.936340 351.389465,213.921829 
z"/>
<path fill="#9B9BA2" opacity="1.000000" stroke="none" 
	d="
M89.921753,230.302292 
	C81.030975,233.952484 65.715477,223.546448 61.724247,215.578598 
	C60.260006,212.655502 59.091972,209.584000 58.042763,207.165543 
	C49.065304,207.165543 40.339993,207.508011 31.657402,207.046646 
	C25.744688,206.732452 24.358854,204.655762 24.261562,198.607559 
	C24.183867,193.777557 24.247959,188.945297 24.247883,184.114029 
	C24.247105,135.301590 24.244995,86.489151 24.245987,37.676716 
	C24.246193,27.568066 25.715897,26.088274 35.716358,26.088789 
	C52.875679,26.089674 70.050644,25.630701 87.190216,26.213070 
	C106.976028,26.885351 124.103546,33.761055 134.858047,51.491985 
	C147.634506,72.556496 145.131424,108.457047 118.576721,125.366959 
	C115.279877,127.466377 111.310333,128.509415 109.042366,129.459641 
	C109.538277,135.775574 110.390121,141.372849 110.321747,146.958878 
	C110.213524,155.799973 109.789932,155.940445 100.852440,155.911697 
	C96.024124,155.896164 91.174644,155.670517 86.381126,156.081284 
	C85.071304,156.193542 82.893486,158.245102 82.869949,159.441238 
	C82.621452,172.068420 82.528168,184.707260 82.819389,197.333023 
	C82.973190,204.001282 86.170990,206.868073 92.813354,205.974976 
	C97.651314,205.324463 102.392570,203.467834 106.995506,201.681427 
	C112.549332,199.525986 113.724609,199.923813 114.444862,205.781265 
	C114.991600,210.227600 115.815636,214.768356 115.385605,219.156281 
	C115.142143,221.640442 112.617783,223.901062 110.653320,226.215179 
	C110.185898,226.167969 109.957733,225.972336 109.802536,225.724838 
	C109.099083,225.306549 108.550842,225.135757 108.001205,224.597351 
	C108.002190,223.492676 108.004562,222.755600 108.180992,221.780762 
	C108.905594,221.363068 109.456154,221.183136 110.278961,220.983551 
	C110.836456,220.371750 111.121689,219.779587 111.326508,218.827179 
	C111.309380,217.982758 111.372658,217.498581 111.733849,216.920013 
	C111.818787,215.545303 111.605812,214.264984 111.324234,212.658539 
	C111.313637,211.893707 111.371651,211.455017 111.681778,210.953156 
	C111.747688,210.221664 111.561470,209.553329 111.260490,208.859222 
	C111.145721,208.833435 111.121017,208.599472 111.106216,208.551056 
	C111.091408,208.502640 111.106194,208.402481 111.163994,208.047119 
	C111.301697,207.465424 111.381592,207.239105 111.748795,206.928284 
	C112.150589,205.915329 112.265076,204.986862 112.379562,204.058380 
	C111.533890,204.067566 110.688202,204.076767 109.622650,204.180847 
	C109.018517,204.543198 108.634270,204.810654 107.861420,205.071289 
	C101.254837,207.754868 94.904404,209.792847 87.661568,208.892380 
	C86.452400,208.595291 85.565193,208.426559 84.697891,208.214310 
	C84.717789,208.170792 84.782173,208.241592 84.678146,207.952759 
	C84.199333,207.542862 83.824554,207.421814 83.332642,207.281219 
	C83.215500,207.261688 83.044327,207.097015 82.923874,206.855988 
	C82.509178,206.421005 82.214935,206.227020 81.717682,205.946030 
	C81.514679,205.859024 81.074539,205.821426 81.079514,205.874283 
	C81.084480,205.927139 81.182266,205.885773 81.151245,205.599869 
	C81.060631,204.935013 81.001053,204.556046 80.887466,203.940887 
	C80.699493,203.393448 80.479492,203.165070 80.094833,202.786636 
	C80.016212,202.553711 79.975029,202.063736 79.984299,201.728058 
	C79.697891,200.604736 79.402222,199.817108 78.982407,198.750671 
	C78.830872,198.066177 78.803474,197.660492 78.862389,196.948212 
	C78.985573,196.432861 79.022461,196.224091 79.340347,195.706848 
	C79.746925,183.699402 79.828079,171.999634 80.039352,160.302216 
	C80.077087,158.212845 80.653648,156.133209 81.451859,154.037323 
	C89.222153,154.025574 96.521980,154.025574 103.821815,154.025574 
	C103.817879,153.685776 103.813942,153.345963 103.810005,153.006165 
	C96.194099,153.006165 88.578194,153.006165 80.780464,152.868423 
	C80.735802,152.158081 80.872971,151.585464 81.477745,151.009369 
	C88.763466,151.005569 95.583023,151.079132 102.398582,150.947098 
	C103.892097,150.918167 105.371437,150.156967 106.838867,149.284668 
	C106.856743,144.025803 106.893059,139.215225 106.723389,134.022156 
	C102.450729,133.429123 98.382843,133.239563 94.317711,133.002762 
	C89.270088,132.708694 84.224747,132.375534 79.121490,131.590057 
	C79.031059,124.890373 79.136444,118.653267 78.839706,112.435356 
	C78.784424,111.276947 77.113869,110.195633 75.839355,109.082932 
	C70.647713,113.726669 65.805481,118.366203 60.799709,123.092239 
	C60.767967,123.420280 60.899769,123.661827 61.052914,123.917572 
	C61.074257,123.931778 61.112469,123.965965 61.096390,124.194885 
	C61.072174,124.725464 61.085629,125.026161 60.854111,125.509682 
	C60.408298,125.813690 60.229038,125.933922 59.765907,125.935303 
	C59.319946,126.250084 59.016472,126.683571 59.016037,127.117378 
	C58.992531,150.528671 58.979298,173.940002 59.037025,197.351181 
	C59.040031,198.572220 59.669422,199.791702 60.210651,201.079987 
	C60.414108,201.148056 60.827484,201.263077 60.847328,201.652802 
	C61.261780,204.340942 61.656384,206.639374 62.032005,209.318039 
	C62.748894,211.095474 63.484753,212.492661 64.170181,213.908798 
	C64.119743,213.927734 64.120392,213.819992 64.182564,214.077667 
	C64.515472,214.548340 64.786201,214.761353 65.028320,214.984985 
	C64.999695,214.995605 65.028969,214.942017 65.108322,215.169342 
	C65.356003,215.684616 65.593910,215.893219 66.124374,216.177002 
	C66.541992,216.631592 66.736618,216.931686 66.985718,217.516174 
	C67.456566,218.128708 67.872932,218.456863 68.229294,218.809692 
	C68.169281,218.834366 68.191513,218.706528 68.270950,219.015198 
	C68.918098,219.540390 69.485817,219.756912 70.343597,220.066620 
	C71.424072,220.766403 72.214493,221.373016 73.172913,222.228378 
	C73.712906,222.605927 74.084900,222.734711 74.612144,222.866806 
	C74.767403,222.870102 75.009956,223.064087 75.187546,223.300964 
	C75.925560,223.684814 76.486000,223.831787 77.287842,223.990738 
	C77.529236,224.002716 77.990356,224.147736 78.093170,224.524384 
	C80.308403,225.216919 82.420822,225.532806 84.633820,225.716522 
	C84.734406,225.584351 85.052795,225.679047 85.033157,226.010986 
	C85.009811,226.563065 85.006104,226.783218 84.677483,227.033356 
	C83.761292,227.449997 83.170013,227.836655 82.578735,228.223312 
	C82.869743,228.578461 83.160744,228.933609 83.451752,229.288757 
	C84.417809,228.393509 85.383865,227.498260 86.532684,226.479919 
	C87.058983,226.313385 87.296989,226.451431 87.793686,226.841797 
	C88.770683,227.273529 89.383453,227.634399 89.991791,228.378799 
	C89.965477,229.275650 89.943619,229.788971 89.921753,230.302292 
M100.295067,57.523357 
	C100.844376,57.759689 101.393684,57.996025 102.318352,58.770367 
	C107.133560,62.323666 109.989571,67.111267 111.161156,73.777893 
	C111.451126,78.049049 111.741104,82.320198 112.173843,87.073250 
	C111.958237,88.028374 111.971710,89.121735 111.491646,89.917274 
	C106.593567,98.034149 99.642464,103.333168 90.282013,105.454559 
	C88.528847,105.851883 85.482765,105.346962 85.436882,109.362244 
	C85.225647,110.877014 85.014412,112.391792 84.190781,113.845558 
	C83.516113,113.540695 82.841446,113.235840 82.560089,113.108704 
	C82.560089,118.966606 82.560089,124.736565 82.560089,130.506516 
	C82.793755,130.505554 83.027412,130.504593 83.261078,130.503632 
	C83.798012,129.369019 84.334953,128.234421 85.457344,127.674225 
	C89.975723,127.105057 94.523178,126.705643 99.007454,125.937431 
	C118.748390,122.555580 132.652328,109.047447 136.109680,89.289589 
	C136.997269,84.217323 136.190170,78.856262 136.243851,73.628716 
	C136.357666,62.544231 131.753235,53.570789 123.999199,46.003269 
	C123.999199,46.003269 124.024536,45.994099 123.779106,45.462994 
	C123.178291,44.991642 122.577469,44.520290 121.766785,43.572975 
	C121.320511,43.333992 120.874237,43.095013 120.025322,42.286346 
	C118.698456,41.383091 117.371597,40.479839 115.685570,39.095280 
	C114.797203,38.656990 113.908836,38.218700 112.568146,37.261333 
	C106.411301,35.527836 100.254463,33.794334 93.195663,32.023933 
	C90.073692,31.691143 86.947586,31.038900 83.830437,31.079178 
	C67.723503,31.287312 51.617035,31.611195 35.516285,32.091858 
	C33.914345,32.139679 32.352165,33.519489 30.047791,34.439564 
	C29.731161,36.150497 29.139568,37.861160 29.137869,39.572407 
	C29.087400,90.435112 29.089485,141.297882 29.121218,192.160614 
	C29.122225,193.773972 29.523350,195.387054 29.696285,197.794403 
	C29.753040,198.850449 29.809795,199.906494 29.923174,201.839691 
	C38.080818,203.535065 46.208675,204.427826 54.698277,200.312637 
	C54.800034,199.495773 54.990551,198.678940 54.990841,197.862045 
	C55.007294,151.180740 55.013988,104.499443 54.977955,57.818176 
	C54.976982,56.554066 54.498005,55.290329 54.190086,53.564159 
	C54.190086,53.564159 54.248966,53.102753 54.648785,53.111515 
	C54.648785,53.111515 55.023708,52.972370 55.946308,53.124367 
	C67.626045,53.396423 79.305779,53.668480 91.451950,54.138195 
	C91.783173,54.139637 92.114403,54.141075 92.946564,54.647911 
	C93.635048,54.762634 94.323532,54.877357 95.274078,55.167824 
	C95.274078,55.167824 95.585373,55.116199 96.049522,55.605244 
	C96.693344,55.758026 97.337166,55.910809 97.989342,55.999439 
	C97.989342,55.999439 97.939987,56.041275 98.314133,56.507980 
	C98.871124,56.694691 99.428123,56.881397 99.989037,57.002148 
	C99.989037,57.002148 99.934181,57.038994 100.295067,57.523357 
M98.215729,96.897545 
	C106.393036,91.485466 106.892143,83.300133 106.090645,74.735428 
	C105.458069,67.975853 101.882240,63.226696 95.433655,61.051884 
	C83.624741,57.069286 71.516891,59.704559 59.281822,58.871796 
	C59.281822,79.592545 59.281822,99.437775 59.281822,120.277771 
	C61.775436,117.963272 63.811184,116.357430 65.507141,114.449547 
	C72.167969,106.956390 80.065796,101.748344 90.140152,100.026085 
	C92.695656,99.589203 95.089622,98.207451 98.215729,96.897545 
z"/>
<path fill="#33317D" opacity="1.000000" stroke="none" 
	d="
M132.993256,127.417007 
	C138.310562,127.338211 143.636200,127.036293 148.943207,127.234055 
	C156.488205,127.515205 161.675797,132.693512 161.494476,139.314072 
	C161.308105,146.117935 156.125229,150.828110 148.568481,151.010529 
	C146.121964,151.069595 143.672806,151.019806 140.875122,151.019806 
	C140.875122,156.429245 140.875122,161.361496 140.875122,166.199066 
	C133.034958,168.027863 131.550720,167.497421 131.227203,162.108734 
	C131.743820,155.632706 131.791290,149.868546 132.023331,144.111801 
	C132.247787,138.542892 132.662247,132.981628 132.993256,127.417007 
M146.877426,143.751770 
	C150.180695,143.032257 152.237473,140.930786 150.913040,137.713242 
	C149.019104,133.112091 144.811859,134.509018 141.186020,134.676529 
	C141.186020,137.910248 141.186020,140.792603 141.186020,143.851471 
	C143.071655,143.851471 144.552643,143.851471 146.877426,143.751770 
z"/>
<path fill="#34327A" opacity="1.000000" stroke="none" 
	d="
M250.108368,146.333084 
	C255.034622,140.169403 261.547638,138.109711 268.525787,140.229996 
	C275.746674,142.424057 279.586426,149.399185 277.903809,157.265701 
	C276.494446,163.854919 269.245728,168.596527 261.787048,167.808212 
	C250.709381,166.637390 245.552551,157.443405 250.108368,146.333084 
M267.503998,160.780136 
	C267.998871,157.257523 269.222687,153.626892 268.722595,150.251694 
	C268.409058,148.135574 265.634521,145.070419 263.724457,144.883743 
	C261.910400,144.706451 259.017975,147.349945 258.008362,149.435135 
	C256.972534,151.574554 257.195343,154.623352 257.659058,157.127548 
	C258.680084,162.641083 261.696259,163.869049 267.503998,160.780136 
z"/>
<path fill="#34327A" opacity="1.000000" stroke="none" 
	d="
M214.117126,165.304901 
	C203.738724,169.996384 194.117554,167.103439 191.080734,158.690109 
	C188.582794,151.769714 191.366898,144.360657 197.657867,141.186905 
	C204.742523,137.612747 214.281586,139.832138 218.224655,145.972061 
	C222.056290,151.938477 220.466843,159.928696 214.117126,165.304901 
M210.966995,156.935577 
	C210.966064,154.634460 211.655701,152.016617 210.783585,150.115036 
	C209.769287,147.903412 207.466614,144.961273 205.575424,144.850189 
	C203.737427,144.742233 201.124481,147.488007 199.949356,149.593277 
	C198.947556,151.388016 198.786392,154.339905 199.553101,156.261185 
	C200.529648,158.708221 202.415314,161.701126 204.630768,162.530212 
	C207.881210,163.746613 209.974411,160.989258 210.966995,156.935577 
z"/>
<path fill="#31307A" opacity="1.000000" stroke="none" 
	d="
M281.767822,145.292023 
	C280.798553,142.994492 279.543427,140.887085 282.981567,140.054810 
	C283.622620,139.899628 284.278748,138.795059 284.485718,138.011780 
	C287.169037,127.857346 290.379089,125.746742 301.180115,127.421242 
	C301.180115,129.445801 301.180115,131.521652 301.180115,133.824387 
	C297.166077,133.880615 292.525238,133.124100 293.977722,138.889740 
	C295.214508,140.703430 296.451263,142.517105 298.393463,145.365265 
	C292.655457,145.303238 292.925995,148.236938 292.986816,151.223053 
	C293.091003,156.338959 293.015594,161.458542 293.015594,166.790405 
	C290.180786,166.790405 287.747589,166.790405 284.518524,166.790405 
	C284.518524,161.267517 284.691467,155.699478 284.407410,150.154861 
	C284.327789,148.600693 282.903015,147.115433 281.767822,145.292023 
z"/>
<path fill="#34337A" opacity="1.000000" stroke="none" 
	d="
M230.607910,167.448151 
	C225.519272,167.092926 223.569611,164.955048 225.097397,160.693695 
	C229.161560,161.129791 233.064957,161.548630 236.968353,161.967453 
	C237.183426,161.327301 237.398514,160.687134 237.613586,160.046982 
	C236.338959,159.049011 235.155334,157.893967 233.768051,157.090485 
	C231.765717,155.930756 229.455276,155.260223 227.562119,153.963638 
	C223.667496,151.296249 223.124176,146.581360 226.057587,143.118347 
	C229.346329,139.235855 238.142731,138.094254 241.988068,141.236557 
	C242.887604,141.971649 243.173981,143.457077 243.742462,144.597290 
	C242.445984,144.914673 241.145142,145.510452 239.853897,145.490311 
	C237.326843,145.450928 234.805130,145.067886 232.281219,144.827087 
	C232.113297,145.497696 231.945358,146.168304 231.777435,146.838913 
	C233.200653,147.714462 234.547379,148.761185 236.059860,149.436874 
	C243.988571,152.978912 246.454636,156.333878 244.905899,161.707336 
	C243.589981,166.273010 238.824951,168.275085 230.607910,167.448151 
z"/>
<path fill="#323079" opacity="1.000000" stroke="none" 
	d="
M313.655731,167.402481 
	C304.070679,167.093658 301.531769,164.471909 301.508667,155.319397 
	C301.504486,153.658798 301.809326,151.930664 301.445557,150.355133 
	C301.017731,148.501984 300.016571,146.781219 299.264069,145.003036 
	C298.663147,144.933212 298.062256,144.863403 297.461334,144.793594 
	C301.268250,140.454315 305.075134,136.115036 309.933563,130.577164 
	C309.933563,134.710831 309.933563,137.235916 309.933563,140.062744 
	C313.395233,140.062744 316.333038,140.062744 319.385590,140.062744 
	C321.505646,146.354019 315.841614,145.499878 313.641632,145.728928 
	C309.619873,146.147629 309.058289,147.662750 309.991333,150.938980 
	C310.122589,151.399872 310.045898,151.933258 310.004639,152.428024 
	C309.397400,159.714035 309.784241,162.584091 319.844360,160.288681 
	C319.844360,162.109879 319.844360,163.891617 319.844360,165.997650 
	C317.859833,166.458115 315.955200,166.900040 313.655731,167.402481 
z"/>
<path fill="#323079" opacity="1.000000" stroke="none" 
	d="
M186.420563,139.862656 
	C192.845306,142.220383 188.378815,145.701813 188.065262,148.808624 
	C180.441574,146.651871 176.231262,149.816864 176.016541,157.593231 
	C175.993576,158.425018 176.012604,159.257935 176.011078,160.090332 
	C175.997330,167.520691 175.847885,167.641449 167.731140,166.583527 
	C167.731140,158.007599 167.731140,149.403519 167.731140,140.483383 
	C170.468903,140.483383 173.021713,140.483383 175.813675,140.483383 
	C175.926605,142.356644 176.034500,144.146454 176.080093,144.902695 
	C179.179810,143.306931 182.622314,141.534683 186.420563,139.862656 
z"/>
<path fill="#3B397A" opacity="1.000000" stroke="none" 
	d="
M304.105743,213.026733 
	C299.716034,208.497620 299.814545,207.024185 304.299622,203.272995 
	C304.714294,202.926163 305.036743,202.278000 305.098206,201.735336 
	C305.290894,200.035202 305.338074,198.318588 304.582886,196.830597 
	C304.144714,193.839355 302.518921,190.275375 303.606598,188.019974 
	C304.667542,185.819977 308.383484,184.630142 311.161255,183.625946 
	C312.928772,182.986954 315.133301,183.315262 317.098175,183.560257 
	C318.160309,183.692719 319.130646,184.561249 320.142395,185.097702 
	C319.304535,186.003433 318.466675,186.909180 317.384369,188.079193 
	C319.049408,193.362778 319.049408,193.362778 307.332123,199.984650 
	C310.368561,200.917862 312.588379,201.586792 314.799652,202.282959 
	C317.832428,203.237762 320.446259,204.636841 320.158325,208.424530 
	C319.883270,212.042526 317.362305,213.815887 314.188568,214.003647 
	C310.969818,214.194092 307.699219,213.508804 304.105743,213.026733 
M308.870758,211.074112 
	C310.186890,211.055206 311.617249,211.352966 312.787811,210.930634 
	C314.021820,210.485382 315.007782,209.352600 316.102112,208.520203 
	C315.174347,207.516434 314.418854,206.146454 313.272522,205.607285 
	C312.012482,205.014587 310.280426,204.775970 308.960266,205.137100 
	C307.548431,205.523300 306.377167,206.789062 305.100891,207.670898 
	C306.080475,208.772446 307.060059,209.873993 308.870758,211.074112 
M306.979401,192.565170 
	C308.996124,192.938065 311.018066,193.541183 313.025360,193.495865 
	C313.442993,193.486450 314.524750,190.551514 314.038788,189.885803 
	C313.145203,188.661652 310.766937,187.100677 309.991760,187.516190 
	C308.527527,188.301086 307.760529,190.386688 306.979401,192.565170 
z"/>
<path fill="#322F74" opacity="1.000000" stroke="none" 
	d="
M202.820648,179.079926 
	C202.830566,173.102905 202.830566,173.102905 206.874191,173.239120 
	C206.874191,177.158340 206.874191,181.103256 206.874191,185.189758 
	C216.463562,180.992950 220.110657,183.332550 220.163620,193.365158 
	C220.175018,195.524994 220.497604,197.759109 220.042038,199.818588 
	C219.743073,201.170044 218.303848,202.269287 217.375275,203.481476 
	C216.913055,203.218536 216.450836,202.955582 215.988617,202.692642 
	C215.988617,199.063675 216.439636,195.353928 215.809814,191.837769 
	C215.463547,189.904572 213.445099,186.993713 211.920898,186.821487 
	C208.982132,186.489410 206.772690,188.448700 206.964752,192.128326 
	C207.162292,195.912491 207.008606,199.714996 207.008606,203.752396 
	C205.604935,203.752396 204.524506,203.752396 202.823563,203.752396 
	C202.823563,195.730194 202.823563,187.649170 202.820648,179.079926 
z"/>
<path fill="#393678" opacity="1.000000" stroke="none" 
	d="
M253.672012,183.748291 
	C261.748505,183.511398 266.535156,187.473251 266.496582,193.982834 
	C266.459869,200.180786 261.508270,204.523636 254.853958,204.194092 
	C249.589096,203.933365 245.508698,200.340363 244.897583,195.426987 
	C244.170120,189.578262 246.978867,185.695099 253.672012,183.748291 
M250.596786,189.251144 
	C247.716492,194.225388 248.481781,198.907425 252.948135,199.751587 
	C255.539642,200.241394 259.359344,199.215271 261.125671,197.406174 
	C262.385986,196.115311 262.083740,191.759598 260.823669,189.882553 
	C258.528473,186.463516 254.765945,186.195786 250.596786,189.251144 
z"/>
<path fill="#393677" opacity="1.000000" stroke="none" 
	d="
M281.206940,186.190857 
	C286.597229,182.844162 291.647858,182.738022 295.443542,185.648956 
	C299.686371,188.902786 300.804871,195.218918 297.902954,199.537445 
	C294.860931,204.064484 288.176361,205.619034 283.192230,202.958557 
	C278.350769,200.374252 276.361450,194.701843 278.656708,189.694855 
	C279.198608,188.512680 280.153198,187.519684 281.206940,186.190857 
M285.525574,187.918900 
	C284.318481,190.247406 282.299652,192.536774 282.184875,194.917938 
	C282.106110,196.551346 284.457855,199.429718 286.111359,199.750504 
	C288.501007,200.214096 291.982971,199.630905 293.608368,198.057663 
	C295.008209,196.702759 295.359253,192.997009 294.576172,190.938477 
	C293.261902,187.483643 289.920227,186.504089 285.525574,187.918900 
z"/>
<path fill="#3D3B7A" opacity="1.000000" stroke="none" 
	d="
M166.021469,194.047928 
	C167.437988,200.449615 171.024399,201.606659 179.708542,198.389862 
	C181.417435,202.727219 177.912827,203.109680 175.396866,203.730423 
	C169.202759,205.258621 163.868774,202.382202 162.191559,196.925461 
	C160.476746,191.346481 163.007263,185.490845 167.959686,183.577911 
	C172.972610,181.641632 177.044022,183.596085 179.652939,189.907654 
	C179.256607,191.619263 179.128403,192.743164 179.000183,193.867065 
	C178.244659,193.917206 177.489105,193.967331 176.364990,193.600006 
	C175.972778,192.731705 175.949158,192.280884 176.032684,191.448166 
	C175.887207,186.935501 173.050842,186.286636 169.929596,187.033630 
	C167.773499,187.549652 164.800980,188.440872 166.901749,192.213531 
	C166.534195,193.004822 166.277832,193.526367 166.021469,194.047928 
z"/>
<path fill="#3D3B7A" opacity="1.000000" stroke="none" 
	d="
M334.020264,194.047760 
	C335.422668,200.440308 339.115570,201.641861 347.535980,198.445312 
	C348.157318,202.051331 347.084961,203.246048 342.629852,203.911331 
	C336.044800,204.894653 331.003448,201.635742 329.957214,195.719223 
	C328.820526,189.291183 332.323608,183.801605 338.054382,183.030411 
	C343.662720,182.275681 347.331909,185.592560 347.901520,192.680206 
	C346.182007,192.604401 344.969269,192.238525 343.913025,191.503067 
	C344.278534,187.822311 342.172089,186.789673 339.445374,186.830276 
	C336.365173,186.876099 333.987305,188.034882 334.094604,192.123779 
	C334.044861,193.020798 334.032562,193.534286 334.020264,194.047760 
z"/>
<path fill="#3B397A" opacity="1.000000" stroke="none" 
	d="
M358.455078,200.845123 
	C361.554688,199.303680 360.890717,197.781128 358.834290,196.341583 
	C356.804688,194.920868 354.185913,193.974777 352.813080,192.098114 
	C351.698120,190.573944 351.153290,187.549469 351.926239,185.948776 
	C353.636963,182.405899 357.325470,182.336777 360.616455,183.506927 
	C362.069275,184.023514 363.075378,185.796448 365.095642,187.806137 
	C360.688629,187.377182 358.000610,187.115555 355.312561,186.853912 
	C355.127197,187.435944 354.941833,188.017975 354.756439,188.599991 
	C356.553101,189.825409 358.322968,191.092545 360.151794,192.267960 
	C364.560394,195.101440 365.960327,198.609619 363.846252,201.667953 
	C361.746735,204.705200 355.126099,205.670013 352.053619,203.127579 
	C351.163177,202.390717 351.022980,200.747192 350.341064,199.017624 
	C353.468842,199.784439 355.777435,200.350418 358.455078,200.845123 
z"/>
<path fill="#3A3778" opacity="1.000000" stroke="none" 
	d="
M190.620667,183.163269 
	C194.409348,183.315338 198.910843,181.736282 199.024933,188.289658 
	C194.947983,187.044373 190.621964,185.175125 188.233551,189.628128 
	C187.094788,191.751251 186.900040,195.380798 187.960800,197.475739 
	C190.180542,201.859482 194.507416,201.113403 198.591263,199.607681 
	C198.917374,200.034668 199.243484,200.461670 199.569611,200.888672 
	C198.445404,201.985062 197.485641,203.734253 196.168808,204.065948 
	C190.159515,205.579742 184.908249,202.826431 183.279556,197.712555 
	C181.259949,191.371155 183.782669,186.113312 190.620667,183.163269 
z"/>
<path fill="#3C3979" opacity="1.000000" stroke="none" 
	d="
M153.796005,180.933960 
	C155.029114,182.041779 156.213455,182.742691 157.368439,183.489014 
	C158.450104,184.187958 159.500671,184.935043 160.564926,185.660934 
	C160.312363,186.123291 160.059784,186.585632 159.807220,187.047989 
	C158.037994,187.145645 156.268784,187.243317 154.561020,187.337570 
	C152.161255,198.732376 153.483002,201.453308 161.573975,201.096176 
	C160.384567,202.171509 159.339951,203.888855 157.977310,204.196198 
	C154.532135,204.973267 150.964294,204.453400 150.002914,200.368332 
	C149.293991,197.355957 149.782990,194.080841 149.411224,190.961777 
	C149.226883,189.415268 148.305756,187.956589 147.264893,185.303177 
	C148.749680,184.211578 151.242065,182.379227 153.796005,180.933960 
z"/>
<path fill="#333276" opacity="1.000000" stroke="none" 
	d="
M238.093658,190.038712 
	C237.026703,187.408005 235.095459,185.477371 232.398529,187.027512 
	C230.794464,187.949493 229.432327,190.375214 229.158844,192.295410 
	C228.648895,195.876175 229.012405,199.581329 229.012405,203.402298 
	C226.268661,204.567993 224.682098,204.432739 224.776886,200.828476 
	C224.921051,195.347198 224.814636,189.859344 224.814636,184.388626 
	C228.652161,183.925797 232.439041,182.763016 235.965042,183.303192 
	C238.151962,183.638214 239.943024,186.557159 241.611084,188.994293 
	C241.123703,193.816849 240.936996,197.961411 240.750275,202.105957 
	C240.389343,202.125092 240.028412,202.144226 239.667480,202.163345 
	C239.142868,198.121811 238.618256,194.080261 238.093658,190.038712 
z"/>
<path fill="#605E8D" opacity="1.000000" stroke="none" 
	d="
M337.745636,219.701355 
	C337.545502,217.699127 337.344666,216.067886 337.032288,213.530670 
	C339.649963,213.988068 343.623932,213.665833 344.307770,215.013336 
	C345.736023,217.827698 345.427460,221.523468 345.832367,224.857178 
	C345.082611,224.937881 344.332855,225.018585 343.583099,225.099289 
	C343.399933,223.214081 343.428741,221.274551 342.964172,219.461441 
	C342.614563,218.097000 341.632080,216.894730 340.931335,215.620270 
	C340.040894,216.929779 338.902557,218.142654 338.341797,219.580750 
	C337.925812,220.647614 338.259918,222.006973 337.930969,223.265228 
	C337.868958,222.200928 337.806915,221.136627 337.745636,219.701355 
z"/>
<path fill="#2E2E69" opacity="1.000000" stroke="none" 
	d="
M273.984314,173.046768 
	C274.322937,173.844681 274.950134,174.640442 274.956085,175.440826 
	C275.025055,184.715195 275.000153,193.990234 275.000153,203.513809 
	C272.650513,204.269852 270.906281,204.745178 270.968384,201.182709 
	C271.130035,191.907104 271.128357,182.628662 271.600342,173.663788 
	C272.008850,183.091721 272.008850,192.207230 272.008850,201.322739 
	C272.667328,201.323380 273.325836,201.324020 273.984314,201.324661 
	C273.984314,191.898697 273.984314,182.472733 273.984314,173.046768 
z"/>
<path fill="#464477" opacity="1.000000" stroke="none" 
	d="
M351.746246,213.812088 
	C353.786835,213.936340 355.470612,214.170319 357.154419,214.404312 
	C357.204956,214.925217 357.255493,215.446121 357.306061,215.967041 
	C354.200714,215.892410 349.916656,214.924423 350.576172,219.448654 
	C350.843872,221.285126 354.237305,222.665924 356.776337,224.711563 
	C354.160370,225.419800 351.227783,226.205124 349.184357,223.132629 
	C346.836792,219.602798 347.329285,216.196228 351.746246,213.812088 
z"/>
<path fill="#2D2C7D" opacity="1.000000" stroke="none" 
	d="
M273.660217,172.954407 
	C273.984314,182.472733 273.984314,191.898697 273.984314,201.324661 
	C273.325836,201.324020 272.667328,201.323380 272.008850,201.322739 
	C272.008850,192.207230 272.008850,183.091721 272.011169,173.510529 
	C272.454376,172.983902 272.895264,172.922974 273.660217,172.954407 
z"/>
<path fill="#322F74" opacity="1.000000" stroke="none" 
	d="
M324.985260,203.844360 
	C324.546570,203.892746 324.107849,203.941132 323.339783,203.458054 
	C323.011383,196.573395 323.012360,190.220230 323.013336,183.867050 
	C323.455841,183.794174 323.898346,183.721298 324.665466,184.237396 
	C324.988495,191.165695 324.986877,197.505035 324.985260,203.844360 
z"/>
<path fill="#2E2E69" opacity="1.000000" stroke="none" 
	d="
M132.574066,127.340012 
	C132.662247,132.981628 132.247787,138.542892 132.023331,144.111801 
	C131.791290,149.868546 131.743820,155.632706 131.324310,161.690765 
	C130.966721,151.330429 130.867676,140.672897 130.892197,130.015640 
	C130.894318,129.097137 131.714615,128.180496 132.574066,127.340012 
z"/>
<path fill="#9B9BA2" opacity="1.000000" stroke="none" 
	d="
M110.298920,226.267029 
	C105.673096,230.477600 100.105499,231.600296 94.231750,230.385574 
	C99.605293,228.566696 104.781509,227.269516 109.957733,225.972336 
	C109.957733,225.972336 110.185898,226.167969 110.298920,226.267029 
z"/>
<path fill="#302F63" opacity="1.000000" stroke="none" 
	d="
M238.044922,190.499146 
	C238.618256,194.080261 239.142868,198.121811 239.667480,202.163345 
	C240.028412,202.144226 240.389343,202.125092 240.750275,202.105957 
	C240.936996,197.961411 241.123703,193.816849 241.569916,189.358032 
	C241.938477,193.141846 242.245056,197.250549 242.025436,201.330933 
	C241.966492,202.426193 240.304947,203.435196 239.379105,204.483795 
	C238.918121,204.211777 238.457153,203.939758 237.996170,203.667740 
	C237.996170,199.431671 237.996170,195.195618 238.044922,190.499146 
z"/>
<path fill="#8F8F91" opacity="1.000000" stroke="none" 
	d="
M109.802536,225.724838 
	C104.781509,227.269516 99.605293,228.566696 94.046822,230.081284 
	C92.667030,230.339355 91.669479,230.380035 90.296844,230.361496 
	C89.943619,229.788971 89.965477,229.275650 90.421204,228.381470 
	C92.572174,227.984192 94.289284,227.967789 96.343620,227.961426 
	C97.452660,227.641022 98.224472,227.310593 99.372185,226.982758 
	C100.499825,226.975998 101.251556,226.966629 102.351555,226.965744 
	C103.798889,226.311111 104.897957,225.647995 106.331314,224.985779 
	C107.111267,224.979416 107.556931,224.972183 108.002602,224.964951 
	C108.550842,225.135757 109.099083,225.306549 109.802536,225.724838 
z"/>
<path fill="#302F63" opacity="1.000000" stroke="none" 
	d="
M334.482605,194.028503 
	C334.032562,193.534286 334.044861,193.020798 334.532532,192.124908 
	C337.924133,191.785873 340.840332,191.829254 343.756531,191.872650 
	C344.969269,192.238525 346.182007,192.604401 347.781616,192.972107 
	C343.760620,193.319046 339.352753,193.664139 334.482605,194.028503 
z"/>
<path fill="#302F63" opacity="1.000000" stroke="none" 
	d="
M325.400726,203.716248 
	C324.986877,197.505035 324.988495,191.165695 324.988220,184.348740 
	C325.262939,190.443451 325.539551,197.015793 325.400726,203.716248 
z"/>
<path fill="#302F63" opacity="1.000000" stroke="none" 
	d="
M322.608948,184.058136 
	C323.012360,190.220230 323.011383,196.573395 323.014923,203.384796 
	C322.678802,199.774368 322.242462,195.710663 322.033325,191.635284 
	C321.907471,189.182648 322.135529,186.711868 322.608948,184.058136 
z"/>
<path fill="#302F63" opacity="1.000000" stroke="none" 
	d="
M175.925522,191.830048 
	C175.949158,192.280884 175.972778,192.731705 175.992859,193.521194 
	C172.967911,193.909164 169.946503,193.958481 166.473282,194.027863 
	C166.277832,193.526367 166.534195,193.004822 167.341812,192.132492 
	C170.570557,191.797836 173.248032,191.813934 175.925522,191.830048 
z"/>
<path fill="#302F63" opacity="1.000000" stroke="none" 
	d="
M179.399139,193.834137 
	C179.128403,192.743164 179.256607,191.619263 179.636536,190.267059 
	C179.858215,191.292923 179.828171,192.547058 179.399139,193.834137 
z"/>
<path fill="#110B87" opacity="1.000000" stroke="none" 
	d="
M112.031082,86.591354 
	C111.741104,82.320198 111.451126,78.049049 111.438354,73.044632 
	C114.657249,62.376701 103.919701,53.225712 96.536430,50.983681 
	C82.763680,46.801411 68.624504,49.307083 54.647144,49.289223 
	C53.107826,49.287254 50.541046,52.246750 50.218575,54.134670 
	C49.319462,59.398575 49.027401,64.824409 49.079491,70.180634 
	C49.194199,81.976631 49.826977,93.767403 49.955227,105.563499 
	C50.119839,120.703911 49.997372,135.847458 49.997349,150.989655 
	C49.997326,164.467880 49.953926,177.946304 50.021004,191.424179 
	C50.040192,195.279297 48.787979,197.381989 44.492580,197.055817 
	C41.018421,196.792007 37.507980,197.005997 34.037781,196.539032 
	C34.084282,143.105042 34.106632,90.140068 34.317692,37.050926 
	C34.754898,36.742886 34.937538,36.507843 35.513474,36.143585 
	C51.307739,36.072365 66.642860,36.079189 82.137741,36.287727 
	C82.873138,36.355671 83.448769,36.221893 84.350548,36.063450 
	C85.112083,36.056717 85.547470,36.074654 86.264229,36.345161 
	C87.804619,36.574303 89.063644,36.550869 90.738525,36.500580 
	C93.103897,36.627022 95.053421,36.780327 97.258301,37.210052 
	C101.263145,38.435192 105.012627,39.383911 108.895874,40.626663 
	C110.998985,41.980694 112.968323,43.040691 115.008682,44.428585 
	C117.055267,46.168205 119.030838,47.579933 121.055832,49.130394 
	C121.188164,49.319965 121.271080,49.370804 121.353989,49.421642 
	C121.233253,49.283192 121.112518,49.144741 120.954987,48.664223 
	C120.271164,46.888779 119.624123,45.455406 119.151886,43.754547 
	C119.693779,43.276714 120.060867,43.066372 120.427963,42.856033 
	C120.874237,43.095013 121.320511,43.333992 121.922722,44.128960 
	C122.727287,45.121326 123.375916,45.557713 124.024536,45.994095 
	C124.024536,45.994099 123.999199,46.003269 124.007324,46.370903 
	C126.483719,53.418430 129.373901,59.977539 131.328430,66.804512 
	C134.898697,79.275154 133.132736,91.084961 125.999527,102.144058 
	C117.495316,115.328712 105.511421,121.826744 89.956741,121.512177 
	C90.319992,117.388016 90.660225,113.712891 91.372391,109.936966 
	C95.182678,108.617363 98.889641,107.858154 101.983566,106.050003 
	C105.056129,104.254326 107.981506,101.754776 110.106071,98.916214 
	C112.228584,96.080376 113.705696,92.562317 114.675720,89.120674 
	C115.593063,85.865990 115.484261,82.322083 115.940392,77.772125 
	C114.303505,81.464867 113.167297,84.028114 112.031082,86.591354 
z"/>
<path fill="#FDFDFD" opacity="1.000000" stroke="none" 
	d="
M97.886772,97.078705 
	C95.089622,98.207451 92.695656,99.589203 90.140152,100.026085 
	C80.065796,101.748344 72.167969,106.956390 65.507141,114.449547 
	C63.811184,116.357430 61.775436,117.963272 59.281822,120.277771 
	C59.281822,99.437775 59.281822,79.592545 59.281822,58.871796 
	C71.516891,59.704559 83.624741,57.069286 95.433655,61.051884 
	C101.882240,63.226696 105.458069,67.975853 106.090645,74.735428 
	C106.892143,83.300133 106.393036,91.485466 97.886772,97.078705 
z"/>
<path fill="#120C87" opacity="1.000000" stroke="none" 
	d="
M83.044327,207.097015 
	C83.044327,207.097015 83.215500,207.261688 83.486862,207.522644 
	C84.099548,207.936249 84.440865,208.088913 84.782181,208.241577 
	C84.782173,208.241592 84.717789,208.170792 84.576263,208.486572 
	C83.416130,209.289551 82.397522,209.776733 81.378914,210.263916 
	C81.685043,210.975494 81.991165,211.687057 82.297295,212.398636 
	C85.249947,212.779266 88.202599,213.159912 91.553101,213.629486 
	C96.605621,212.733566 101.260277,211.748734 106.054199,211.107986 
	C107.833794,215.078125 106.004913,217.405609 102.885269,218.442215 
	C93.598892,221.527878 84.235832,222.494400 75.134575,217.700943 
	C71.172783,215.614349 67.324875,213.311493 63.279545,210.886658 
	C62.772888,210.090225 62.411938,209.514023 62.050983,208.937805 
	C61.656384,206.639374 61.261780,204.340942 60.917732,201.324585 
	C61.300220,200.052765 61.632149,199.498871 62.010345,199.279572 
	C62.712349,200.596939 63.368092,201.579742 64.023834,202.562531 
	C64.371147,202.423309 64.718468,202.284073 65.065781,202.144852 
	C64.741631,201.095947 64.417488,200.047058 63.978188,198.766129 
	C63.583138,198.348206 63.303238,198.162292 63.025665,197.976852 
	C63.027985,197.977325 63.038044,197.961914 63.070229,197.682541 
	C63.100067,197.031982 63.097721,196.660812 63.377598,195.954102 
	C63.795284,193.648834 64.041924,191.679520 64.049103,189.709320 
	C64.125191,168.827759 64.163185,147.946045 64.389572,126.901566 
	C64.797966,126.492462 64.922989,126.200897 65.120926,125.651047 
	C65.449005,125.328888 65.598679,125.219757 65.958641,125.054573 
	C66.446609,124.677193 66.724289,124.355858 67.230606,123.795372 
	C69.168411,122.123772 70.877586,120.691338 72.709579,119.681076 
	C73.555855,123.246773 74.692406,126.365585 74.882446,129.541031 
	C75.059868,132.505569 76.291229,133.254669 78.911835,133.235077 
	C78.981567,133.462067 79.018318,133.935562 79.008545,134.211487 
	C78.994324,134.671341 78.989868,134.855270 78.795959,135.304352 
	C78.880135,139.736069 81.818115,138.072861 84.473694,138.102982 
	C90.463844,138.183670 95.991463,138.200958 101.637619,138.692017 
	C102.902992,143.813705 101.113052,145.425247 96.380249,145.083145 
	C91.252480,144.712479 86.071358,144.854416 80.924118,145.050934 
	C76.860825,145.206024 73.941292,146.785629 73.970757,151.639618 
	C74.057533,165.939178 73.943405,180.239929 74.031845,194.539474 
	C74.063728,199.696396 76.473061,203.569244 81.182266,205.885773 
	C81.182266,205.885773 81.084480,205.927139 81.152718,206.135162 
	C81.498825,206.557693 81.776695,206.772217 82.027382,206.993637 
	C82.000206,207.000549 82.018509,206.947540 82.061264,207.112823 
	C82.380852,207.344650 82.657692,207.411194 82.973328,207.385818 
	C83.012123,207.293915 83.044327,207.097015 83.044327,207.097015 
z"/>
<path fill="#0C0670" opacity="1.000000" stroke="none" 
	d="
M34.013634,197.008026 
	C37.507980,197.005997 41.018421,196.792007 44.492580,197.055817 
	C48.787979,197.381989 50.040192,195.279297 50.021004,191.424179 
	C49.953926,177.946304 49.997326,164.467880 49.997349,150.989655 
	C49.997372,135.847458 50.119839,120.703911 49.955227,105.563499 
	C49.826977,93.767403 49.194199,81.976631 49.079491,70.180634 
	C49.027401,64.824409 49.319462,59.398575 50.218575,54.134670 
	C50.541046,52.246750 53.107826,49.287254 54.647144,49.289223 
	C68.624504,49.307083 82.763680,46.801411 96.536430,50.983681 
	C103.919701,53.225712 114.657249,62.376701 111.472992,72.613899 
	C109.989571,67.111267 107.133560,62.323666 102.002487,58.207047 
	C101.102478,57.442150 100.518333,57.240574 99.934181,57.038994 
	C99.934181,57.038994 99.989037,57.002148 99.826935,56.771988 
	C99.089882,56.374981 98.514931,56.208130 97.939987,56.041275 
	C97.939987,56.041275 97.989342,55.999439 97.787003,55.748291 
	C96.918236,55.370159 96.251801,55.243179 95.585373,55.116199 
	C95.585373,55.116199 95.274078,55.167824 94.908707,54.809727 
	C93.844093,54.348595 93.144859,54.245556 92.445625,54.142517 
	C92.114403,54.141075 91.783173,54.139637 91.127922,53.647743 
	C89.969360,52.775791 89.137329,52.068775 88.299904,52.062321 
	C78.094994,51.983654 67.889137,51.984020 57.684059,52.047543 
	C56.795391,52.053074 55.910404,52.650097 55.023712,52.972374 
	C55.023708,52.972370 54.648785,53.111515 54.091980,53.328712 
	C53.354420,55.339516 53.016979,57.133018 53.015812,58.926739 
	C52.986336,104.222816 52.929928,149.519135 53.083374,194.814713 
	C53.099598,199.602463 51.710609,201.389969 46.847099,201.074295 
	C41.208252,200.708298 35.528530,200.972107 29.866550,200.962540 
	C29.809795,199.906494 29.753040,198.850449 30.051144,197.328690 
	C30.625696,196.805771 30.845392,196.748550 31.424595,196.789566 
	C32.527279,196.927872 33.270454,196.967957 34.013634,197.008026 
z"/>
<path fill="#0E086E" opacity="1.000000" stroke="none" 
	d="
M89.933723,121.961197 
	C105.511421,121.826744 117.495316,115.328712 125.999527,102.144058 
	C133.132736,91.084961 134.898697,79.275154 131.328430,66.804512 
	C129.373901,59.977539 126.483719,53.418430 124.010620,46.357895 
	C131.753235,53.570789 136.357666,62.544231 136.243851,73.628716 
	C136.190170,78.856262 136.997269,84.217323 136.109680,89.289589 
	C132.652328,109.047447 118.748390,122.555580 99.007454,125.937431 
	C94.523178,126.705643 89.975723,127.105057 85.208557,126.989059 
	C85.277969,124.834145 85.596176,123.364403 86.315735,121.934746 
	C87.789307,121.970284 88.861519,121.965736 89.933723,121.961197 
z"/>
<path fill="#0E0971" opacity="1.000000" stroke="none" 
	d="
M81.151245,205.599869 
	C76.473061,203.569244 74.063728,199.696396 74.031845,194.539474 
	C73.943405,180.239929 74.057533,165.939178 73.970757,151.639618 
	C73.941292,146.785629 76.860825,145.206024 80.924118,145.050934 
	C86.071358,144.854416 91.252480,144.712479 96.380249,145.083145 
	C101.113052,145.425247 102.902992,143.813705 101.799210,138.372284 
	C102.016075,136.636765 102.189888,135.694778 102.447380,134.681610 
	C102.531067,134.610458 102.628845,134.413712 102.993713,134.408478 
	C104.548843,134.403702 105.739105,134.404175 106.929375,134.404663 
	C106.893059,139.215225 106.856743,144.025803 106.609093,149.298218 
	C106.397758,149.760071 105.937141,149.722977 105.606140,149.487244 
	C101.514977,149.168228 97.750282,148.929794 93.995796,149.039871 
	C88.996071,149.186432 84.004303,149.604218 79.051117,149.973373 
	C79.093109,150.041260 79.091576,150.200897 78.839310,150.240479 
	C78.359306,150.528732 78.131569,150.777405 77.639687,151.293259 
	C77.006416,153.827805 76.345131,156.091553 76.317055,158.363129 
	C76.169739,170.283157 76.140259,182.205429 76.219574,194.125946 
	C76.225990,195.091354 77.359589,196.049271 78.169510,197.076874 
	C78.369606,197.143097 78.776085,197.254791 78.776085,197.254791 
	C78.803474,197.660492 78.830872,198.066177 78.949272,199.087524 
	C79.351868,200.490021 79.663452,201.276886 79.975037,202.063736 
	C79.975029,202.063736 80.016212,202.553711 80.091888,203.044083 
	C80.425529,203.748672 80.683495,203.962875 80.941467,204.177094 
	C81.001053,204.556046 81.060631,204.935013 81.151245,205.599869 
z"/>
<path fill="#413C8C" opacity="1.000000" stroke="none" 
	d="
M31.065088,196.691345 
	C30.845392,196.748550 30.625696,196.805771 30.071976,196.931625 
	C29.523350,195.387054 29.122225,193.773972 29.121218,192.160614 
	C29.089485,141.297882 29.087400,90.435112 29.137869,39.572407 
	C29.139568,37.861160 29.731161,36.150497 30.590681,34.591148 
	C31.737843,35.236477 32.342113,35.730221 32.899586,36.605400 
	C32.250988,40.901173 31.134489,44.814327 31.125511,48.730019 
	C31.012423,98.050247 31.059187,147.370850 31.065088,196.691345 
z"/>
<path fill="#9390CA" opacity="1.000000" stroke="none" 
	d="
M32.946384,36.223965 
	C32.342113,35.730221 31.737843,35.236477 30.952553,34.511917 
	C32.352165,33.519489 33.914345,32.139679 35.516285,32.091858 
	C51.617035,31.611195 67.723503,31.287312 83.830437,31.079178 
	C86.947586,31.038900 90.073692,31.691143 93.818848,32.302429 
	C95.663643,33.815319 99.224052,33.673698 97.002937,36.933628 
	C95.053421,36.780327 93.103897,36.627022 90.425003,36.298218 
	C88.458046,36.112675 87.220451,36.102631 85.982864,36.092587 
	C85.547470,36.074654 85.112083,36.056717 84.012573,35.983688 
	C82.891624,35.981064 82.434799,36.033539 81.977974,36.086014 
	C66.642860,36.079189 51.307739,36.072365 35.258492,36.102688 
	C34.377472,36.181805 34.210590,36.223774 33.770069,36.237206 
	C33.313080,36.213768 33.129730,36.218864 32.946384,36.223965 
z"/>
<path fill="#0F096F" opacity="1.000000" stroke="none" 
	d="
M63.425251,211.106857 
	C67.324875,213.311493 71.172783,215.614349 75.134575,217.700943 
	C84.235832,222.494400 93.598892,221.527878 102.885269,218.442215 
	C106.004913,217.405609 107.833794,215.078125 106.195831,210.798126 
	C106.882133,208.455490 107.566078,206.766785 108.250015,205.078094 
	C108.634270,204.810654 109.018517,204.543198 109.778885,204.479767 
	C110.590492,205.460114 111.025993,206.236435 111.461494,207.012772 
	C111.381592,207.239105 111.301697,207.465424 110.989914,207.988312 
	C110.879036,208.389725 111.000023,208.494598 111.121017,208.599472 
	C111.121017,208.599472 111.145721,208.833435 111.181679,209.214539 
	C111.288315,210.069199 111.358994,210.542755 111.429672,211.016327 
	C111.371651,211.455017 111.313637,211.893707 111.236969,213.057037 
	C111.290855,214.859253 111.363396,215.936829 111.435944,217.014404 
	C111.372658,217.498581 111.309380,217.982758 111.007385,218.880676 
	C110.514687,219.863998 110.260696,220.433594 110.006714,221.003189 
	C109.456154,221.183136 108.905594,221.363068 107.832123,221.801010 
	C105.860115,222.688873 104.411034,223.318726 102.544304,223.958466 
	C97.227592,224.902557 92.328522,225.836761 87.429459,226.770966 
	C87.296989,226.451431 87.058983,226.313385 86.502884,226.476364 
	C86.290314,226.595901 86.230530,226.590561 86.182465,226.305603 
	C85.773857,225.906784 85.413330,225.792923 85.052795,225.679047 
	C85.052795,225.679047 84.734406,225.584351 84.332977,225.456894 
	C81.951157,224.935532 79.970757,224.541626 77.990356,224.147736 
	C77.990356,224.147736 77.529236,224.002716 77.108002,223.756592 
	C76.127831,223.361664 75.568893,223.212875 75.009956,223.064087 
	C75.009956,223.064087 74.767403,222.870102 74.436600,222.624863 
	C73.738831,222.246292 73.371872,222.112961 73.004913,221.979614 
	C72.214493,221.373016 71.424072,220.766403 70.204575,219.801575 
	C69.247498,219.197739 68.719505,218.952133 68.191513,218.706528 
	C68.191513,218.706528 68.169281,218.834366 68.173851,218.540710 
	C67.762695,217.908630 67.346962,217.570221 66.931236,217.231796 
	C66.736618,216.931686 66.541992,216.631592 66.083572,215.928619 
	C65.556168,215.331177 65.292564,215.136597 65.028961,214.942017 
	C65.028969,214.942017 64.999695,214.995605 64.961540,214.727417 
	C64.655716,214.246170 64.388054,214.033081 64.120392,213.819992 
	C64.120392,213.819992 64.119743,213.927734 64.129189,213.547806 
	C63.900837,212.480865 63.663044,211.793869 63.425251,211.106857 
z"/>
<path fill="#AAA9D2" opacity="1.000000" stroke="none" 
	d="
M112.102463,86.832306 
	C113.167297,84.028114 114.303505,81.464867 115.940392,77.772125 
	C115.484261,82.322083 115.593063,85.865990 114.675720,89.120674 
	C113.705696,92.562317 112.228584,96.080376 110.106071,98.916214 
	C107.981506,101.754776 105.056129,104.254326 101.983566,106.050003 
	C98.889641,107.858154 95.182678,108.617363 90.998367,109.905174 
	C88.847198,109.611488 87.441994,109.248817 86.036781,108.886139 
	C85.482765,105.346962 88.528847,105.851883 90.282013,105.454559 
	C99.642464,103.333168 106.593567,98.034149 111.491646,89.917274 
	C111.971710,89.121735 111.958237,88.028374 112.102463,86.832306 
z"/>
<path fill="#0E0A4E" opacity="1.000000" stroke="none" 
	d="
M29.894863,201.401123 
	C35.528530,200.972107 41.208252,200.708298 46.847099,201.074295 
	C51.710609,201.389969 53.099598,199.602463 53.083374,194.814713 
	C52.929928,149.519135 52.986336,104.222816 53.015812,58.926739 
	C53.016979,57.133018 53.354420,55.339516 53.892067,53.324333 
	C54.248966,53.102753 54.190086,53.564159 54.115784,54.253983 
	C54.027702,82.849426 53.988323,110.755058 54.008591,138.660660 
	C54.023670,159.420364 54.116013,180.180008 54.173946,200.939682 
	C46.208675,204.427826 38.080818,203.535065 29.894863,201.401123 
z"/>
<path fill="#9594BB" opacity="1.000000" stroke="none" 
	d="
M54.436111,200.626160 
	C54.116013,180.180008 54.023670,159.420364 54.008591,138.660660 
	C53.988323,110.755058 54.027702,82.849426 54.141705,54.485115 
	C54.498005,55.290329 54.976982,56.554066 54.977955,57.818176 
	C55.013988,104.499443 55.007294,151.180740 54.990841,197.862045 
	C54.990551,198.678940 54.800034,199.495773 54.436111,200.626160 
z"/>
<path fill="#120C6F" opacity="1.000000" stroke="none" 
	d="
M78.842102,133.008102 
	C76.291229,133.254669 75.059868,132.505569 74.882446,129.541031 
	C74.692406,126.365585 73.555855,123.246773 72.825714,119.373032 
	C73.942268,115.454788 75.065521,112.266762 76.188766,109.078735 
	C77.113869,110.195633 78.784424,111.276947 78.839706,112.435356 
	C79.136444,118.653267 79.031059,124.890373 79.033195,131.825729 
	C78.948601,132.689758 78.895355,132.848923 78.842102,133.008102 
z"/>
<path fill="#242365" opacity="1.000000" stroke="none" 
	d="
M61.964081,198.944992 
	C61.632149,199.498871 61.300220,200.052765 60.897888,200.934860 
	C60.827484,201.263077 60.414108,201.148056 60.186028,200.610565 
	C59.988560,175.400101 60.019173,150.727127 60.049782,126.054161 
	C60.229038,125.933922 60.408298,125.813690 60.836327,125.657753 
	C61.085094,125.622040 61.130329,125.909004 61.077263,126.383362 
	C61.346519,148.235443 61.668839,169.613159 61.970009,191.429840 
	C61.952797,193.919739 61.956738,195.970657 61.958523,198.252441 
	C61.956367,198.483292 61.964077,198.944992 61.964081,198.944992 
z"/>
<path fill="#B0AFD0" opacity="1.000000" stroke="none" 
	d="
M75.839355,109.082932 
	C75.065521,112.266762 73.942268,115.454788 72.702896,118.950859 
	C70.877586,120.691338 69.168411,122.123772 66.964142,123.779503 
	C66.124115,124.086456 65.779175,124.170120 65.004280,124.185608 
	C63.420372,124.066940 62.266422,124.016449 61.112469,123.965958 
	C61.112469,123.965965 61.074257,123.931778 61.036041,123.693558 
	C60.997822,123.455330 60.963245,123.005737 60.963249,123.005737 
	C65.805481,118.366203 70.647713,113.726669 75.839355,109.082932 
z"/>
<path fill="#AAA9D2" opacity="1.000000" stroke="none" 
	d="
M107.861420,205.071289 
	C107.566078,206.766785 106.882133,208.455490 106.056564,210.454041 
	C101.260277,211.748734 96.605621,212.733566 91.525589,213.323395 
	C92.483955,209.693604 89.016052,210.328384 87.983536,209.020737 
	C94.904404,209.792847 101.254837,207.754868 107.861420,205.071289 
z"/>
<path fill="#A1A0CA" opacity="1.000000" stroke="none" 
	d="
M59.765907,125.935303 
	C60.019173,150.727127 59.988560,175.400101 59.982574,200.542496 
	C59.669422,199.791702 59.040031,198.572220 59.037025,197.351181 
	C58.979298,173.940002 58.992531,150.528671 59.016037,127.117378 
	C59.016472,126.683571 59.319946,126.250084 59.765907,125.935303 
z"/>
<path fill="#5450A3" opacity="1.000000" stroke="none" 
	d="
M97.258301,37.210052 
	C99.224052,33.673698 95.663643,33.815319 94.269821,32.320877 
	C100.254463,33.794334 106.411301,35.527836 112.806274,37.602051 
	C113.044411,37.942772 113.005348,38.100876 112.642265,38.061893 
	C111.106827,38.792820 109.934471,39.562725 108.762115,40.332630 
	C105.012627,39.383911 101.263145,38.435192 97.258301,37.210052 
z"/>
<path fill="#3B35A0" opacity="1.000000" stroke="none" 
	d="
M85.736832,109.124191 
	C87.441994,109.248817 88.847198,109.611488 90.626434,110.005966 
	C90.660225,113.712891 90.319992,117.388016 89.956741,121.512177 
	C88.861519,121.965736 87.789307,121.970284 86.172279,121.570045 
	C85.352692,118.745697 85.077934,116.326126 84.803169,113.906563 
	C85.014412,112.391792 85.225647,110.877014 85.736832,109.124191 
z"/>
<path fill="#868688" opacity="1.000000" stroke="none" 
	d="
M84.496979,113.876060 
	C85.077934,116.326126 85.352692,118.745697 85.770920,121.529961 
	C85.596176,123.364403 85.277969,124.834145 84.915825,126.701859 
	C84.334953,128.234421 83.798012,129.369019 83.261078,130.503632 
	C83.027412,130.504593 82.793755,130.505554 82.560089,130.506516 
	C82.560089,124.736565 82.560089,118.966606 82.560089,113.108704 
	C82.841446,113.235840 83.516113,113.540695 84.496979,113.876060 
z"/>
<path fill="#9695AE" opacity="1.000000" stroke="none" 
	d="
M81.010139,151.012863 
	C80.872971,151.585464 80.735802,152.158081 80.787964,153.129059 
	C80.978668,153.701309 80.980042,153.875198 80.981415,154.049072 
	C80.653648,156.133209 80.077087,158.212845 80.039352,160.302216 
	C79.828079,171.999634 79.746925,183.699402 79.317024,195.236938 
	C79.006889,188.305527 79.080017,181.534332 78.973984,174.765930 
	C78.857986,167.362747 78.576378,159.962143 78.371704,152.360809 
	C78.381523,151.892868 78.429085,151.632309 78.928337,151.281860 
	C79.895050,151.127106 80.452599,151.069977 81.010139,151.012863 
z"/>
<path fill="#6E6AA6" opacity="1.000000" stroke="none" 
	d="
M78.366959,152.560425 
	C78.576378,159.962143 78.857986,167.362747 78.973984,174.765930 
	C79.080017,181.534332 79.006889,188.305527 79.036041,195.545410 
	C79.022461,196.224091 78.985573,196.432861 78.862389,196.948212 
	C78.776085,197.254791 78.369606,197.143097 78.178741,196.607391 
	C78.114235,181.567917 78.240593,167.064178 78.366959,152.560425 
z"/>
<path fill="#110B60" opacity="1.000000" stroke="none" 
	d="
M55.485008,53.048370 
	C55.910404,52.650097 56.795391,52.053074 57.684059,52.047543 
	C67.889137,51.984020 78.094994,51.983654 88.299904,52.062321 
	C89.137329,52.068775 89.969360,52.775791 90.894707,53.548912 
	C79.305779,53.668480 67.626045,53.396423 55.485008,53.048370 
z"/>
<path fill="#7E7CBA" opacity="1.000000" stroke="none" 
	d="
M87.661568,208.892380 
	C89.016052,210.328384 92.483955,209.693604 91.127739,213.234482 
	C88.202599,213.159912 85.249947,212.779266 82.297295,212.398636 
	C81.991165,211.687057 81.685043,210.975494 81.378914,210.263916 
	C82.397522,209.776733 83.416130,209.289551 84.556366,208.530090 
	C85.565193,208.426559 86.452400,208.595291 87.661568,208.892380 
z"/>
<path fill="#9493A6" opacity="1.000000" stroke="none" 
	d="
M87.793686,226.841797 
	C92.328522,225.836761 97.227592,224.902557 102.571884,223.996765 
	C103.017105,224.025177 103.072304,224.101730 102.918625,224.371796 
	C102.511063,225.413651 102.257172,226.185455 102.003288,226.957260 
	C101.251556,226.966629 100.499825,226.975998 99.172417,226.733368 
	C97.733292,226.971375 96.869843,227.461380 96.006393,227.951385 
	C94.289284,227.967789 92.572174,227.984192 90.425644,227.997925 
	C89.383453,227.634399 88.770683,227.273529 87.793686,226.841797 
z"/>
<path fill="#2D278F" opacity="1.000000" stroke="none" 
	d="
M118.977074,44.022034 
	C119.624123,45.455406 120.271164,46.888779 120.959106,48.661057 
	C121.000000,48.999962 121.006409,48.991661 121.006409,48.991661 
	C119.030838,47.579933 117.055267,46.168205 115.251709,44.222507 
	C114.617599,41.825985 113.811470,39.963428 113.005348,38.100876 
	C113.005348,38.100876 113.044411,37.942772 113.032440,37.861591 
	C113.908836,38.218700 114.797203,38.656990 115.940918,39.682846 
	C117.123207,41.520954 118.050140,42.771496 118.977074,44.022034 
z"/>
<path fill="#A3A4BB" opacity="1.000000" stroke="none" 
	d="
M78.911835,133.235077 
	C78.895355,132.848923 78.948601,132.689758 79.090134,132.294937 
	C84.224747,132.375534 89.270088,132.708694 94.317711,133.002762 
	C98.382843,133.239563 102.450729,133.429123 106.723389,134.022156 
	C105.739105,134.404175 104.548843,134.403702 102.481628,134.281281 
	C94.358665,134.129639 87.112656,134.099960 79.651169,134.057907 
	C79.435707,134.045547 79.018318,133.935562 79.018318,133.935562 
	C79.018318,133.935562 78.981567,133.462067 78.911835,133.235077 
z"/>
<path fill="#8987BA" opacity="1.000000" stroke="none" 
	d="
M81.477745,151.009369 
	C80.452599,151.069977 79.895050,151.127106 78.915260,151.258392 
	C78.493011,151.332550 78.476028,151.281631 78.667282,151.032745 
	C78.936211,150.589523 79.013893,150.395218 79.091576,150.200897 
	C79.091576,150.200897 79.093109,150.041260 79.517715,149.998062 
	C88.607262,149.877563 97.272202,149.800278 105.937141,149.722977 
	C105.937141,149.722977 106.397758,149.760071 106.627533,149.746521 
	C105.371437,150.156967 103.892097,150.918167 102.398582,150.947098 
	C95.583023,151.079132 88.763466,151.005569 81.477745,151.009369 
z"/>
<path fill="#868688" opacity="1.000000" stroke="none" 
	d="
M81.451866,154.037323 
	C80.980042,153.875198 80.978668,153.701309 80.969788,153.266800 
	C88.578194,153.006165 96.194099,153.006165 103.810005,153.006165 
	C103.813942,153.345963 103.817879,153.685776 103.821815,154.025574 
	C96.521980,154.025574 89.222153,154.025574 81.451866,154.037323 
z"/>
<path fill="#9493A6" opacity="1.000000" stroke="none" 
	d="
M102.989532,223.986877 
	C104.411034,223.318726 105.860115,222.688873 107.658073,222.038757 
	C108.004562,222.755600 108.002190,223.492676 108.001205,224.597351 
	C107.556931,224.972183 107.111267,224.979416 106.130333,224.730118 
	C104.754150,224.349640 103.913223,224.225677 103.072304,224.101730 
	C103.072304,224.101730 103.017105,224.025177 102.989532,223.986877 
z"/>
<path fill="#A1A0CA" opacity="1.000000" stroke="none" 
	d="
M61.096390,124.194878 
	C62.266422,124.016449 63.420372,124.066940 65.026108,124.420273 
	C65.477890,124.723129 65.748360,125.110626 65.748360,125.110626 
	C65.598679,125.219757 65.449005,125.328888 64.881805,125.649452 
	C64.464279,125.860886 64.035057,126.072151 63.670387,126.052704 
	C62.580585,125.991837 61.855457,125.950424 61.130329,125.909004 
	C61.130329,125.909004 61.085094,125.622040 61.102879,125.473969 
	C61.085629,125.026161 61.072174,124.725464 61.096390,124.194878 
z"/>
<path fill="#9493A6" opacity="1.000000" stroke="none" 
	d="
M111.733856,216.920013 
	C111.363396,215.936829 111.290855,214.859253 111.305573,213.383179 
	C111.605812,214.264984 111.818787,215.545303 111.733856,216.920013 
z"/>
<path fill="#0E086E" opacity="1.000000" stroke="none" 
	d="
M119.151886,43.754547 
	C118.050140,42.771496 117.123207,41.520954 116.120506,39.923500 
	C117.371597,40.479839 118.698456,41.383091 120.226639,42.571190 
	C120.060867,43.066372 119.693779,43.276714 119.151886,43.754547 
z"/>
<path fill="#9493A6" opacity="1.000000" stroke="none" 
	d="
M111.748795,206.928284 
	C111.025993,206.236435 110.590492,205.460114 109.998764,204.384857 
	C110.688202,204.076767 111.533890,204.067566 112.379562,204.058380 
	C112.265076,204.986862 112.150589,205.915329 111.748795,206.928284 
z"/>
<path fill="#9493A6" opacity="1.000000" stroke="none" 
	d="
M78.093170,224.524384 
	C79.970757,224.541626 81.951157,224.935532 84.232399,225.589066 
	C82.420822,225.532806 80.308403,225.216919 78.093170,224.524384 
z"/>
<path fill="#8F8F91" opacity="1.000000" stroke="none" 
	d="
M86.320114,226.599457 
	C85.383865,227.498260 84.417809,228.393509 83.451752,229.288757 
	C83.160744,228.933609 82.869743,228.578461 82.578735,228.223312 
	C83.170013,227.836655 83.761292,227.449997 84.998581,226.972015 
	C85.839905,226.783981 86.035217,226.687271 86.230530,226.590561 
	C86.230530,226.590561 86.290314,226.595901 86.320114,226.599457 
z"/>
<path fill="#9493A6" opacity="1.000000" stroke="none" 
	d="
M63.279545,210.886658 
	C63.663044,211.793869 63.900837,212.480865 64.179626,213.528870 
	C63.484753,212.492661 62.748894,211.095474 62.032005,209.318039 
	C62.411938,209.514023 62.772888,210.090225 63.279545,210.886658 
z"/>
<path fill="#9493A6" opacity="1.000000" stroke="none" 
	d="
M110.278969,220.983551 
	C110.260696,220.433594 110.514687,219.863998 111.087799,219.240906 
	C111.121689,219.779587 110.836456,220.371750 110.278969,220.983551 
z"/>
<path fill="#9493A6" opacity="1.000000" stroke="none" 
	d="
M111.681786,210.953156 
	C111.358994,210.542755 111.288315,210.069199 111.296448,209.240326 
	C111.561470,209.553329 111.747688,210.221664 111.681786,210.953156 
z"/>
<path fill="#0E086E" opacity="1.000000" stroke="none" 
	d="
M123.901825,45.728546 
	C123.375916,45.557713 122.727287,45.121326 122.027649,44.366940 
	C122.577469,44.520290 123.178291,44.991642 123.901825,45.728546 
z"/>
<path fill="#9695AE" opacity="1.000000" stroke="none" 
	d="
M79.984299,201.728058 
	C79.663452,201.276886 79.351868,200.490021 79.073425,199.366318 
	C79.402222,199.817108 79.697891,200.604736 79.984299,201.728058 
z"/>
<path fill="#110B60" opacity="1.000000" stroke="none" 
	d="
M92.696091,54.395218 
	C93.144859,54.245556 93.844093,54.348595 94.777672,54.721855 
	C94.323532,54.877357 93.635048,54.762634 92.696091,54.395218 
z"/>
<path fill="#110B60" opacity="1.000000" stroke="none" 
	d="
M95.817444,55.360722 
	C96.251801,55.243179 96.918236,55.370159 97.782822,55.780365 
	C97.337166,55.910809 96.693344,55.758026 95.817444,55.360722 
z"/>
<path fill="#9493A6" opacity="1.000000" stroke="none" 
	d="
M75.187546,223.300964 
	C75.568893,223.212875 76.127831,223.361664 76.866600,223.744614 
	C76.486000,223.831787 75.925560,223.684814 75.187546,223.300964 
z"/>
<path fill="#9493A6" opacity="1.000000" stroke="none" 
	d="
M68.270950,219.015198 
	C68.719505,218.952133 69.247498,219.197739 69.914513,219.708405 
	C69.485817,219.756912 68.918098,219.540390 68.270950,219.015198 
z"/>
<path fill="#9493A6" opacity="1.000000" stroke="none" 
	d="
M66.985718,217.516174 
	C67.346962,217.570221 67.762695,217.908630 68.233856,218.516037 
	C67.872932,218.456863 67.456566,218.128708 66.985718,217.516174 
z"/>
<path fill="#110B60" opacity="1.000000" stroke="none" 
	d="
M98.127060,56.274628 
	C98.514931,56.208130 99.089882,56.374981 99.824966,56.804970 
	C99.428123,56.881397 98.871124,56.694691 98.127060,56.274628 
z"/>
<path fill="#110B60" opacity="1.000000" stroke="none" 
	d="
M100.114624,57.281174 
	C100.518333,57.240574 101.102478,57.442150 101.814812,57.938046 
	C101.393684,57.996025 100.844376,57.759689 100.114624,57.281174 
z"/>
<path fill="#A1A0CA" opacity="1.000000" stroke="none" 
	d="
M60.799706,123.092239 
	C60.963245,123.005737 60.997822,123.455330 61.014694,123.679352 
	C60.899769,123.661827 60.767967,123.420280 60.799706,123.092239 
z"/>
<path fill="#9493A6" opacity="1.000000" stroke="none" 
	d="
M86.182465,226.305603 
	C86.035217,226.687271 85.839905,226.783981 85.323494,226.942047 
	C85.006104,226.783218 85.009811,226.563065 85.033157,226.010986 
	C85.413330,225.792923 85.773857,225.906784 86.182465,226.305603 
z"/>
<path fill="#9493A6" opacity="1.000000" stroke="none" 
	d="
M111.106216,208.551056 
	C111.000023,208.494598 110.879036,208.389725 110.932114,208.343658 
	C111.106194,208.402481 111.091408,208.502640 111.106216,208.551056 
z"/>
<path fill="#7E7CBA" opacity="1.000000" stroke="none" 
	d="
M81.920692,206.033035 
	C82.214935,206.227020 82.509178,206.421005 82.923874,206.855988 
	C83.044327,207.097015 83.012123,207.293915 82.764618,207.218323 
	C82.350906,207.077652 82.184708,207.012589 82.018509,206.947540 
	C82.018509,206.947540 82.000206,207.000549 81.983322,206.756638 
	C81.966431,206.512726 81.920692,206.033035 81.920692,206.033035 
z"/>
<path fill="#0E0971" opacity="1.000000" stroke="none" 
	d="
M81.717682,205.946030 
	C81.920692,206.033035 81.966431,206.512726 82.010498,206.749725 
	C81.776695,206.772217 81.498825,206.557693 81.147751,206.082306 
	C81.074539,205.821426 81.514679,205.859024 81.717682,205.946030 
z"/>
<path fill="#9493A6" opacity="1.000000" stroke="none" 
	d="
M73.172913,222.228363 
	C73.371872,222.112961 73.738831,222.246292 74.281342,222.621567 
	C74.084900,222.734711 73.712906,222.605927 73.172913,222.228363 
z"/>
<path fill="#7E7CBA" opacity="1.000000" stroke="none" 
	d="
M84.678146,207.952759 
	C84.440865,208.088913 84.099548,207.936249 83.604004,207.542175 
	C83.824554,207.421814 84.199333,207.542862 84.678146,207.952759 
z"/>
<path fill="#9493A6" opacity="1.000000" stroke="none" 
	d="
M65.108315,215.169342 
	C65.292564,215.136597 65.556168,215.331177 65.860565,215.774124 
	C65.593910,215.893219 65.356003,215.684616 65.108315,215.169342 
z"/>
<path fill="#9493A6" opacity="1.000000" stroke="none" 
	d="
M64.182564,214.077667 
	C64.388054,214.033081 64.655716,214.246170 64.990158,214.716797 
	C64.786201,214.761353 64.515472,214.548340 64.182564,214.077667 
z"/>
<path fill="#9695AE" opacity="1.000000" stroke="none" 
	d="
M80.887466,203.940887 
	C80.683495,203.962875 80.425529,203.748672 80.170509,203.277008 
	C80.479492,203.165070 80.699493,203.393448 80.887466,203.940887 
z"/>
<path fill="#EFEFF8" opacity="1.000000" stroke="none" 
	d="
M146.455521,143.801620 
	C144.552643,143.851471 143.071655,143.851471 141.186020,143.851471 
	C141.186020,140.792603 141.186020,137.910248 141.186020,134.676529 
	C144.811859,134.509018 149.019104,133.112091 150.913040,137.713242 
	C152.237473,140.930786 150.180695,143.032257 146.455521,143.801620 
z"/>
<path fill="#F3F3FA" opacity="1.000000" stroke="none" 
	d="
M267.242645,161.080383 
	C261.696259,163.869049 258.680084,162.641083 257.659058,157.127548 
	C257.195343,154.623352 256.972534,151.574554 258.008362,149.435135 
	C259.017975,147.349945 261.910400,144.706451 263.724457,144.883743 
	C265.634521,145.070419 268.409058,148.135574 268.722595,150.251694 
	C269.222687,153.626892 267.998871,157.257523 267.242645,161.080383 
z"/>
<path fill="#F3F3FA" opacity="1.000000" stroke="none" 
	d="
M210.910004,157.353882 
	C209.974411,160.989258 207.881210,163.746613 204.630768,162.530212 
	C202.415314,161.701126 200.529648,158.708221 199.553101,156.261185 
	C198.786392,154.339905 198.947556,151.388016 199.949356,149.593277 
	C201.124481,147.488007 203.737427,144.742233 205.575424,144.850189 
	C207.466614,144.961273 209.769287,147.903412 210.783585,150.115036 
	C211.655701,152.016617 210.966064,154.634460 210.910004,157.353882 
z"/>
<path fill="#F3F3FA" opacity="1.000000" stroke="none" 
	d="
M308.455200,211.024826 
	C307.060059,209.873993 306.080475,208.772446 305.100891,207.670898 
	C306.377167,206.789062 307.548431,205.523300 308.960266,205.137100 
	C310.280426,204.775970 312.012482,205.014587 313.272522,205.607285 
	C314.418854,206.146454 315.174347,207.516434 316.102112,208.520203 
	C315.007782,209.352600 314.021820,210.485382 312.787811,210.930634 
	C311.617249,211.352966 310.186890,211.055206 308.455200,211.024826 
z"/>
<path fill="#EFEFF8" opacity="1.000000" stroke="none" 
	d="
M306.841614,192.248444 
	C307.760529,190.386688 308.527527,188.301086 309.991760,187.516190 
	C310.766937,187.100677 313.145203,188.661652 314.038788,189.885803 
	C314.524750,190.551514 313.442993,193.486450 313.025360,193.495865 
	C311.018066,193.541183 308.996124,192.938065 306.841614,192.248444 
z"/>
<path fill="#F2F2F9" opacity="1.000000" stroke="none" 
	d="
M250.895065,188.995361 
	C254.765945,186.195786 258.528473,186.463516 260.823669,189.882553 
	C262.083740,191.759598 262.385986,196.115311 261.125671,197.406174 
	C259.359344,199.215271 255.539642,200.241394 252.948135,199.751587 
	C248.481781,198.907425 247.716492,194.225388 250.895065,188.995361 
z"/>
<path fill="#F2F2F9" opacity="1.000000" stroke="none" 
	d="
M285.882996,187.766571 
	C289.920227,186.504089 293.261902,187.483643 294.576172,190.938477 
	C295.359253,192.997009 295.008209,196.702759 293.608368,198.057663 
	C291.982971,199.630905 288.501007,200.214096 286.111359,199.750504 
	C284.457855,199.429718 282.106110,196.551346 282.184875,194.917938 
	C282.299652,192.536774 284.318481,190.247406 285.882996,187.766571 
z"/>
<path fill="#DDDDEF" opacity="1.000000" stroke="none" 
	d="
M176.032684,191.448166 
	C173.248032,191.813934 170.570557,191.797836 167.453003,191.862762 
	C164.800980,188.440872 167.773499,187.549652 169.929596,187.033630 
	C173.050842,186.286636 175.887207,186.935501 176.032684,191.448166 
z"/>
<path fill="#DDDDEF" opacity="1.000000" stroke="none" 
	d="
M343.913025,191.503052 
	C340.840332,191.829254 337.924133,191.785873 334.570007,191.741364 
	C333.987305,188.034882 336.365173,186.876099 339.445374,186.830276 
	C342.172089,186.789673 344.278534,187.822311 343.913025,191.503052 
z"/>
<path fill="#9B9BA2" opacity="1.000000" stroke="none" 
	d="
M102.918625,224.371796 
	C103.913223,224.225677 104.754150,224.349640 105.796051,224.729248 
	C104.897957,225.647995 103.798889,226.311111 102.351555,226.965744 
	C102.257172,226.185455 102.511063,225.413651 102.918625,224.371796 
z"/>
<path fill="#9B9BA2" opacity="1.000000" stroke="none" 
	d="
M96.343620,227.961426 
	C96.869843,227.461380 97.733292,226.971375 98.796509,226.730743 
	C98.224472,227.310593 97.452660,227.641022 96.343620,227.961426 
z"/>
<path fill="#4542AB" opacity="1.000000" stroke="none" 
	d="
M32.899586,36.605400 
	C33.129730,36.218864 33.313080,36.213768 33.778809,36.465218 
	C34.061195,36.721771 34.128983,37.175095 34.128983,37.175095 
	C34.106632,90.140068 34.084282,143.105042 34.037781,196.539032 
	C33.270454,196.967957 32.527279,196.927872 31.424595,196.789566 
	C31.059187,147.370850 31.012423,98.050247 31.125511,48.730019 
	C31.134489,44.814327 32.250988,40.901173 32.899586,36.605400 
z"/>
<path fill="#3A37A2" opacity="1.000000" stroke="none" 
	d="
M112.642265,38.061893 
	C113.811470,39.963428 114.617599,41.825985 115.180695,43.894615 
	C112.968323,43.040691 110.998985,41.980694 108.895874,40.626663 
	C109.934471,39.562725 111.106827,38.792820 112.642265,38.061893 
z"/>
<path fill="#413C8C" opacity="1.000000" stroke="none" 
	d="
M86.264229,36.345161 
	C87.220451,36.102631 88.458046,36.112675 90.009155,36.325073 
	C89.063644,36.550869 87.804619,36.574303 86.264229,36.345161 
z"/>
<path fill="#413C8C" opacity="1.000000" stroke="none" 
	d="
M82.137741,36.287735 
	C82.434799,36.033539 82.891624,35.981064 83.686432,36.008354 
	C83.448769,36.221893 82.873138,36.355671 82.137741,36.287735 
z"/>
<path fill="#413C8C" opacity="1.000000" stroke="none" 
	d="
M34.317688,37.050926 
	C34.128983,37.175095 34.061195,36.721771 34.052452,36.493759 
	C34.210590,36.223774 34.377472,36.181805 34.799339,36.180733 
	C34.937538,36.507843 34.754898,36.742886 34.317688,37.050926 
z"/>
<path fill="#2D278F" opacity="1.000000" stroke="none" 
	d="
M120.995888,49.003128 
	C121.112518,49.144741 121.233253,49.283192 121.353989,49.421642 
	C121.271080,49.370804 121.188164,49.319965 121.055832,49.130394 
	C121.006409,48.991661 121.000000,48.999962 120.995888,49.003128 
z"/>
<path fill="#4A43AC" opacity="1.000000" stroke="none" 
	d="
M61.077263,126.383362 
	C61.855457,125.950424 62.580585,125.991837 63.700066,126.303200 
	C64.133499,126.736885 64.172585,126.900627 64.211678,127.064369 
	C64.163185,147.946045 64.125191,168.827759 64.049103,189.709320 
	C64.041924,191.679520 63.795284,193.648834 63.344978,195.533875 
	C62.683811,193.963089 62.337482,192.476990 61.991158,190.990875 
	C61.668839,169.613159 61.346519,148.235443 61.077263,126.383362 
z"/>
<path fill="#8987BA" opacity="1.000000" stroke="none" 
	d="
M79.866638,134.070267 
	C87.112656,134.099960 94.358665,134.129639 102.116760,134.286530 
	C102.628845,134.413712 102.531067,134.610458 102.109207,134.854233 
	C96.847710,135.268021 92.001213,135.339157 87.172935,135.673447 
	C85.868286,135.763779 82.953217,134.488846 84.011169,138.039581 
	C81.818115,138.072861 78.880135,139.736069 79.037560,135.241058 
	C79.810364,134.730530 79.943039,134.449753 79.866638,134.070267 
z"/>
<path fill="#9895D5" opacity="1.000000" stroke="none" 
	d="
M84.473694,138.102982 
	C82.953217,134.488846 85.868286,135.763779 87.172935,135.673447 
	C92.001213,135.339157 96.847710,135.268021 102.025528,134.925385 
	C102.189888,135.694778 102.016075,136.636765 101.680679,137.898499 
	C95.991463,138.200958 90.463844,138.183670 84.473694,138.102982 
z"/>
<path fill="#2D278F" opacity="1.000000" stroke="none" 
	d="
M62.010345,199.279572 
	C61.964077,198.944992 61.956367,198.483292 62.228287,198.241089 
	C62.679482,197.986572 62.858765,197.974243 63.038044,197.961914 
	C63.038044,197.961914 63.027985,197.977325 63.132816,198.211838 
	C63.522877,198.630295 63.808105,198.814224 64.093338,198.998154 
	C64.417488,200.047058 64.741631,201.095947 65.065781,202.144852 
	C64.718468,202.284073 64.371147,202.423309 64.023834,202.562531 
	C63.368092,201.579742 62.712349,200.596939 62.010345,199.279572 
z"/>
<path fill="#3B35A0" opacity="1.000000" stroke="none" 
	d="
M63.070229,197.682541 
	C62.858765,197.974243 62.679482,197.986572 62.230438,198.010239 
	C61.956738,195.970657 61.952797,193.919739 61.970009,191.429840 
	C62.337482,192.476990 62.683811,193.963089 63.062759,195.869415 
	C63.097721,196.660812 63.100067,197.031982 63.070229,197.682541 
z"/>
<path fill="#2D278F" opacity="1.000000" stroke="none" 
	d="
M65.958641,125.054573 
	C65.748360,125.110626 65.477890,124.723129 65.456062,124.488457 
	C65.779175,124.170120 66.124115,124.086456 66.735519,124.018661 
	C66.724289,124.355858 66.446609,124.677193 65.958641,125.054573 
z"/>
<path fill="#0E0971" opacity="1.000000" stroke="none" 
	d="
M82.061264,207.112823 
	C82.184708,207.012589 82.350906,207.077652 82.725815,207.310211 
	C82.657692,207.411194 82.380852,207.344650 82.061264,207.112823 
z"/>
<path fill="#120C6F" opacity="1.000000" stroke="none" 
	d="
M79.651169,134.057907 
	C79.943039,134.449753 79.810364,134.730530 79.227020,134.975891 
	C78.989868,134.855270 78.994324,134.671341 79.008545,134.211487 
	C79.018318,133.935562 79.435707,134.045547 79.651169,134.057907 
z"/>
<path fill="#2D278F" opacity="1.000000" stroke="none" 
	d="
M64.389572,126.901566 
	C64.172585,126.900627 64.133499,126.736885 64.064743,126.322647 
	C64.035057,126.072151 64.464279,125.860886 64.703400,125.862473 
	C64.922989,126.200897 64.797966,126.492462 64.389572,126.901566 
z"/>
<path fill="#3B35A0" opacity="1.000000" stroke="none" 
	d="
M63.978188,198.766129 
	C63.808105,198.814224 63.522877,198.630295 63.130493,198.211365 
	C63.303238,198.162292 63.583138,198.348206 63.978188,198.766129 
z"/>
<path fill="#0D0761" opacity="1.000000" stroke="none" 
	d="
M78.371712,152.360809 
	C78.240593,167.064178 78.114235,181.567917 77.978638,196.541168 
	C77.359589,196.049271 76.225990,195.091354 76.219574,194.125946 
	C76.140259,182.205429 76.169739,170.283157 76.317055,158.363129 
	C76.345131,156.091553 77.006416,153.827805 77.777267,151.369537 
	C78.178993,151.178604 78.476028,151.281631 78.476028,151.281631 
	C78.476028,151.281631 78.493011,151.332550 78.506088,151.356018 
	C78.429085,151.632309 78.381523,151.892868 78.371712,152.360809 
z"/>
<path fill="#0E0A4E" opacity="1.000000" stroke="none" 
	d="
M105.606140,149.487244 
	C97.272202,149.800278 88.607262,149.877563 79.475723,149.930176 
	C84.004303,149.604218 88.996071,149.186432 93.995796,149.039871 
	C97.750282,148.929794 101.514977,149.168228 105.606140,149.487244 
z"/>
<path fill="#6E6AA6" opacity="1.000000" stroke="none" 
	d="
M78.667282,151.032745 
	C78.476028,151.281631 78.178993,151.178604 78.041412,151.102325 
	C78.131569,150.777405 78.359306,150.528732 78.839310,150.240479 
	C79.013893,150.395218 78.936211,150.589523 78.667282,151.032745 
z"/>
</svg>