<svg version="1.1" id="Layer_1" xmlns="http://www.w3.org/2000/svg" xmlns:xlink="http://www.w3.org/1999/xlink" x="0px" y="0px"
	 width="100%" viewBox="0 0 2000 1500" enable-background="new 0 0 2000 1500" xml:space="preserve">
<path fill="#FFFFFF" opacity="1.000000" stroke="none" 
	d="
M1105.000000,1501.000000 
	C736.666748,1501.000000 368.833557,1501.000000 1.000247,1501.000000 
	C1.000165,1001.000244 1.000165,501.000519 1.000082,1.000582 
	C667.666199,1.000388 1334.332397,1.000388 2000.999023,1.000194 
	C2000.999268,500.999390 2000.999268,1000.998779 2000.999634,1500.999023 
	C1702.500000,1501.000000 1404.000000,1501.000000 1105.000000,1501.000000 
M1183.304688,1236.892212 
	C1203.127319,1231.618164 1220.788208,1222.312012 1235.916748,1208.407715 
	C1259.522827,1186.712036 1271.708008,1159.480225 1276.008545,1127.952881 
	C1283.058228,1076.270508 1326.287354,1033.114868 1377.938477,1025.995239 
	C1403.991699,1022.404114 1427.788940,1013.875122 1447.567383,996.258423 
	C1480.836060,966.626160 1494.749023,929.418701 1489.192017,885.178040 
	C1486.316895,862.287720 1476.199707,842.549377 1462.592163,824.114746 
	C1441.303833,795.274597 1434.553589,762.821838 1440.824219,727.603577 
	C1444.623535,706.264343 1454.814331,688.052551 1467.574341,670.811401 
	C1501.695190,624.707520 1497.348755,557.520813 1458.089844,515.652771 
	C1436.288330,492.402435 1409.292603,480.245789 1377.938232,475.976715 
	C1326.281128,468.943390 1283.183472,425.733795 1275.992310,374.036560 
	C1272.370117,347.997314 1263.853760,324.204773 1246.239014,304.415131 
	C1216.609863,271.127563 1179.414551,257.207947 1135.177612,262.801758 
	C1113.200439,265.580780 1093.842529,274.727417 1076.188232,288.000916 
	C1046.623535,310.229553 1013.454956,317.684113 977.119019,311.069794 
	C955.986572,307.222992 938.010010,296.952789 920.806458,284.439728 
	C873.135254,249.765915 806.888428,254.604294 764.258789,295.311035 
	C741.741455,316.812714 730.172607,343.445190 725.982483,374.044647 
	C718.902344,425.748108 675.743103,468.832092 624.046570,475.999084 
	C597.826172,479.634155 573.886475,488.272797 554.054321,506.074341 
	C521.072266,535.679443 507.209351,572.751282 512.790833,616.808716 
	C515.668152,639.520508 525.578674,659.183838 539.115112,677.459839 
	C560.565308,706.420471 567.458862,738.971985 561.153320,774.380371 
	C557.353577,795.718079 547.197937,813.951172 534.425659,831.184692 
	C500.284607,877.250854 504.650238,944.587646 543.904724,986.321411 
	C565.739868,1009.535767 592.738281,1021.675415 624.053406,1026.026123 
	C675.553345,1033.181030 718.979126,1076.816895 726.018311,1128.104614 
	C729.568481,1153.971680 738.081970,1177.621338 755.534241,1197.307373 
	C785.225586,1230.798950 822.558960,1244.760864 866.985474,1239.166870 
	C889.701660,1236.306396 909.372986,1226.366699 927.611755,1212.791748 
	C954.369873,1192.875854 984.602600,1185.626709 1017.653015,1189.738159 
	C1041.305298,1192.680420 1061.480347,1203.148682 1080.553345,1217.001587 
	C1111.258667,1239.303467 1145.518799,1245.578247 1183.304688,1236.892212 
z"/>
<path fill="#3DC48D" opacity="1.000000" stroke="none" 
	d="
M1182.896973,1236.954346 
	C1145.518799,1245.578247 1111.258667,1239.303467 1080.553345,1217.001587 
	C1061.480347,1203.148682 1041.305298,1192.680420 1017.653015,1189.738159 
	C984.602600,1185.626709 954.369873,1192.875854 927.611755,1212.791748 
	C909.372986,1226.366699 889.701660,1236.306396 866.985474,1239.166870 
	C822.558960,1244.760864 785.225586,1230.798950 755.534241,1197.307373 
	C738.081970,1177.621338 729.568481,1153.971680 726.018311,1128.104614 
	C718.979126,1076.816895 675.553345,1033.181030 624.053406,1026.026123 
	C592.738281,1021.675415 565.739868,1009.535767 543.904724,986.321411 
	C504.650238,944.587646 500.284607,877.250854 534.425659,831.184692 
	C547.197937,813.951172 557.353577,795.718079 561.153320,774.380371 
	C567.458862,738.971985 560.565308,706.420471 539.115112,677.459839 
	C525.578674,659.183838 515.668152,639.520508 512.790833,616.808716 
	C507.209351,572.751282 521.072266,535.679443 554.054321,506.074341 
	C573.886475,488.272797 597.826172,479.634155 624.046570,475.999084 
	C675.743103,468.832092 718.902344,425.748108 725.982483,374.044647 
	C730.172607,343.445190 741.741455,316.812714 764.258789,295.311035 
	C806.888428,254.604294 873.135254,249.765915 920.806458,284.439728 
	C938.010010,296.952789 955.986572,307.222992 977.119019,311.069794 
	C1013.454956,317.684113 1046.623535,310.229553 1076.188232,288.000916 
	C1093.842529,274.727417 1113.200439,265.580780 1135.177612,262.801758 
	C1179.414551,257.207947 1216.609863,271.127563 1246.239014,304.415131 
	C1263.853760,324.204773 1272.370117,347.997314 1275.992310,374.036560 
	C1283.183472,425.733795 1326.281128,468.943390 1377.938232,475.976715 
	C1409.292603,480.245789 1436.288330,492.402435 1458.089844,515.652771 
	C1497.348755,557.520813 1501.695190,624.707520 1467.574341,670.811401 
	C1454.814331,688.052551 1444.623535,706.264343 1440.824219,727.603577 
	C1434.553589,762.821838 1441.303833,795.274597 1462.592163,824.114746 
	C1476.199707,842.549377 1486.316895,862.287720 1489.192017,885.178040 
	C1494.749023,929.418701 1480.836060,966.626160 1447.567383,996.258423 
	C1427.788940,1013.875122 1403.991699,1022.404114 1377.938477,1025.995239 
	C1326.287354,1033.114868 1283.058228,1076.270508 1276.008545,1127.952881 
	C1271.708008,1159.480225 1259.522827,1186.712036 1235.916748,1208.407715 
	C1220.788208,1222.312012 1203.127319,1231.618164 1182.896973,1236.954346 
M997.728210,626.928528 
	C997.144409,624.846680 996.597778,622.753662 995.971252,620.684753 
	C987.137817,591.515198 970.291748,569.322021 940.911133,558.435913 
	C926.271667,553.011658 910.970276,550.742432 895.356995,550.727722 
	C857.032410,550.691467 818.707886,550.675598 780.383301,550.671631 
	C779.104004,550.671509 777.824707,550.888000 776.450317,551.012085 
	C776.450317,672.162048 776.450317,793.018799 776.450317,913.756226 
	C792.572205,913.756226 808.312988,913.756226 824.515869,913.756226 
	C824.515869,877.084717 824.515869,840.815491 824.515869,804.034973 
	C826.932983,804.034973 828.887207,804.055542 830.840820,804.031799 
	C857.484680,803.707764 884.185059,804.358582 910.759583,802.828003 
	C954.903748,800.285461 985.037781,775.064697 996.108154,732.195557 
	C1005.033264,697.633484 1004.843018,662.690125 997.728210,626.928528 
M1144.500000,550.678162 
	C1109.105103,550.678162 1073.710327,550.678162 1038.423950,550.678162 
	C1038.423950,566.899597 1038.423950,582.283142 1038.423950,598.084167 
	C1065.088989,598.084167 1091.342773,598.084167 1118.079590,598.084167 
	C1118.079590,703.562500 1118.079590,808.616577 1118.079590,913.703003 
	C1134.260132,913.703003 1149.947021,913.703003 1166.163330,913.703003 
	C1166.163330,808.227783 1166.163330,703.187744 1166.163330,597.660278 
	C1193.448120,597.660278 1220.198975,597.660278 1246.865479,597.660278 
	C1246.865479,581.775513 1246.865479,566.384827 1246.865479,550.677856 
	C1212.787109,550.677856 1179.143555,550.677856 1144.500000,550.678162 
z"/>
<path fill="#FEFFFF" opacity="1.000000" stroke="none" 
	d="
M997.815369,627.335205 
	C1004.843018,662.690125 1005.033264,697.633484 996.108154,732.195557 
	C985.037781,775.064697 954.903748,800.285461 910.759583,802.828003 
	C884.185059,804.358582 857.484680,803.707764 830.840820,804.031799 
	C828.887207,804.055542 826.932983,804.034973 824.515869,804.034973 
	C824.515869,840.815491 824.515869,877.084717 824.515869,913.756226 
	C808.312988,913.756226 792.572205,913.756226 776.450317,913.756226 
	C776.450317,793.018799 776.450317,672.162048 776.450317,551.012085 
	C777.824707,550.888000 779.104004,550.671509 780.383301,550.671631 
	C818.707886,550.675598 857.032410,550.691467 895.356995,550.727722 
	C910.970276,550.742432 926.271667,553.011658 940.911133,558.435913 
	C970.291748,569.322021 987.137817,591.515198 995.971252,620.684753 
	C996.597778,622.753662 997.144409,624.846680 997.815369,627.335205 
M861.500000,597.885803 
	C849.250610,597.885803 837.001221,597.885803 824.670166,597.885803 
	C824.670166,651.526306 824.670166,704.427002 824.670166,757.314026 
	C825.431274,757.553650 825.889160,757.827942 826.343567,757.822266 
	C851.153931,757.511292 876.014343,758.047546 900.761047,756.617371 
	C929.635498,754.948669 944.221497,742.381775 950.444336,714.799072 
	C956.075806,689.837708 956.195496,664.493774 950.754089,639.458801 
	C945.536926,615.455688 931.913269,602.821411 907.828552,600.054077 
	C892.833923,598.331238 877.617126,598.542480 861.500000,597.885803 
z"/>
<path fill="#FEFFFF" opacity="1.000000" stroke="none" 
	d="
M1145.000000,550.677979 
	C1179.143555,550.677856 1212.787109,550.677856 1246.865479,550.677856 
	C1246.865479,566.384827 1246.865479,581.775513 1246.865479,597.660278 
	C1220.198975,597.660278 1193.448120,597.660278 1166.163330,597.660278 
	C1166.163330,703.187744 1166.163330,808.227783 1166.163330,913.703003 
	C1149.947021,913.703003 1134.260132,913.703003 1118.079590,913.703003 
	C1118.079590,808.616577 1118.079590,703.562500 1118.079590,598.084167 
	C1091.342773,598.084167 1065.088989,598.084167 1038.423950,598.084167 
	C1038.423950,582.283142 1038.423950,566.899597 1038.423950,550.678162 
	C1073.710327,550.678162 1109.105103,550.678162 1145.000000,550.677979 
z"/>
<path fill="#3EC48E" opacity="1.000000" stroke="none" 
	d="
M862.000000,597.885742 
	C877.617126,598.542480 892.833923,598.331238 907.828552,600.054077 
	C931.913269,602.821411 945.536926,615.455688 950.754089,639.458801 
	C956.195496,664.493774 956.075806,689.837708 950.444336,714.799072 
	C944.221497,742.381775 929.635498,754.948669 900.761047,756.617371 
	C876.014343,758.047546 851.153931,757.511292 826.343567,757.822266 
	C825.889160,757.827942 825.431274,757.553650 824.670166,757.314026 
	C824.670166,704.427002 824.670166,651.526306 824.670166,597.885803 
	C837.001221,597.885803 849.250610,597.885803 862.000000,597.885742 
z"/>
</svg>